G04 #@! TF.GenerationSoftware,KiCad,Pcbnew,8.0.0*
G04 #@! TF.CreationDate,2024-04-27T08:46:39-07:00*
G04 #@! TF.ProjectId,module controller,6d6f6475-6c65-4206-936f-6e74726f6c6c,rev?*
G04 #@! TF.SameCoordinates,Original*
G04 #@! TF.FileFunction,Soldermask,Top*
G04 #@! TF.FilePolarity,Negative*
%FSLAX46Y46*%
G04 Gerber Fmt 4.6, Leading zero omitted, Abs format (unit mm)*
G04 Created by KiCad (PCBNEW 8.0.0) date 2024-04-27 08:46:39*
%MOMM*%
%LPD*%
G01*
G04 APERTURE LIST*
G04 Aperture macros list*
%AMRoundRect*
0 Rectangle with rounded corners*
0 $1 Rounding radius*
0 $2 $3 $4 $5 $6 $7 $8 $9 X,Y pos of 4 corners*
0 Add a 4 corners polygon primitive as box body*
4,1,4,$2,$3,$4,$5,$6,$7,$8,$9,$2,$3,0*
0 Add four circle primitives for the rounded corners*
1,1,$1+$1,$2,$3*
1,1,$1+$1,$4,$5*
1,1,$1+$1,$6,$7*
1,1,$1+$1,$8,$9*
0 Add four rect primitives between the rounded corners*
20,1,$1+$1,$2,$3,$4,$5,0*
20,1,$1+$1,$4,$5,$6,$7,0*
20,1,$1+$1,$6,$7,$8,$9,0*
20,1,$1+$1,$8,$9,$2,$3,0*%
G04 Aperture macros list end*
%ADD10RoundRect,0.150000X0.587500X0.150000X-0.587500X0.150000X-0.587500X-0.150000X0.587500X-0.150000X0*%
%ADD11RoundRect,0.155000X-0.155000X0.212500X-0.155000X-0.212500X0.155000X-0.212500X0.155000X0.212500X0*%
%ADD12C,1.700000*%
%ADD13RoundRect,0.250000X0.475000X-0.250000X0.475000X0.250000X-0.475000X0.250000X-0.475000X-0.250000X0*%
%ADD14RoundRect,0.160000X0.160000X-0.197500X0.160000X0.197500X-0.160000X0.197500X-0.160000X-0.197500X0*%
%ADD15RoundRect,0.150000X-0.587500X-0.150000X0.587500X-0.150000X0.587500X0.150000X-0.587500X0.150000X0*%
%ADD16C,10.000000*%
%ADD17RoundRect,0.250000X-0.362500X-1.425000X0.362500X-1.425000X0.362500X1.425000X-0.362500X1.425000X0*%
%ADD18RoundRect,0.250000X-2.050000X-0.300000X2.050000X-0.300000X2.050000X0.300000X-2.050000X0.300000X0*%
%ADD19RoundRect,0.250002X-4.449998X-5.149998X4.449998X-5.149998X4.449998X5.149998X-4.449998X5.149998X0*%
%ADD20RoundRect,0.250000X-0.625000X0.400000X-0.625000X-0.400000X0.625000X-0.400000X0.625000X0.400000X0*%
%ADD21RoundRect,0.150000X0.150000X-0.875000X0.150000X0.875000X-0.150000X0.875000X-0.150000X-0.875000X0*%
%ADD22RoundRect,0.160000X-0.160000X0.197500X-0.160000X-0.197500X0.160000X-0.197500X0.160000X0.197500X0*%
%ADD23RoundRect,0.249999X1.450001X-0.450001X1.450001X0.450001X-1.450001X0.450001X-1.450001X-0.450001X0*%
%ADD24RoundRect,0.250000X0.400000X0.625000X-0.400000X0.625000X-0.400000X-0.625000X0.400000X-0.625000X0*%
%ADD25RoundRect,0.375000X0.375000X-0.625000X0.375000X0.625000X-0.375000X0.625000X-0.375000X-0.625000X0*%
%ADD26RoundRect,0.500000X1.400000X-0.500000X1.400000X0.500000X-1.400000X0.500000X-1.400000X-0.500000X0*%
%ADD27RoundRect,0.155000X0.155000X-0.212500X0.155000X0.212500X-0.155000X0.212500X-0.155000X-0.212500X0*%
%ADD28C,2.500000*%
%ADD29RoundRect,0.160000X0.197500X0.160000X-0.197500X0.160000X-0.197500X-0.160000X0.197500X-0.160000X0*%
%ADD30RoundRect,0.112500X-0.112500X-0.237500X0.112500X-0.237500X0.112500X0.237500X-0.112500X0.237500X0*%
%ADD31RoundRect,0.155000X-0.212500X-0.155000X0.212500X-0.155000X0.212500X0.155000X-0.212500X0.155000X0*%
%ADD32RoundRect,0.250000X2.050000X0.300000X-2.050000X0.300000X-2.050000X-0.300000X2.050000X-0.300000X0*%
%ADD33RoundRect,0.250002X4.449998X5.149998X-4.449998X5.149998X-4.449998X-5.149998X4.449998X-5.149998X0*%
%ADD34RoundRect,0.160000X-0.197500X-0.160000X0.197500X-0.160000X0.197500X0.160000X-0.197500X0.160000X0*%
%ADD35RoundRect,1.000000X-1.000000X-2.600000X1.000000X-2.600000X1.000000X2.600000X-1.000000X2.600000X0*%
%ADD36R,2.667000X2.667000*%
%ADD37C,2.667000*%
%ADD38R,1.700000X1.700000*%
%ADD39O,1.700000X1.700000*%
G04 APERTURE END LIST*
D10*
X102567500Y-60042500D03*
X102567500Y-58142500D03*
X100692500Y-59092500D03*
D11*
X127980000Y-36172500D03*
X127980000Y-37307500D03*
D12*
X152200000Y-70500000D03*
D13*
X146790000Y-71560000D03*
X146790000Y-69660000D03*
D12*
X143660000Y-41010000D03*
D14*
X131850000Y-37317500D03*
X131850000Y-36122500D03*
D15*
X100852500Y-66837500D03*
X100852500Y-68737500D03*
X102727500Y-67787500D03*
D12*
X141120000Y-41010000D03*
D16*
X117750000Y-42250000D03*
D10*
X102647500Y-64032500D03*
X102647500Y-62132500D03*
X100772500Y-63082500D03*
D17*
X122547500Y-69860000D03*
X128472500Y-69860000D03*
D18*
X125040000Y-52910000D03*
D19*
X134190000Y-55450000D03*
D18*
X125040000Y-57990000D03*
D20*
X152220000Y-64180000D03*
X152220000Y-67280000D03*
D21*
X124610000Y-48430000D03*
X125880000Y-48430000D03*
X127150000Y-48430000D03*
X128420000Y-48430000D03*
X129690000Y-48430000D03*
X130960000Y-48430000D03*
X132230000Y-48430000D03*
X133500000Y-48430000D03*
X133500000Y-39130000D03*
X132230000Y-39130000D03*
X130960000Y-39130000D03*
X129690000Y-39130000D03*
X128420000Y-39130000D03*
X127150000Y-39130000D03*
X125880000Y-39130000D03*
X124610000Y-39130000D03*
D22*
X129930000Y-36102500D03*
X129930000Y-37297500D03*
D23*
X118610000Y-74230000D03*
X118610000Y-70130000D03*
D22*
X128920000Y-36112500D03*
X128920000Y-37307500D03*
D17*
X122627500Y-73730000D03*
X128552500Y-73730000D03*
D24*
X133730000Y-75000000D03*
X130630000Y-75000000D03*
D25*
X131027501Y-72320000D03*
X133327501Y-72320000D03*
X135627501Y-72320000D03*
D26*
X133327501Y-66020000D03*
D27*
X132890000Y-37277500D03*
X132890000Y-36142500D03*
D25*
X139220000Y-72530000D03*
X141520000Y-72530000D03*
X143820000Y-72530000D03*
D26*
X141520000Y-66230000D03*
D28*
X101330000Y-74520000D03*
X98330000Y-74520000D03*
D29*
X141067500Y-36980000D03*
X139872500Y-36980000D03*
D23*
X110560000Y-74240000D03*
X110560000Y-70140000D03*
D30*
X142860000Y-46900000D03*
X144160000Y-46900000D03*
X143510000Y-44900000D03*
D11*
X130890000Y-36152500D03*
X130890000Y-37287500D03*
D23*
X114590000Y-74240000D03*
X114590000Y-70140000D03*
D24*
X143820000Y-75030000D03*
X140720000Y-75030000D03*
D16*
X104250000Y-42000000D03*
D24*
X138760000Y-74990000D03*
X135660000Y-74990000D03*
D12*
X143660000Y-38470000D03*
D29*
X136367500Y-37870000D03*
X135172500Y-37870000D03*
D12*
X141120000Y-38470000D03*
D31*
X140422500Y-46510000D03*
X141557500Y-46510000D03*
D32*
X124560000Y-64500000D03*
D33*
X115410000Y-61960000D03*
D32*
X124560000Y-59420000D03*
D34*
X135232500Y-39280000D03*
X136427500Y-39280000D03*
X134532500Y-35680000D03*
X135727500Y-35680000D03*
D12*
X141130000Y-43550000D03*
D34*
X136882500Y-35710000D03*
X138077500Y-35710000D03*
D35*
X109020000Y-51680000D03*
X119520000Y-51680000D03*
D34*
X125802500Y-37270000D03*
X126997500Y-37270000D03*
D36*
X105500000Y-70000000D03*
D37*
X105500000Y-66038000D03*
X105500000Y-62075000D03*
X105500000Y-58113000D03*
D12*
X148558200Y-71480000D03*
X148558200Y-68940000D03*
X148558200Y-63860000D03*
X148558200Y-58780000D03*
D38*
X94512500Y-39395000D03*
D39*
X91972500Y-39395000D03*
X94512500Y-41935000D03*
X91972500Y-41935000D03*
X94512500Y-44475000D03*
X91972500Y-44475000D03*
M02*
