G04 #@! TF.GenerationSoftware,KiCad,Pcbnew,8.0.0*
G04 #@! TF.CreationDate,2024-04-27T08:46:39-07:00*
G04 #@! TF.ProjectId,module controller,6d6f6475-6c65-4206-936f-6e74726f6c6c,rev?*
G04 #@! TF.SameCoordinates,Original*
G04 #@! TF.FileFunction,Copper,L2,Inr*
G04 #@! TF.FilePolarity,Positive*
%FSLAX46Y46*%
G04 Gerber Fmt 4.6, Leading zero omitted, Abs format (unit mm)*
G04 Created by KiCad (PCBNEW 8.0.0) date 2024-04-27 08:46:39*
%MOMM*%
%LPD*%
G01*
G04 APERTURE LIST*
G04 #@! TA.AperFunction,ComponentPad*
%ADD10C,10.000000*%
G04 #@! TD*
G04 #@! TA.AperFunction,ComponentPad*
%ADD11C,2.500000*%
G04 #@! TD*
G04 #@! TA.AperFunction,ComponentPad*
%ADD12C,1.700000*%
G04 #@! TD*
G04 #@! TA.AperFunction,ComponentPad*
%ADD13R,1.700000X1.700000*%
G04 #@! TD*
G04 #@! TA.AperFunction,ComponentPad*
%ADD14O,1.700000X1.700000*%
G04 #@! TD*
G04 #@! TA.AperFunction,ViaPad*
%ADD15C,0.500000*%
G04 #@! TD*
G04 #@! TA.AperFunction,Conductor*
%ADD16C,0.254000*%
G04 #@! TD*
G04 APERTURE END LIST*
D10*
X117750000Y-42250000D03*
D11*
X101330000Y-74520000D03*
X98330000Y-74520000D03*
D12*
X141130000Y-43550000D03*
X148558200Y-63860000D03*
D13*
X94512500Y-39395000D03*
D14*
X91972500Y-39395000D03*
X94512500Y-41935000D03*
X91972500Y-41935000D03*
X94512500Y-44475000D03*
X91972500Y-44475000D03*
D15*
X134350000Y-38430000D03*
X126235080Y-37668317D03*
X143610000Y-46290000D03*
X138969345Y-37127899D03*
X138282291Y-47449290D03*
X146920000Y-54230000D03*
X126828356Y-66638357D03*
X128950000Y-46590000D03*
X134481399Y-44581399D03*
X127400682Y-41972071D03*
X120924994Y-72425006D03*
X141277042Y-47684083D03*
X122419706Y-66206322D03*
X125450000Y-50990000D03*
X135250000Y-70720000D03*
X131413512Y-61369454D03*
X132832504Y-34102937D03*
X129730000Y-71260000D03*
X136810000Y-40110000D03*
X131454000Y-40148391D03*
X131387330Y-62119000D03*
X126844336Y-36492162D03*
X120220656Y-72167313D03*
X130900000Y-70380000D03*
X137933614Y-34801408D03*
X145080002Y-52190002D03*
X122882735Y-54382735D03*
X98290000Y-54570000D03*
X95630000Y-48310000D03*
X106430000Y-59720000D03*
X101560000Y-64740000D03*
X101350000Y-60600000D03*
X138753000Y-46072235D03*
X140241644Y-45428356D03*
X130330000Y-65800000D03*
X130459187Y-35398859D03*
X134175294Y-42480000D03*
X131175011Y-35298681D03*
X127730000Y-40700000D03*
X137156874Y-38567383D03*
X133800000Y-61492000D03*
X128497000Y-43823000D03*
X129752330Y-62327670D03*
X138440244Y-36585782D03*
X142810000Y-57660000D03*
X139450000Y-41895517D03*
X124999999Y-70436713D03*
X135428209Y-42258929D03*
X136126825Y-41986092D03*
X125761080Y-70317684D03*
X133000000Y-61520000D03*
X132820000Y-46970000D03*
X133549895Y-43097426D03*
X123593450Y-66264454D03*
X127595410Y-42666874D03*
X124959603Y-68646292D03*
X131000000Y-41927616D03*
X126860000Y-63250000D03*
X124273000Y-52070000D03*
X136217850Y-43557000D03*
X154030000Y-65400000D03*
X137645031Y-45410282D03*
X137469383Y-37902089D03*
X132655318Y-35329530D03*
X133191866Y-40593584D03*
X131927691Y-35235358D03*
X131913000Y-40692725D03*
X127925688Y-41391024D03*
X124888628Y-66328085D03*
X125730000Y-43990000D03*
X125580000Y-45710000D03*
X128728919Y-44824839D03*
X132540000Y-41280000D03*
X137500000Y-62200000D03*
X140667086Y-39688555D03*
X129946000Y-45296528D03*
D16*
X137933614Y-34801408D02*
X138179616Y-34801408D01*
X144300000Y-51410000D02*
X145080002Y-52190002D01*
X138179616Y-34801408D02*
X142700001Y-37411254D01*
X142783000Y-37494253D02*
X142783000Y-41373265D01*
X144300000Y-51338578D02*
X144300000Y-51410000D01*
X142700001Y-37411254D02*
X142783000Y-37494253D01*
X142783000Y-41373265D02*
X144300000Y-42890265D01*
X144300000Y-51338578D02*
X144300000Y-42890265D01*
G04 #@! TA.AperFunction,Conductor*
G36*
X133824859Y-32178103D02*
G01*
X133884322Y-32186150D01*
X133929690Y-32201642D01*
X137524997Y-34277394D01*
X137573213Y-34327961D01*
X137586436Y-34396568D01*
X137560468Y-34461433D01*
X137556711Y-34465983D01*
X137504837Y-34525849D01*
X137504836Y-34525851D01*
X137444572Y-34657808D01*
X137444571Y-34657812D01*
X137423926Y-34801408D01*
X137444571Y-34945003D01*
X137444572Y-34945007D01*
X137494336Y-35053972D01*
X137504837Y-35076966D01*
X137599839Y-35186604D01*
X137678273Y-35237010D01*
X137721883Y-35265038D01*
X137861075Y-35305907D01*
X137861077Y-35305908D01*
X137861078Y-35305908D01*
X138006150Y-35305908D01*
X138143650Y-35265535D01*
X138213518Y-35265535D01*
X138240579Y-35277123D01*
X142309873Y-37626531D01*
X142339500Y-37643636D01*
X142387716Y-37694203D01*
X142401500Y-37751023D01*
X142401500Y-41423490D01*
X142427499Y-41520519D01*
X142427500Y-41520522D01*
X142447729Y-41555559D01*
X142447730Y-41555560D01*
X142477723Y-41607510D01*
X142477725Y-41607513D01*
X143882181Y-43011969D01*
X143915666Y-43073292D01*
X143918500Y-43099650D01*
X143918500Y-51288353D01*
X143918500Y-51460225D01*
X143924750Y-51483550D01*
X143944499Y-51557255D01*
X143944500Y-51557256D01*
X143994497Y-51643854D01*
X143994724Y-51644247D01*
X143994725Y-51644248D01*
X143994727Y-51644251D01*
X144546139Y-52195662D01*
X144579624Y-52256985D01*
X144581196Y-52265694D01*
X144582668Y-52275934D01*
X144590960Y-52333598D01*
X144651225Y-52465560D01*
X144746227Y-52575198D01*
X144824661Y-52625604D01*
X144868271Y-52653632D01*
X145007463Y-52694501D01*
X145007465Y-52694502D01*
X145007466Y-52694502D01*
X145152539Y-52694502D01*
X145152539Y-52694501D01*
X145260554Y-52662785D01*
X145291731Y-52653632D01*
X145291732Y-52653632D01*
X145291734Y-52653631D01*
X145413777Y-52575198D01*
X145508779Y-52465560D01*
X145569044Y-52333598D01*
X145584144Y-52228569D01*
X145613168Y-52165015D01*
X145671946Y-52127240D01*
X145741816Y-52127240D01*
X145768582Y-52138657D01*
X152726455Y-56130125D01*
X152774811Y-56180559D01*
X152787710Y-56221633D01*
X152798957Y-56307789D01*
X152800000Y-56323840D01*
X152800000Y-66800184D01*
X152798935Y-66816404D01*
X152785031Y-66921788D01*
X152776617Y-66953116D01*
X152739006Y-67043703D01*
X152722756Y-67071778D01*
X152662942Y-67149506D01*
X152639965Y-67172406D01*
X152562032Y-67231965D01*
X152533904Y-67248121D01*
X152443198Y-67285427D01*
X152411842Y-67293736D01*
X152306409Y-67307289D01*
X152290188Y-67308299D01*
X151980059Y-67307266D01*
X149800932Y-67300002D01*
X149800932Y-67300003D01*
X149800847Y-67300002D01*
X149800000Y-67300000D01*
X149799966Y-67300000D01*
X146126959Y-67300000D01*
X146000000Y-67300000D01*
X145888422Y-67360570D01*
X145888419Y-67360572D01*
X145888417Y-67360573D01*
X142763636Y-69056883D01*
X142763634Y-69056884D01*
X142500000Y-69200000D01*
X142502196Y-69499963D01*
X142546263Y-75519601D01*
X142545315Y-75535840D01*
X142532163Y-75641400D01*
X142523966Y-75672812D01*
X142486965Y-75763727D01*
X142470898Y-75791934D01*
X142411570Y-75870129D01*
X142388734Y-75893198D01*
X142367556Y-75909607D01*
X142349626Y-75923499D01*
X142284579Y-75949000D01*
X142273679Y-75949480D01*
X114277068Y-75949480D01*
X114210029Y-75929795D01*
X114178850Y-75901171D01*
X114156671Y-75872391D01*
X114140417Y-75844366D01*
X114102764Y-75753941D01*
X114094324Y-75722665D01*
X114080292Y-75617439D01*
X114079204Y-75601243D01*
X114079089Y-75527753D01*
X114073834Y-72167313D01*
X119710968Y-72167313D01*
X119731613Y-72310908D01*
X119731614Y-72310912D01*
X119779777Y-72416372D01*
X119791879Y-72442871D01*
X119886881Y-72552509D01*
X119965315Y-72602915D01*
X120008925Y-72630943D01*
X120148117Y-72671812D01*
X120148119Y-72671813D01*
X120148120Y-72671813D01*
X120293193Y-72671813D01*
X120293193Y-72671812D01*
X120432385Y-72630943D01*
X120432386Y-72630943D01*
X120432388Y-72630942D01*
X120554431Y-72552509D01*
X120649433Y-72442871D01*
X120709698Y-72310909D01*
X120730344Y-72167313D01*
X120709698Y-72023717D01*
X120709697Y-72023713D01*
X120649433Y-71891756D01*
X120649433Y-71891755D01*
X120554431Y-71782117D01*
X120515028Y-71756794D01*
X120432386Y-71703682D01*
X120293194Y-71662813D01*
X120293192Y-71662813D01*
X120148120Y-71662813D01*
X120148117Y-71662813D01*
X120008926Y-71703682D01*
X120008925Y-71703682D01*
X119886882Y-71782116D01*
X119791879Y-71891755D01*
X119791878Y-71891756D01*
X119731614Y-72023713D01*
X119731613Y-72023717D01*
X119710968Y-72167313D01*
X114073834Y-72167313D01*
X114071128Y-70436713D01*
X124490311Y-70436713D01*
X124510956Y-70580308D01*
X124510957Y-70580312D01*
X124566933Y-70702880D01*
X124571222Y-70712271D01*
X124666224Y-70821909D01*
X124744658Y-70872315D01*
X124788268Y-70900343D01*
X124927460Y-70941212D01*
X124927462Y-70941213D01*
X124927463Y-70941213D01*
X125072536Y-70941213D01*
X125072536Y-70941212D01*
X125211728Y-70900343D01*
X125211729Y-70900343D01*
X125211731Y-70900342D01*
X125333774Y-70821909D01*
X125363114Y-70788048D01*
X125421889Y-70750274D01*
X125491759Y-70750273D01*
X125523867Y-70764937D01*
X125549348Y-70781313D01*
X125549350Y-70781314D01*
X125651718Y-70811371D01*
X125687607Y-70821909D01*
X125688541Y-70822183D01*
X125688543Y-70822184D01*
X125688544Y-70822184D01*
X125833617Y-70822184D01*
X125833617Y-70822183D01*
X125972809Y-70781314D01*
X125972810Y-70781314D01*
X125998293Y-70764937D01*
X126094855Y-70702880D01*
X126189857Y-70593242D01*
X126250122Y-70461280D01*
X126261808Y-70380000D01*
X130390312Y-70380000D01*
X130410957Y-70523595D01*
X130410958Y-70523599D01*
X130471222Y-70655556D01*
X130471223Y-70655558D01*
X130566225Y-70765196D01*
X130627436Y-70804534D01*
X130688269Y-70843630D01*
X130827461Y-70884499D01*
X130827463Y-70884500D01*
X130827464Y-70884500D01*
X130972537Y-70884500D01*
X130972537Y-70884499D01*
X131111729Y-70843630D01*
X131111730Y-70843630D01*
X131111732Y-70843629D01*
X131233775Y-70765196D01*
X131328777Y-70655558D01*
X131389042Y-70523596D01*
X131409688Y-70380000D01*
X131389042Y-70236404D01*
X131389041Y-70236400D01*
X131328777Y-70104443D01*
X131328777Y-70104442D01*
X131233775Y-69994804D01*
X131189499Y-69966349D01*
X131111730Y-69916369D01*
X130972538Y-69875500D01*
X130972536Y-69875500D01*
X130827464Y-69875500D01*
X130827461Y-69875500D01*
X130688270Y-69916369D01*
X130688269Y-69916369D01*
X130566226Y-69994803D01*
X130471223Y-70104442D01*
X130471222Y-70104443D01*
X130410958Y-70236400D01*
X130410957Y-70236404D01*
X130390312Y-70380000D01*
X126261808Y-70380000D01*
X126270768Y-70317684D01*
X126250122Y-70174088D01*
X126250121Y-70174084D01*
X126210341Y-70086980D01*
X126189857Y-70042126D01*
X126094855Y-69932488D01*
X126060030Y-69910107D01*
X125972810Y-69854053D01*
X125833618Y-69813184D01*
X125833616Y-69813184D01*
X125688544Y-69813184D01*
X125688541Y-69813184D01*
X125549350Y-69854053D01*
X125549349Y-69854053D01*
X125427306Y-69932487D01*
X125427305Y-69932488D01*
X125397964Y-69966349D01*
X125339185Y-70004123D01*
X125269316Y-70004122D01*
X125237212Y-69989460D01*
X125211728Y-69973082D01*
X125072537Y-69932213D01*
X125072535Y-69932213D01*
X124927463Y-69932213D01*
X124927460Y-69932213D01*
X124788269Y-69973082D01*
X124788268Y-69973082D01*
X124666225Y-70051516D01*
X124571222Y-70161155D01*
X124571221Y-70161156D01*
X124510957Y-70293113D01*
X124510956Y-70293117D01*
X124490311Y-70436713D01*
X114071128Y-70436713D01*
X114068328Y-68646292D01*
X124449915Y-68646292D01*
X124470560Y-68789887D01*
X124470561Y-68789891D01*
X124530825Y-68921848D01*
X124530826Y-68921850D01*
X124625828Y-69031488D01*
X124665345Y-69056884D01*
X124747872Y-69109922D01*
X124887064Y-69150791D01*
X124887066Y-69150792D01*
X124887067Y-69150792D01*
X125032140Y-69150792D01*
X125032140Y-69150791D01*
X125171332Y-69109922D01*
X125171333Y-69109922D01*
X125171335Y-69109921D01*
X125293378Y-69031488D01*
X125388380Y-68921850D01*
X125448645Y-68789888D01*
X125469291Y-68646292D01*
X125448645Y-68502696D01*
X125448644Y-68502692D01*
X125388380Y-68370735D01*
X125388380Y-68370734D01*
X125293378Y-68261096D01*
X125258553Y-68238715D01*
X125171333Y-68182661D01*
X125032141Y-68141792D01*
X125032139Y-68141792D01*
X124887067Y-68141792D01*
X124887064Y-68141792D01*
X124747873Y-68182661D01*
X124747872Y-68182661D01*
X124625829Y-68261095D01*
X124530826Y-68370734D01*
X124530825Y-68370735D01*
X124470561Y-68502692D01*
X124470560Y-68502696D01*
X124449915Y-68646292D01*
X114068328Y-68646292D01*
X114064603Y-66264454D01*
X123083762Y-66264454D01*
X123104407Y-66408049D01*
X123104408Y-66408053D01*
X123164672Y-66540010D01*
X123164673Y-66540012D01*
X123259675Y-66649650D01*
X123338109Y-66700056D01*
X123381719Y-66728084D01*
X123520911Y-66768953D01*
X123520913Y-66768954D01*
X123520914Y-66768954D01*
X123665987Y-66768954D01*
X123665987Y-66768953D01*
X123805179Y-66728084D01*
X123805180Y-66728084D01*
X123805182Y-66728083D01*
X123927225Y-66649650D01*
X124022227Y-66540012D01*
X124082492Y-66408050D01*
X124093989Y-66328085D01*
X124378940Y-66328085D01*
X124399585Y-66471680D01*
X124399586Y-66471684D01*
X124459850Y-66603641D01*
X124459851Y-66603643D01*
X124554853Y-66713281D01*
X124577887Y-66728084D01*
X124676897Y-66791715D01*
X124816089Y-66832584D01*
X124816091Y-66832585D01*
X124816092Y-66832585D01*
X124961165Y-66832585D01*
X124961165Y-66832584D01*
X125100357Y-66791715D01*
X125100358Y-66791715D01*
X125100360Y-66791714D01*
X125222403Y-66713281D01*
X125317405Y-66603643D01*
X125377670Y-66471681D01*
X125398316Y-66328085D01*
X125377670Y-66184489D01*
X125377669Y-66184485D01*
X125317405Y-66052528D01*
X125317405Y-66052527D01*
X125222403Y-65942889D01*
X125162669Y-65904500D01*
X125100358Y-65864454D01*
X124961166Y-65823585D01*
X124961164Y-65823585D01*
X124816092Y-65823585D01*
X124816089Y-65823585D01*
X124676898Y-65864454D01*
X124676897Y-65864454D01*
X124554854Y-65942888D01*
X124554853Y-65942888D01*
X124554853Y-65942889D01*
X124554238Y-65943599D01*
X124459851Y-66052527D01*
X124459850Y-66052528D01*
X124399586Y-66184485D01*
X124399585Y-66184489D01*
X124378940Y-66328085D01*
X124093989Y-66328085D01*
X124103138Y-66264454D01*
X124082492Y-66120858D01*
X124082491Y-66120854D01*
X124022227Y-65988897D01*
X124022227Y-65988896D01*
X123927225Y-65879258D01*
X123892400Y-65856877D01*
X123805180Y-65800823D01*
X123802377Y-65800000D01*
X129820312Y-65800000D01*
X129840957Y-65943595D01*
X129840958Y-65943599D01*
X129901222Y-66075556D01*
X129901223Y-66075558D01*
X129996225Y-66185196D01*
X130074659Y-66235602D01*
X130118269Y-66263630D01*
X130257461Y-66304499D01*
X130257463Y-66304500D01*
X130257464Y-66304500D01*
X130402537Y-66304500D01*
X130402537Y-66304499D01*
X130510552Y-66272783D01*
X130541729Y-66263630D01*
X130541730Y-66263630D01*
X130541732Y-66263629D01*
X130663775Y-66185196D01*
X130758777Y-66075558D01*
X130819042Y-65943596D01*
X130839688Y-65800000D01*
X130819042Y-65656404D01*
X130819041Y-65656400D01*
X130758777Y-65524443D01*
X130758777Y-65524442D01*
X130663775Y-65414804D01*
X130628950Y-65392423D01*
X130541730Y-65336369D01*
X130402538Y-65295500D01*
X130402536Y-65295500D01*
X130257464Y-65295500D01*
X130257461Y-65295500D01*
X130118270Y-65336369D01*
X130118269Y-65336369D01*
X129996226Y-65414803D01*
X129901223Y-65524442D01*
X129901222Y-65524443D01*
X129840958Y-65656400D01*
X129840957Y-65656404D01*
X129820312Y-65800000D01*
X123802377Y-65800000D01*
X123665988Y-65759954D01*
X123665986Y-65759954D01*
X123520914Y-65759954D01*
X123520911Y-65759954D01*
X123381720Y-65800823D01*
X123381719Y-65800823D01*
X123259676Y-65879257D01*
X123164673Y-65988896D01*
X123164672Y-65988897D01*
X123104408Y-66120854D01*
X123104407Y-66120858D01*
X123083762Y-66264454D01*
X114064603Y-66264454D01*
X114060340Y-63538291D01*
X114061402Y-63521916D01*
X114075439Y-63415400D01*
X114083979Y-63383758D01*
X114122233Y-63292309D01*
X114138771Y-63264005D01*
X114149671Y-63250000D01*
X125804417Y-63250000D01*
X125824699Y-63455932D01*
X125824700Y-63455934D01*
X125884768Y-63653954D01*
X125982315Y-63836450D01*
X125982317Y-63836452D01*
X126113589Y-63996410D01*
X126182537Y-64052993D01*
X126273550Y-64127685D01*
X126456046Y-64225232D01*
X126654066Y-64285300D01*
X126654065Y-64285300D01*
X126672529Y-64287118D01*
X126860000Y-64305583D01*
X127065934Y-64285300D01*
X127263954Y-64225232D01*
X127446450Y-64127685D01*
X127606410Y-63996410D01*
X127718357Y-63860001D01*
X147203043Y-63860001D01*
X147223630Y-64095315D01*
X147223632Y-64095326D01*
X147284766Y-64323483D01*
X147284770Y-64323492D01*
X147384600Y-64537578D01*
X147516076Y-64725345D01*
X148127469Y-64113952D01*
X148158101Y-64167007D01*
X148251193Y-64260099D01*
X148304246Y-64290729D01*
X147692852Y-64902122D01*
X147880621Y-65033599D01*
X148094707Y-65133429D01*
X148094716Y-65133433D01*
X148322873Y-65194567D01*
X148322884Y-65194569D01*
X148558198Y-65215157D01*
X148558202Y-65215157D01*
X148793515Y-65194569D01*
X148793526Y-65194567D01*
X149021683Y-65133433D01*
X149021692Y-65133429D01*
X149235776Y-65033601D01*
X149423546Y-64902122D01*
X148812153Y-64290729D01*
X148865207Y-64260099D01*
X148958299Y-64167007D01*
X148988929Y-64113953D01*
X149600322Y-64725346D01*
X149731801Y-64537576D01*
X149831629Y-64323492D01*
X149831633Y-64323483D01*
X149892767Y-64095326D01*
X149892769Y-64095315D01*
X149913357Y-63860001D01*
X149913357Y-63859998D01*
X149892769Y-63624684D01*
X149892767Y-63624673D01*
X149831633Y-63396516D01*
X149831629Y-63396507D01*
X149731800Y-63182422D01*
X149731799Y-63182420D01*
X149600323Y-62994652D01*
X149600322Y-62994652D01*
X148988929Y-63606046D01*
X148958299Y-63552993D01*
X148865207Y-63459901D01*
X148812153Y-63429270D01*
X149423546Y-62817876D01*
X149235778Y-62686400D01*
X149021692Y-62586570D01*
X149021683Y-62586566D01*
X148793526Y-62525432D01*
X148793515Y-62525430D01*
X148558202Y-62504843D01*
X148558198Y-62504843D01*
X148322884Y-62525430D01*
X148322873Y-62525432D01*
X148094716Y-62586566D01*
X148094707Y-62586570D01*
X147880623Y-62686399D01*
X147880621Y-62686400D01*
X147692853Y-62817876D01*
X147692852Y-62817876D01*
X148304246Y-63429270D01*
X148251193Y-63459901D01*
X148158101Y-63552993D01*
X148127470Y-63606046D01*
X147516076Y-62994652D01*
X147516076Y-62994653D01*
X147384600Y-63182421D01*
X147384599Y-63182423D01*
X147284770Y-63396507D01*
X147284766Y-63396516D01*
X147223632Y-63624673D01*
X147223630Y-63624684D01*
X147203043Y-63859998D01*
X147203043Y-63860001D01*
X127718357Y-63860001D01*
X127737685Y-63836450D01*
X127835232Y-63653954D01*
X127895300Y-63455934D01*
X127915583Y-63250000D01*
X127895300Y-63044066D01*
X127835232Y-62846046D01*
X127737685Y-62663550D01*
X127671275Y-62582629D01*
X127606410Y-62503589D01*
X127446452Y-62372317D01*
X127446453Y-62372317D01*
X127446450Y-62372315D01*
X127362926Y-62327670D01*
X129242642Y-62327670D01*
X129263287Y-62471265D01*
X129263288Y-62471269D01*
X129323552Y-62603226D01*
X129323553Y-62603228D01*
X129418555Y-62712866D01*
X129496989Y-62763272D01*
X129540599Y-62791300D01*
X129679791Y-62832169D01*
X129679793Y-62832170D01*
X129679794Y-62832170D01*
X129824867Y-62832170D01*
X129824867Y-62832169D01*
X129964059Y-62791300D01*
X129964060Y-62791300D01*
X129964062Y-62791299D01*
X130086105Y-62712866D01*
X130181107Y-62603228D01*
X130239412Y-62475558D01*
X130241371Y-62471269D01*
X130241372Y-62471265D01*
X130262018Y-62327670D01*
X130241372Y-62184074D01*
X130241371Y-62184070D01*
X130211654Y-62119000D01*
X130877642Y-62119000D01*
X130898287Y-62262595D01*
X130898288Y-62262599D01*
X130948395Y-62372315D01*
X130958553Y-62394558D01*
X131053555Y-62504196D01*
X131086599Y-62525432D01*
X131175599Y-62582630D01*
X131314791Y-62623499D01*
X131314793Y-62623500D01*
X131314794Y-62623500D01*
X131459867Y-62623500D01*
X131459867Y-62623499D01*
X131585654Y-62586566D01*
X131599059Y-62582630D01*
X131599060Y-62582630D01*
X131599062Y-62582629D01*
X131721105Y-62504196D01*
X131816107Y-62394558D01*
X131876372Y-62262596D01*
X131885372Y-62200000D01*
X136990312Y-62200000D01*
X137010957Y-62343595D01*
X137010958Y-62343599D01*
X137069262Y-62471265D01*
X137071223Y-62475558D01*
X137166225Y-62585196D01*
X137225825Y-62623499D01*
X137288269Y-62663630D01*
X137427461Y-62704499D01*
X137427463Y-62704500D01*
X137427464Y-62704500D01*
X137572537Y-62704500D01*
X137572537Y-62704499D01*
X137711729Y-62663630D01*
X137711730Y-62663630D01*
X137711732Y-62663629D01*
X137833775Y-62585196D01*
X137928777Y-62475558D01*
X137975926Y-62372317D01*
X137989041Y-62343599D01*
X137989042Y-62343595D01*
X137991332Y-62327670D01*
X138009688Y-62200000D01*
X137989042Y-62056404D01*
X137989041Y-62056400D01*
X137943020Y-61955630D01*
X137928777Y-61924442D01*
X137833775Y-61814804D01*
X137798950Y-61792423D01*
X137711730Y-61736369D01*
X137572538Y-61695500D01*
X137572536Y-61695500D01*
X137427464Y-61695500D01*
X137427461Y-61695500D01*
X137288270Y-61736369D01*
X137288269Y-61736369D01*
X137166226Y-61814803D01*
X137071223Y-61924442D01*
X137071222Y-61924443D01*
X137010958Y-62056400D01*
X137010957Y-62056404D01*
X136990312Y-62200000D01*
X131885372Y-62200000D01*
X131897018Y-62119000D01*
X131876372Y-61975404D01*
X131876371Y-61975400D01*
X131831522Y-61877196D01*
X131816107Y-61843442D01*
X131721105Y-61733804D01*
X131686280Y-61711423D01*
X131599060Y-61655369D01*
X131459868Y-61614500D01*
X131459866Y-61614500D01*
X131314794Y-61614500D01*
X131314791Y-61614500D01*
X131175600Y-61655369D01*
X131175599Y-61655369D01*
X131053556Y-61733803D01*
X131053555Y-61733803D01*
X131053555Y-61733804D01*
X131051331Y-61736371D01*
X130958553Y-61843442D01*
X130958552Y-61843443D01*
X130898288Y-61975400D01*
X130898287Y-61975404D01*
X130877642Y-62119000D01*
X130211654Y-62119000D01*
X130181107Y-62052113D01*
X130181107Y-62052112D01*
X130086105Y-61942474D01*
X130021633Y-61901040D01*
X129964060Y-61864039D01*
X129824868Y-61823170D01*
X129824866Y-61823170D01*
X129679794Y-61823170D01*
X129679791Y-61823170D01*
X129540600Y-61864039D01*
X129540599Y-61864039D01*
X129418556Y-61942473D01*
X129418555Y-61942473D01*
X129418555Y-61942474D01*
X129390021Y-61975404D01*
X129323553Y-62052112D01*
X129323552Y-62052113D01*
X129263288Y-62184070D01*
X129263287Y-62184074D01*
X129242642Y-62327670D01*
X127362926Y-62327670D01*
X127263954Y-62274768D01*
X127065934Y-62214700D01*
X127065932Y-62214699D01*
X127065934Y-62214699D01*
X126860000Y-62194417D01*
X126654067Y-62214699D01*
X126456043Y-62274769D01*
X126357074Y-62327670D01*
X126273550Y-62372315D01*
X126273548Y-62372316D01*
X126273547Y-62372317D01*
X126113589Y-62503589D01*
X125982317Y-62663547D01*
X125982315Y-62663550D01*
X125960427Y-62704499D01*
X125884769Y-62846043D01*
X125824699Y-63044067D01*
X125804417Y-63250000D01*
X114149671Y-63250000D01*
X114202265Y-63182423D01*
X114204759Y-63179217D01*
X114215670Y-63166967D01*
X115891033Y-61520000D01*
X132490312Y-61520000D01*
X132510957Y-61663595D01*
X132510958Y-61663599D01*
X132571222Y-61795556D01*
X132571223Y-61795558D01*
X132666225Y-61905196D01*
X132696174Y-61924443D01*
X132788269Y-61983630D01*
X132927461Y-62024499D01*
X132927463Y-62024500D01*
X132927464Y-62024500D01*
X133072537Y-62024500D01*
X133072537Y-62024499D01*
X133211729Y-61983630D01*
X133211730Y-61983630D01*
X133224536Y-61975400D01*
X133333775Y-61905196D01*
X133333782Y-61905187D01*
X133338569Y-61901040D01*
X133402122Y-61872010D01*
X133471282Y-61881947D01*
X133486812Y-61890426D01*
X133567799Y-61942474D01*
X133588270Y-61955630D01*
X133727461Y-61996499D01*
X133727463Y-61996500D01*
X133727464Y-61996500D01*
X133872537Y-61996500D01*
X133872537Y-61996499D01*
X134011729Y-61955630D01*
X134011730Y-61955630D01*
X134032201Y-61942474D01*
X134133775Y-61877196D01*
X134228777Y-61767558D01*
X134271664Y-61673646D01*
X134289041Y-61635599D01*
X134289042Y-61635595D01*
X134292075Y-61614500D01*
X134309688Y-61492000D01*
X134289042Y-61348404D01*
X134289041Y-61348400D01*
X134250220Y-61263397D01*
X134228777Y-61216442D01*
X134133775Y-61106804D01*
X134098950Y-61084423D01*
X134011730Y-61028369D01*
X133872538Y-60987500D01*
X133872536Y-60987500D01*
X133727464Y-60987500D01*
X133727461Y-60987500D01*
X133588270Y-61028369D01*
X133588269Y-61028369D01*
X133466218Y-61106807D01*
X133461412Y-61110972D01*
X133397854Y-61139991D01*
X133328696Y-61130042D01*
X133313178Y-61121567D01*
X133211730Y-61056369D01*
X133072538Y-61015500D01*
X133072536Y-61015500D01*
X132927464Y-61015500D01*
X132927461Y-61015500D01*
X132788270Y-61056369D01*
X132788269Y-61056369D01*
X132666226Y-61134803D01*
X132666225Y-61134803D01*
X132666225Y-61134804D01*
X132612132Y-61197231D01*
X132571223Y-61244442D01*
X132571222Y-61244443D01*
X132510958Y-61376400D01*
X132510957Y-61376404D01*
X132490312Y-61520000D01*
X115891033Y-61520000D01*
X118602678Y-58854316D01*
X147803700Y-58854316D01*
X147832693Y-59000072D01*
X147832695Y-59000080D01*
X147889571Y-59137391D01*
X147972139Y-59260964D01*
X147972145Y-59260971D01*
X148077228Y-59366054D01*
X148077235Y-59366060D01*
X148200808Y-59448628D01*
X148200809Y-59448628D01*
X148200810Y-59448629D01*
X148338120Y-59505505D01*
X148483883Y-59534499D01*
X148483887Y-59534500D01*
X148483888Y-59534500D01*
X148632513Y-59534500D01*
X148632514Y-59534499D01*
X148778280Y-59505505D01*
X148915590Y-59448629D01*
X149039166Y-59366059D01*
X149144259Y-59260966D01*
X149226829Y-59137390D01*
X149283705Y-59000080D01*
X149312700Y-58854312D01*
X149312700Y-58705688D01*
X149283705Y-58559920D01*
X149226829Y-58422610D01*
X149144259Y-58299034D01*
X149144254Y-58299028D01*
X149039171Y-58193945D01*
X149039164Y-58193939D01*
X148915591Y-58111371D01*
X148778280Y-58054495D01*
X148778272Y-58054493D01*
X148632516Y-58025500D01*
X148632512Y-58025500D01*
X148483888Y-58025500D01*
X148483883Y-58025500D01*
X148338127Y-58054493D01*
X148338119Y-58054495D01*
X148200808Y-58111371D01*
X148077235Y-58193939D01*
X148077228Y-58193945D01*
X147972145Y-58299028D01*
X147972139Y-58299035D01*
X147889571Y-58422608D01*
X147832695Y-58559919D01*
X147832693Y-58559927D01*
X147803700Y-58705683D01*
X147803700Y-58854316D01*
X118602678Y-58854316D01*
X119817586Y-57660000D01*
X142300312Y-57660000D01*
X142320957Y-57803595D01*
X142320958Y-57803599D01*
X142376776Y-57925820D01*
X142381223Y-57935558D01*
X142476225Y-58045196D01*
X142554659Y-58095602D01*
X142598269Y-58123630D01*
X142737461Y-58164499D01*
X142737463Y-58164500D01*
X142737464Y-58164500D01*
X142882537Y-58164500D01*
X142882537Y-58164499D01*
X143021729Y-58123630D01*
X143021730Y-58123630D01*
X143028925Y-58119006D01*
X143143775Y-58045196D01*
X143238777Y-57935558D01*
X143299042Y-57803596D01*
X143319688Y-57660000D01*
X143299042Y-57516404D01*
X143299041Y-57516400D01*
X143238777Y-57384443D01*
X143238777Y-57384442D01*
X143143775Y-57274804D01*
X143108950Y-57252423D01*
X143021730Y-57196369D01*
X142882538Y-57155500D01*
X142882536Y-57155500D01*
X142737464Y-57155500D01*
X142737461Y-57155500D01*
X142598270Y-57196369D01*
X142598269Y-57196369D01*
X142476226Y-57274803D01*
X142381223Y-57384442D01*
X142381222Y-57384443D01*
X142320958Y-57516400D01*
X142320957Y-57516404D01*
X142300312Y-57660000D01*
X119817586Y-57660000D01*
X121584230Y-55923299D01*
X121595923Y-55913159D01*
X121676418Y-55851720D01*
X121703119Y-55836181D01*
X121789111Y-55799609D01*
X121818825Y-55791153D01*
X121918929Y-55775788D01*
X121934334Y-55774401D01*
X122208018Y-55766903D01*
X122646149Y-55754899D01*
X123000426Y-55745194D01*
X123000426Y-55745193D01*
X123000436Y-55745193D01*
X123000438Y-55745192D01*
X123190000Y-55740000D01*
X124130000Y-54860000D01*
X124117873Y-53248045D01*
X124137051Y-53180863D01*
X124189509Y-53134712D01*
X124254021Y-53123713D01*
X124273000Y-53125583D01*
X124478934Y-53105300D01*
X124676954Y-53045232D01*
X124859450Y-52947685D01*
X125019410Y-52816410D01*
X125150685Y-52656450D01*
X125248232Y-52473954D01*
X125308300Y-52275934D01*
X125328583Y-52070000D01*
X125308300Y-51864066D01*
X125248232Y-51666046D01*
X125150685Y-51483550D01*
X125098702Y-51420209D01*
X125019410Y-51323589D01*
X124859452Y-51192317D01*
X124859453Y-51192317D01*
X124859450Y-51192315D01*
X124676954Y-51094768D01*
X124478934Y-51034700D01*
X124478932Y-51034699D01*
X124478934Y-51034699D01*
X124291463Y-51016235D01*
X124273000Y-51014417D01*
X124272999Y-51014417D01*
X124236323Y-51018029D01*
X124167677Y-51005010D01*
X124116967Y-50956944D01*
X124100174Y-50895562D01*
X124078634Y-48032454D01*
X124360000Y-48030000D01*
X124351371Y-46970000D01*
X132310312Y-46970000D01*
X132330957Y-47113595D01*
X132330958Y-47113599D01*
X132391222Y-47245556D01*
X132391223Y-47245558D01*
X132486225Y-47355196D01*
X132564659Y-47405602D01*
X132608269Y-47433630D01*
X132747461Y-47474499D01*
X132747463Y-47474500D01*
X132747464Y-47474500D01*
X132892537Y-47474500D01*
X132892537Y-47474499D01*
X133031729Y-47433630D01*
X133031730Y-47433630D01*
X133031732Y-47433629D01*
X133153775Y-47355196D01*
X133248777Y-47245558D01*
X133309042Y-47113596D01*
X133329688Y-46970000D01*
X133309042Y-46826404D01*
X133309041Y-46826400D01*
X133248777Y-46694443D01*
X133248777Y-46694442D01*
X133153775Y-46584804D01*
X133118950Y-46562423D01*
X133031730Y-46506369D01*
X132892538Y-46465500D01*
X132892536Y-46465500D01*
X132747464Y-46465500D01*
X132747461Y-46465500D01*
X132608270Y-46506369D01*
X132608269Y-46506369D01*
X132486226Y-46584803D01*
X132391223Y-46694442D01*
X132391222Y-46694443D01*
X132330958Y-46826400D01*
X132330957Y-46826404D01*
X132310312Y-46970000D01*
X124351371Y-46970000D01*
X124341114Y-45710000D01*
X125070312Y-45710000D01*
X125090957Y-45853595D01*
X125090958Y-45853599D01*
X125151222Y-45985556D01*
X125151223Y-45985558D01*
X125246225Y-46095196D01*
X125324659Y-46145602D01*
X125368269Y-46173630D01*
X125507461Y-46214499D01*
X125507463Y-46214500D01*
X125507464Y-46214500D01*
X125652537Y-46214500D01*
X125652537Y-46214499D01*
X125791729Y-46173630D01*
X125791730Y-46173630D01*
X125791732Y-46173629D01*
X125913775Y-46095196D01*
X125933671Y-46072235D01*
X138243312Y-46072235D01*
X138263957Y-46215830D01*
X138263958Y-46215834D01*
X138324222Y-46347791D01*
X138324223Y-46347793D01*
X138419225Y-46457431D01*
X138495373Y-46506369D01*
X138541269Y-46535865D01*
X138680461Y-46576734D01*
X138680463Y-46576735D01*
X138680464Y-46576735D01*
X138825537Y-46576735D01*
X138825537Y-46576734D01*
X138964729Y-46535865D01*
X138964730Y-46535865D01*
X138964732Y-46535864D01*
X139086775Y-46457431D01*
X139181777Y-46347793D01*
X139242042Y-46215831D01*
X139262688Y-46072235D01*
X139242042Y-45928639D01*
X139242041Y-45928635D01*
X139203220Y-45843632D01*
X139181777Y-45796677D01*
X139086775Y-45687039D01*
X139051950Y-45664658D01*
X138964730Y-45608604D01*
X138825538Y-45567735D01*
X138825536Y-45567735D01*
X138680464Y-45567735D01*
X138680461Y-45567735D01*
X138541270Y-45608604D01*
X138541269Y-45608604D01*
X138419226Y-45687038D01*
X138419225Y-45687038D01*
X138419225Y-45687039D01*
X138404604Y-45703913D01*
X138324223Y-45796677D01*
X138324222Y-45796678D01*
X138263958Y-45928635D01*
X138263957Y-45928639D01*
X138243312Y-46072235D01*
X125933671Y-46072235D01*
X126008777Y-45985558D01*
X126059764Y-45873912D01*
X126069041Y-45853599D01*
X126069042Y-45853595D01*
X126076600Y-45801027D01*
X126089688Y-45710000D01*
X126069042Y-45566404D01*
X126069041Y-45566400D01*
X126011373Y-45440127D01*
X126008777Y-45434442D01*
X125913775Y-45324804D01*
X125851460Y-45284756D01*
X125791730Y-45246369D01*
X125652538Y-45205500D01*
X125652536Y-45205500D01*
X125507464Y-45205500D01*
X125507461Y-45205500D01*
X125368270Y-45246369D01*
X125368269Y-45246369D01*
X125246226Y-45324803D01*
X125246225Y-45324803D01*
X125246225Y-45324804D01*
X125172158Y-45410282D01*
X125151223Y-45434442D01*
X125151222Y-45434443D01*
X125090958Y-45566400D01*
X125090957Y-45566404D01*
X125070312Y-45710000D01*
X124341114Y-45710000D01*
X124327113Y-43990000D01*
X125220312Y-43990000D01*
X125240957Y-44133595D01*
X125240958Y-44133599D01*
X125283877Y-44227576D01*
X125301223Y-44265558D01*
X125396225Y-44375196D01*
X125458699Y-44415346D01*
X125518269Y-44453630D01*
X125657461Y-44494499D01*
X125657463Y-44494500D01*
X125657464Y-44494500D01*
X125802537Y-44494500D01*
X125802537Y-44494499D01*
X125941729Y-44453630D01*
X125941730Y-44453630D01*
X125941732Y-44453629D01*
X126063775Y-44375196D01*
X126158777Y-44265558D01*
X126219042Y-44133596D01*
X126239688Y-43990000D01*
X126219042Y-43846404D01*
X126219041Y-43846400D01*
X126208354Y-43823000D01*
X127987312Y-43823000D01*
X128007957Y-43966595D01*
X128007958Y-43966599D01*
X128051299Y-44061500D01*
X128068223Y-44098558D01*
X128163225Y-44208196D01*
X128252478Y-44265556D01*
X128285268Y-44286629D01*
X128293418Y-44289022D01*
X128352197Y-44326795D01*
X128381223Y-44390350D01*
X128371282Y-44459509D01*
X128352200Y-44489202D01*
X128300142Y-44549281D01*
X128300141Y-44549282D01*
X128239877Y-44681239D01*
X128239876Y-44681243D01*
X128219231Y-44824839D01*
X128239876Y-44968434D01*
X128239877Y-44968438D01*
X128300141Y-45100395D01*
X128300142Y-45100397D01*
X128395144Y-45210035D01*
X128473578Y-45260441D01*
X128517188Y-45288469D01*
X128656380Y-45329338D01*
X128656382Y-45329339D01*
X128656383Y-45329339D01*
X128801456Y-45329339D01*
X128801456Y-45329338D01*
X128913201Y-45296528D01*
X129436312Y-45296528D01*
X129456957Y-45440123D01*
X129456958Y-45440127D01*
X129508909Y-45553881D01*
X129517223Y-45572086D01*
X129612225Y-45681724D01*
X129656223Y-45710000D01*
X129734269Y-45760158D01*
X129873461Y-45801027D01*
X129873463Y-45801028D01*
X129873464Y-45801028D01*
X130018537Y-45801028D01*
X130018537Y-45801027D01*
X130157729Y-45760158D01*
X130157730Y-45760158D01*
X130157732Y-45760157D01*
X130279775Y-45681724D01*
X130374777Y-45572086D01*
X130435042Y-45440124D01*
X130439333Y-45410282D01*
X137135343Y-45410282D01*
X137155988Y-45553877D01*
X137155989Y-45553881D01*
X137180982Y-45608606D01*
X137216254Y-45685840D01*
X137311256Y-45795478D01*
X137389690Y-45845884D01*
X137433300Y-45873912D01*
X137572492Y-45914781D01*
X137572494Y-45914782D01*
X137572495Y-45914782D01*
X137717568Y-45914782D01*
X137717568Y-45914781D01*
X137856760Y-45873912D01*
X137856761Y-45873912D01*
X137856763Y-45873911D01*
X137978806Y-45795478D01*
X138073808Y-45685840D01*
X138125819Y-45571952D01*
X138134072Y-45553881D01*
X138134073Y-45553877D01*
X138152120Y-45428356D01*
X139731956Y-45428356D01*
X139752601Y-45571951D01*
X139752602Y-45571955D01*
X139802733Y-45681724D01*
X139812867Y-45703914D01*
X139907869Y-45813552D01*
X139970177Y-45853595D01*
X140029913Y-45891986D01*
X140169105Y-45932855D01*
X140169107Y-45932856D01*
X140169108Y-45932856D01*
X140314181Y-45932856D01*
X140314181Y-45932855D01*
X140453373Y-45891986D01*
X140453374Y-45891986D01*
X140453376Y-45891985D01*
X140575419Y-45813552D01*
X140670421Y-45703914D01*
X140730625Y-45572086D01*
X140730685Y-45571955D01*
X140730686Y-45571951D01*
X140733284Y-45553881D01*
X140751332Y-45428356D01*
X140730686Y-45284760D01*
X140730685Y-45284756D01*
X140670421Y-45152799D01*
X140670421Y-45152798D01*
X140575419Y-45043160D01*
X140575415Y-45043157D01*
X140574935Y-45042741D01*
X140574589Y-45042203D01*
X140569611Y-45036458D01*
X140570436Y-45035742D01*
X140537159Y-44983964D01*
X140537157Y-44914094D01*
X140574930Y-44855315D01*
X140638485Y-44826289D01*
X140688228Y-44829251D01*
X140894673Y-44884567D01*
X140894684Y-44884569D01*
X141129998Y-44905157D01*
X141130002Y-44905157D01*
X141365315Y-44884569D01*
X141365326Y-44884567D01*
X141593483Y-44823433D01*
X141593492Y-44823429D01*
X141807576Y-44723601D01*
X141995346Y-44592122D01*
X141383953Y-43980729D01*
X141437007Y-43950099D01*
X141530099Y-43857007D01*
X141560729Y-43803953D01*
X142172122Y-44415346D01*
X142303601Y-44227576D01*
X142403429Y-44013492D01*
X142403433Y-44013483D01*
X142464567Y-43785326D01*
X142464569Y-43785315D01*
X142485157Y-43550001D01*
X142485157Y-43549998D01*
X142464569Y-43314684D01*
X142464567Y-43314673D01*
X142403433Y-43086516D01*
X142403429Y-43086507D01*
X142303600Y-42872422D01*
X142303599Y-42872420D01*
X142172123Y-42684652D01*
X142172122Y-42684652D01*
X141560729Y-43296046D01*
X141530099Y-43242993D01*
X141437007Y-43149901D01*
X141383953Y-43119270D01*
X141995346Y-42507876D01*
X141807578Y-42376400D01*
X141593492Y-42276570D01*
X141593483Y-42276566D01*
X141365326Y-42215432D01*
X141365315Y-42215430D01*
X141130002Y-42194843D01*
X141129998Y-42194843D01*
X140894684Y-42215430D01*
X140894673Y-42215432D01*
X140666516Y-42276566D01*
X140666507Y-42276570D01*
X140452423Y-42376399D01*
X140452421Y-42376400D01*
X140264653Y-42507876D01*
X140264652Y-42507876D01*
X140876046Y-43119270D01*
X140822993Y-43149901D01*
X140729901Y-43242993D01*
X140699270Y-43296046D01*
X140087876Y-42684652D01*
X140087876Y-42684653D01*
X139956400Y-42872421D01*
X139956399Y-42872423D01*
X139856570Y-43086507D01*
X139856566Y-43086516D01*
X139795432Y-43314673D01*
X139795430Y-43314684D01*
X139774843Y-43549998D01*
X139774843Y-43550001D01*
X139795430Y-43785315D01*
X139795432Y-43785326D01*
X139856566Y-44013483D01*
X139856570Y-44013492D01*
X139956400Y-44227578D01*
X140087876Y-44415345D01*
X140699269Y-43803952D01*
X140729901Y-43857007D01*
X140822993Y-43950099D01*
X140876046Y-43980729D01*
X140264652Y-44592122D01*
X140425744Y-44704920D01*
X140469368Y-44759497D01*
X140476561Y-44828996D01*
X140445039Y-44891350D01*
X140384809Y-44926764D01*
X140319687Y-44925473D01*
X140314180Y-44923856D01*
X140169108Y-44923856D01*
X140169105Y-44923856D01*
X140029914Y-44964725D01*
X140029913Y-44964725D01*
X139907870Y-45043159D01*
X139812867Y-45152798D01*
X139812866Y-45152799D01*
X139752602Y-45284756D01*
X139752601Y-45284760D01*
X139731956Y-45428356D01*
X138152120Y-45428356D01*
X138154719Y-45410282D01*
X138134073Y-45266686D01*
X138134072Y-45266682D01*
X138082121Y-45152928D01*
X138073808Y-45134724D01*
X137978806Y-45025086D01*
X137890661Y-44968438D01*
X137856761Y-44946651D01*
X137717569Y-44905782D01*
X137717567Y-44905782D01*
X137572495Y-44905782D01*
X137572492Y-44905782D01*
X137433301Y-44946651D01*
X137433300Y-44946651D01*
X137311257Y-45025085D01*
X137216254Y-45134724D01*
X137216253Y-45134725D01*
X137155989Y-45266682D01*
X137155988Y-45266686D01*
X137135343Y-45410282D01*
X130439333Y-45410282D01*
X130455688Y-45296528D01*
X130435042Y-45152932D01*
X130435041Y-45152928D01*
X130381523Y-45035742D01*
X130374777Y-45020970D01*
X130279775Y-44911332D01*
X130192612Y-44855315D01*
X130157730Y-44832897D01*
X130018538Y-44792028D01*
X130018536Y-44792028D01*
X129873464Y-44792028D01*
X129873461Y-44792028D01*
X129734270Y-44832897D01*
X129734269Y-44832897D01*
X129612226Y-44911331D01*
X129517223Y-45020970D01*
X129517222Y-45020971D01*
X129456958Y-45152928D01*
X129456957Y-45152932D01*
X129436312Y-45296528D01*
X128913201Y-45296528D01*
X128940648Y-45288469D01*
X128940649Y-45288469D01*
X128940651Y-45288468D01*
X129062694Y-45210035D01*
X129157696Y-45100397D01*
X129217961Y-44968435D01*
X129238607Y-44824839D01*
X129217961Y-44681243D01*
X129217960Y-44681239D01*
X129177261Y-44592122D01*
X129157696Y-44549281D01*
X129062694Y-44439643D01*
X129035599Y-44422230D01*
X128940651Y-44361209D01*
X128932495Y-44358815D01*
X128873718Y-44321039D01*
X128844694Y-44257483D01*
X128854638Y-44188325D01*
X128873720Y-44158635D01*
X128925774Y-44098562D01*
X128925774Y-44098560D01*
X128925777Y-44098558D01*
X128986042Y-43966596D01*
X129006688Y-43823000D01*
X128986042Y-43679404D01*
X128986041Y-43679400D01*
X128930142Y-43557000D01*
X128925777Y-43547442D01*
X128830775Y-43437804D01*
X128792802Y-43413400D01*
X128708730Y-43359369D01*
X128569538Y-43318500D01*
X128569536Y-43318500D01*
X128424464Y-43318500D01*
X128424461Y-43318500D01*
X128285270Y-43359369D01*
X128285269Y-43359369D01*
X128163226Y-43437803D01*
X128068223Y-43547442D01*
X128068222Y-43547443D01*
X128007958Y-43679400D01*
X128007957Y-43679404D01*
X127987312Y-43823000D01*
X126208354Y-43823000D01*
X126158777Y-43714443D01*
X126158777Y-43714442D01*
X126063775Y-43604804D01*
X126028950Y-43582423D01*
X125941730Y-43526369D01*
X125802538Y-43485500D01*
X125802536Y-43485500D01*
X125657464Y-43485500D01*
X125657461Y-43485500D01*
X125518270Y-43526369D01*
X125518269Y-43526369D01*
X125396226Y-43604803D01*
X125301223Y-43714442D01*
X125301222Y-43714443D01*
X125240958Y-43846400D01*
X125240957Y-43846404D01*
X125220312Y-43990000D01*
X124327113Y-43990000D01*
X124316342Y-42666874D01*
X127085722Y-42666874D01*
X127106367Y-42810469D01*
X127106368Y-42810473D01*
X127166632Y-42942430D01*
X127166633Y-42942432D01*
X127261635Y-43052070D01*
X127315220Y-43086507D01*
X127383679Y-43130504D01*
X127522871Y-43171373D01*
X127522873Y-43171374D01*
X127522874Y-43171374D01*
X127667947Y-43171374D01*
X127667947Y-43171373D01*
X127807139Y-43130504D01*
X127807140Y-43130504D01*
X127807142Y-43130503D01*
X127858610Y-43097426D01*
X133040207Y-43097426D01*
X133060852Y-43241021D01*
X133060853Y-43241025D01*
X133114900Y-43359369D01*
X133121118Y-43372984D01*
X133216120Y-43482622D01*
X133284191Y-43526369D01*
X133338164Y-43561056D01*
X133477356Y-43601925D01*
X133477358Y-43601926D01*
X133477359Y-43601926D01*
X133622432Y-43601926D01*
X133622432Y-43601925D01*
X133761624Y-43561056D01*
X133761625Y-43561056D01*
X133761627Y-43561055D01*
X133767937Y-43557000D01*
X135708162Y-43557000D01*
X135728807Y-43700595D01*
X135728808Y-43700599D01*
X135784708Y-43823000D01*
X135789073Y-43832558D01*
X135884075Y-43942196D01*
X135958459Y-43990000D01*
X136006119Y-44020630D01*
X136145311Y-44061499D01*
X136145313Y-44061500D01*
X136145314Y-44061500D01*
X136290387Y-44061500D01*
X136290387Y-44061499D01*
X136429579Y-44020630D01*
X136429580Y-44020630D01*
X136440701Y-44013483D01*
X136551625Y-43942196D01*
X136646627Y-43832558D01*
X136694936Y-43726777D01*
X136706891Y-43700599D01*
X136706892Y-43700595D01*
X136727538Y-43557000D01*
X136706892Y-43413404D01*
X136706891Y-43413400D01*
X136646627Y-43281443D01*
X136646627Y-43281442D01*
X136551625Y-43171804D01*
X136487360Y-43130503D01*
X136429580Y-43093369D01*
X136290388Y-43052500D01*
X136290386Y-43052500D01*
X136145314Y-43052500D01*
X136145311Y-43052500D01*
X136006120Y-43093369D01*
X136006119Y-43093369D01*
X135884076Y-43171803D01*
X135789073Y-43281442D01*
X135789072Y-43281443D01*
X135728808Y-43413400D01*
X135728807Y-43413404D01*
X135708162Y-43557000D01*
X133767937Y-43557000D01*
X133883670Y-43482622D01*
X133978672Y-43372984D01*
X134038937Y-43241022D01*
X134059583Y-43097426D01*
X134059582Y-43097425D01*
X134060528Y-43090853D01*
X134089553Y-43027297D01*
X134148331Y-42989523D01*
X134183266Y-42984500D01*
X134247831Y-42984500D01*
X134247831Y-42984499D01*
X134387023Y-42943630D01*
X134387024Y-42943630D01*
X134387726Y-42943179D01*
X134509069Y-42865196D01*
X134604071Y-42755558D01*
X134654961Y-42644125D01*
X134664335Y-42623599D01*
X134664336Y-42623595D01*
X134666127Y-42611139D01*
X134684982Y-42480000D01*
X134664336Y-42336404D01*
X134664335Y-42336400D01*
X134628954Y-42258929D01*
X134918521Y-42258929D01*
X134939166Y-42402524D01*
X134939167Y-42402528D01*
X134987279Y-42507876D01*
X134999432Y-42534487D01*
X135094434Y-42644125D01*
X135157495Y-42684652D01*
X135216478Y-42722559D01*
X135355670Y-42763428D01*
X135355672Y-42763429D01*
X135355673Y-42763429D01*
X135500746Y-42763429D01*
X135500746Y-42763428D01*
X135639938Y-42722559D01*
X135639939Y-42722559D01*
X135639941Y-42722558D01*
X135761984Y-42644125D01*
X135856986Y-42534487D01*
X135856989Y-42534479D01*
X135861778Y-42527029D01*
X135865032Y-42529120D01*
X135898459Y-42490053D01*
X135965374Y-42469949D01*
X136001084Y-42474970D01*
X136054288Y-42490592D01*
X136054289Y-42490592D01*
X136199362Y-42490592D01*
X136199362Y-42490591D01*
X136338554Y-42449722D01*
X136338555Y-42449722D01*
X136353552Y-42440084D01*
X136460600Y-42371288D01*
X136555602Y-42261650D01*
X136615867Y-42129688D01*
X136636513Y-41986092D01*
X136623490Y-41895517D01*
X138940312Y-41895517D01*
X138960957Y-42039112D01*
X138960958Y-42039116D01*
X139017249Y-42162374D01*
X139021223Y-42171075D01*
X139116225Y-42280713D01*
X139166172Y-42312812D01*
X139238269Y-42359147D01*
X139377461Y-42400016D01*
X139377463Y-42400017D01*
X139377464Y-42400017D01*
X139522537Y-42400017D01*
X139522537Y-42400016D01*
X139661729Y-42359147D01*
X139661730Y-42359147D01*
X139661732Y-42359146D01*
X139783775Y-42280713D01*
X139878777Y-42171075D01*
X139939042Y-42039113D01*
X139959688Y-41895517D01*
X139939042Y-41751921D01*
X139939041Y-41751917D01*
X139899436Y-41665196D01*
X139878777Y-41619959D01*
X139783775Y-41510321D01*
X139711679Y-41463987D01*
X139661730Y-41431886D01*
X139522538Y-41391017D01*
X139522536Y-41391017D01*
X139377464Y-41391017D01*
X139377461Y-41391017D01*
X139238270Y-41431886D01*
X139238269Y-41431886D01*
X139116226Y-41510320D01*
X139116225Y-41510320D01*
X139116225Y-41510321D01*
X139041932Y-41596060D01*
X139021223Y-41619959D01*
X139021222Y-41619960D01*
X138960958Y-41751917D01*
X138960957Y-41751921D01*
X138940312Y-41895517D01*
X136623490Y-41895517D01*
X136615867Y-41842496D01*
X136615866Y-41842492D01*
X136567005Y-41735504D01*
X136555602Y-41710534D01*
X136460600Y-41600896D01*
X136392019Y-41556821D01*
X136338555Y-41522461D01*
X136199363Y-41481592D01*
X136199361Y-41481592D01*
X136054289Y-41481592D01*
X136054286Y-41481592D01*
X135915095Y-41522461D01*
X135915094Y-41522461D01*
X135793051Y-41600895D01*
X135793050Y-41600895D01*
X135793050Y-41600896D01*
X135787319Y-41607510D01*
X135698049Y-41710532D01*
X135693253Y-41717996D01*
X135690203Y-41716036D01*
X135655111Y-41755906D01*
X135587920Y-41775069D01*
X135553949Y-41770050D01*
X135500748Y-41754429D01*
X135500745Y-41754429D01*
X135355673Y-41754429D01*
X135355670Y-41754429D01*
X135216479Y-41795298D01*
X135216478Y-41795298D01*
X135094435Y-41873732D01*
X134999432Y-41983371D01*
X134999431Y-41983372D01*
X134939167Y-42115329D01*
X134939166Y-42115333D01*
X134918521Y-42258929D01*
X134628954Y-42258929D01*
X134604071Y-42204443D01*
X134604071Y-42204442D01*
X134509069Y-42094804D01*
X134422418Y-42039116D01*
X134387024Y-42016369D01*
X134247832Y-41975500D01*
X134247830Y-41975500D01*
X134102758Y-41975500D01*
X134102755Y-41975500D01*
X133963564Y-42016369D01*
X133963563Y-42016369D01*
X133841520Y-42094803D01*
X133841519Y-42094803D01*
X133841519Y-42094804D01*
X133811293Y-42129687D01*
X133746517Y-42204442D01*
X133746516Y-42204443D01*
X133686252Y-42336400D01*
X133686251Y-42336404D01*
X133664661Y-42486573D01*
X133635636Y-42550129D01*
X133576858Y-42587903D01*
X133541923Y-42592926D01*
X133477356Y-42592926D01*
X133338165Y-42633795D01*
X133338164Y-42633795D01*
X133216121Y-42712229D01*
X133121118Y-42821868D01*
X133121117Y-42821869D01*
X133060853Y-42953826D01*
X133060852Y-42953830D01*
X133040207Y-43097426D01*
X127858610Y-43097426D01*
X127929185Y-43052070D01*
X128024187Y-42942432D01*
X128067074Y-42848520D01*
X128084451Y-42810473D01*
X128084452Y-42810469D01*
X128091215Y-42763429D01*
X128105098Y-42666874D01*
X128084452Y-42523278D01*
X128084451Y-42523274D01*
X128029306Y-42402525D01*
X128024187Y-42391316D01*
X127929185Y-42281678D01*
X127893787Y-42258929D01*
X127807140Y-42203243D01*
X127667948Y-42162374D01*
X127667946Y-42162374D01*
X127522874Y-42162374D01*
X127522871Y-42162374D01*
X127383680Y-42203243D01*
X127383679Y-42203243D01*
X127261636Y-42281677D01*
X127166633Y-42391316D01*
X127166632Y-42391317D01*
X127106368Y-42523274D01*
X127106367Y-42523278D01*
X127085722Y-42666874D01*
X124316342Y-42666874D01*
X124310324Y-41927616D01*
X130490312Y-41927616D01*
X130510957Y-42071211D01*
X130510958Y-42071215D01*
X130567418Y-42194843D01*
X130571223Y-42203174D01*
X130666225Y-42312812D01*
X130738323Y-42359147D01*
X130788269Y-42391246D01*
X130927461Y-42432115D01*
X130927463Y-42432116D01*
X130927464Y-42432116D01*
X131072537Y-42432116D01*
X131072537Y-42432115D01*
X131211487Y-42391317D01*
X131211729Y-42391246D01*
X131211730Y-42391246D01*
X131211732Y-42391245D01*
X131333775Y-42312812D01*
X131428777Y-42203174D01*
X131489042Y-42071212D01*
X131509688Y-41927616D01*
X131489042Y-41784020D01*
X131489041Y-41784016D01*
X131450220Y-41699013D01*
X131428777Y-41652058D01*
X131333775Y-41542420D01*
X131298950Y-41520039D01*
X131211730Y-41463985D01*
X131072538Y-41423116D01*
X131072536Y-41423116D01*
X130927464Y-41423116D01*
X130927461Y-41423116D01*
X130788270Y-41463985D01*
X130788269Y-41463985D01*
X130666226Y-41542419D01*
X130666225Y-41542419D01*
X130666225Y-41542420D01*
X130619746Y-41596060D01*
X130571223Y-41652058D01*
X130571222Y-41652059D01*
X130510958Y-41784016D01*
X130510957Y-41784020D01*
X130490312Y-41927616D01*
X124310324Y-41927616D01*
X124300331Y-40700000D01*
X127220312Y-40700000D01*
X127240957Y-40843595D01*
X127240958Y-40843599D01*
X127301222Y-40975556D01*
X127301223Y-40975558D01*
X127396225Y-41085196D01*
X127396227Y-41085197D01*
X127402930Y-41091006D01*
X127401681Y-41092446D01*
X127440117Y-41136803D01*
X127450060Y-41205961D01*
X127440120Y-41239818D01*
X127436647Y-41247422D01*
X127436645Y-41247428D01*
X127416000Y-41391024D01*
X127436645Y-41534619D01*
X127436646Y-41534623D01*
X127496278Y-41665196D01*
X127496911Y-41666582D01*
X127591913Y-41776220D01*
X127621599Y-41795298D01*
X127713957Y-41854654D01*
X127833061Y-41889624D01*
X127853128Y-41895517D01*
X127853149Y-41895523D01*
X127853151Y-41895524D01*
X127853152Y-41895524D01*
X127998225Y-41895524D01*
X127998225Y-41895523D01*
X128137417Y-41854654D01*
X128137418Y-41854654D01*
X128156336Y-41842496D01*
X128259463Y-41776220D01*
X128354465Y-41666582D01*
X128405167Y-41555560D01*
X128414729Y-41534623D01*
X128414730Y-41534619D01*
X128416757Y-41520519D01*
X128435376Y-41391024D01*
X128414730Y-41247428D01*
X128414729Y-41247424D01*
X128364027Y-41136404D01*
X128354465Y-41115466D01*
X128259463Y-41005828D01*
X128259459Y-41005825D01*
X128252760Y-41000020D01*
X128254007Y-40998580D01*
X128215569Y-40954219D01*
X128205626Y-40885060D01*
X128215569Y-40851200D01*
X128219042Y-40843596D01*
X128239688Y-40700000D01*
X128238642Y-40692725D01*
X131403312Y-40692725D01*
X131423957Y-40836320D01*
X131423958Y-40836324D01*
X131477800Y-40954219D01*
X131484223Y-40968283D01*
X131579225Y-41077921D01*
X131637646Y-41115466D01*
X131701269Y-41156355D01*
X131840461Y-41197224D01*
X131840463Y-41197225D01*
X131910964Y-41197225D01*
X131978003Y-41216910D01*
X132023758Y-41269714D01*
X132033702Y-41303578D01*
X132050957Y-41423595D01*
X132050958Y-41423599D01*
X132105223Y-41542420D01*
X132111223Y-41555558D01*
X132206225Y-41665196D01*
X132276769Y-41710532D01*
X132328269Y-41743630D01*
X132435344Y-41775069D01*
X132465829Y-41784020D01*
X132467461Y-41784499D01*
X132467463Y-41784500D01*
X132467464Y-41784500D01*
X132612537Y-41784500D01*
X132612537Y-41784499D01*
X132751729Y-41743630D01*
X132751730Y-41743630D01*
X132751732Y-41743629D01*
X132873775Y-41665196D01*
X132968777Y-41555558D01*
X133029042Y-41423596D01*
X133049688Y-41280000D01*
X133043898Y-41239730D01*
X133053842Y-41170573D01*
X133099596Y-41117769D01*
X133166636Y-41098084D01*
X133264403Y-41098084D01*
X133264403Y-41098083D01*
X133403595Y-41057214D01*
X133403596Y-41057214D01*
X133403598Y-41057213D01*
X133525641Y-40978780D01*
X133620643Y-40869142D01*
X133680908Y-40737180D01*
X133701554Y-40593584D01*
X133680908Y-40449988D01*
X133680907Y-40449984D01*
X133631304Y-40341371D01*
X133620643Y-40318026D01*
X133525641Y-40208388D01*
X133486154Y-40183011D01*
X133403596Y-40129953D01*
X133264404Y-40089084D01*
X133264402Y-40089084D01*
X133119330Y-40089084D01*
X133119327Y-40089084D01*
X132980136Y-40129953D01*
X132980135Y-40129953D01*
X132858092Y-40208387D01*
X132858091Y-40208387D01*
X132858091Y-40208388D01*
X132846152Y-40222166D01*
X132763089Y-40318026D01*
X132763088Y-40318027D01*
X132702824Y-40449984D01*
X132702823Y-40449988D01*
X132682178Y-40593583D01*
X132687968Y-40633853D01*
X132678024Y-40703011D01*
X132632270Y-40755815D01*
X132565230Y-40775500D01*
X132542036Y-40775500D01*
X132474997Y-40755815D01*
X132429242Y-40703011D01*
X132419298Y-40669147D01*
X132402042Y-40549129D01*
X132402041Y-40549125D01*
X132351508Y-40438475D01*
X132341777Y-40417167D01*
X132246775Y-40307529D01*
X132205404Y-40280941D01*
X132124730Y-40229094D01*
X131985538Y-40188225D01*
X131985536Y-40188225D01*
X131840464Y-40188225D01*
X131840461Y-40188225D01*
X131701270Y-40229094D01*
X131701269Y-40229094D01*
X131579226Y-40307528D01*
X131579225Y-40307528D01*
X131579225Y-40307529D01*
X131561869Y-40327559D01*
X131484223Y-40417167D01*
X131484222Y-40417168D01*
X131423958Y-40549125D01*
X131423957Y-40549129D01*
X131403312Y-40692725D01*
X128238642Y-40692725D01*
X128219042Y-40556404D01*
X128219041Y-40556400D01*
X128170443Y-40449988D01*
X128158777Y-40424442D01*
X128063775Y-40314804D01*
X128011084Y-40280941D01*
X127941730Y-40236369D01*
X127802538Y-40195500D01*
X127802536Y-40195500D01*
X127657464Y-40195500D01*
X127657461Y-40195500D01*
X127518270Y-40236369D01*
X127518269Y-40236369D01*
X127396226Y-40314803D01*
X127301223Y-40424442D01*
X127301222Y-40424443D01*
X127240958Y-40556400D01*
X127240957Y-40556404D01*
X127220312Y-40700000D01*
X124300331Y-40700000D01*
X124292098Y-39688555D01*
X140157398Y-39688555D01*
X140178043Y-39832150D01*
X140178044Y-39832154D01*
X140238308Y-39964111D01*
X140238309Y-39964113D01*
X140333311Y-40073751D01*
X140411745Y-40124157D01*
X140455355Y-40152185D01*
X140594545Y-40193054D01*
X140594548Y-40193054D01*
X140594550Y-40193055D01*
X140594552Y-40193055D01*
X140595191Y-40193147D01*
X140595784Y-40193418D01*
X140603059Y-40195554D01*
X140602752Y-40196599D01*
X140658750Y-40222166D01*
X140696529Y-40280941D01*
X140696535Y-40350811D01*
X140658766Y-40409592D01*
X140646450Y-40418985D01*
X140639035Y-40423939D01*
X140639028Y-40423945D01*
X140533945Y-40529028D01*
X140533939Y-40529035D01*
X140451371Y-40652608D01*
X140394495Y-40789919D01*
X140394493Y-40789927D01*
X140365500Y-40935683D01*
X140365500Y-41084316D01*
X140394493Y-41230072D01*
X140394495Y-41230080D01*
X140451371Y-41367391D01*
X140533939Y-41490964D01*
X140533945Y-41490971D01*
X140639028Y-41596054D01*
X140639035Y-41596060D01*
X140762608Y-41678628D01*
X140762609Y-41678628D01*
X140762610Y-41678629D01*
X140899920Y-41735505D01*
X141045683Y-41764499D01*
X141045687Y-41764500D01*
X141045688Y-41764500D01*
X141194313Y-41764500D01*
X141194314Y-41764499D01*
X141340080Y-41735505D01*
X141477390Y-41678629D01*
X141600966Y-41596059D01*
X141706059Y-41490966D01*
X141788629Y-41367390D01*
X141845505Y-41230080D01*
X141874500Y-41084312D01*
X141874500Y-40935688D01*
X141845505Y-40789920D01*
X141788629Y-40652610D01*
X141749189Y-40593584D01*
X141706060Y-40529035D01*
X141706054Y-40529028D01*
X141600971Y-40423945D01*
X141600964Y-40423939D01*
X141477391Y-40341371D01*
X141340080Y-40284495D01*
X141340072Y-40284493D01*
X141194316Y-40255500D01*
X141194312Y-40255500D01*
X141114896Y-40255500D01*
X141047857Y-40235815D01*
X141002102Y-40183011D01*
X140992158Y-40113853D01*
X141021181Y-40050299D01*
X141095863Y-39964113D01*
X141138750Y-39870201D01*
X141156127Y-39832154D01*
X141156128Y-39832150D01*
X141163419Y-39781439D01*
X141176774Y-39688555D01*
X141156128Y-39544959D01*
X141156127Y-39544955D01*
X141092179Y-39404930D01*
X141094081Y-39404061D01*
X141077728Y-39348373D01*
X141097411Y-39281333D01*
X141150213Y-39235576D01*
X141189582Y-39224965D01*
X141194302Y-39224500D01*
X141194312Y-39224500D01*
X141340080Y-39195505D01*
X141477390Y-39138629D01*
X141600966Y-39056059D01*
X141706059Y-38950966D01*
X141788629Y-38827390D01*
X141845505Y-38690080D01*
X141874500Y-38544312D01*
X141874500Y-38395688D01*
X141845505Y-38249920D01*
X141788629Y-38112610D01*
X141772034Y-38087774D01*
X141706060Y-37989035D01*
X141706054Y-37989028D01*
X141600971Y-37883945D01*
X141600964Y-37883939D01*
X141477391Y-37801371D01*
X141340080Y-37744495D01*
X141340072Y-37744493D01*
X141194316Y-37715500D01*
X141194312Y-37715500D01*
X141045688Y-37715500D01*
X141045683Y-37715500D01*
X140899927Y-37744493D01*
X140899919Y-37744495D01*
X140762608Y-37801371D01*
X140639035Y-37883939D01*
X140639028Y-37883945D01*
X140533945Y-37989028D01*
X140533939Y-37989035D01*
X140451371Y-38112608D01*
X140394495Y-38249919D01*
X140394493Y-38249927D01*
X140365500Y-38395683D01*
X140365500Y-38544316D01*
X140394493Y-38690072D01*
X140394495Y-38690080D01*
X140451371Y-38827391D01*
X140533939Y-38950964D01*
X140533945Y-38950971D01*
X140580100Y-38997126D01*
X140613585Y-39058449D01*
X140608601Y-39128141D01*
X140566729Y-39184074D01*
X140527354Y-39203784D01*
X140455355Y-39224925D01*
X140333312Y-39303358D01*
X140238309Y-39412997D01*
X140238308Y-39412998D01*
X140178044Y-39544955D01*
X140178043Y-39544959D01*
X140157398Y-39688555D01*
X124292098Y-39688555D01*
X124282971Y-38567383D01*
X136647186Y-38567383D01*
X136667831Y-38710978D01*
X136667832Y-38710982D01*
X136728096Y-38842939D01*
X136728097Y-38842941D01*
X136823099Y-38952579D01*
X136869201Y-38982207D01*
X136945143Y-39031013D01*
X137084335Y-39071882D01*
X137084337Y-39071883D01*
X137084338Y-39071883D01*
X137229411Y-39071883D01*
X137229411Y-39071882D01*
X137368603Y-39031013D01*
X137368604Y-39031013D01*
X137368606Y-39031012D01*
X137490649Y-38952579D01*
X137585651Y-38842941D01*
X137645916Y-38710979D01*
X137666562Y-38567383D01*
X137652591Y-38470213D01*
X137662535Y-38401057D01*
X137708286Y-38348255D01*
X137803158Y-38287285D01*
X137898160Y-38177647D01*
X137958425Y-38045685D01*
X137979071Y-37902089D01*
X137958425Y-37758493D01*
X137958424Y-37758489D01*
X137916048Y-37665701D01*
X137898160Y-37626531D01*
X137803158Y-37516893D01*
X137768333Y-37494512D01*
X137681113Y-37438458D01*
X137541921Y-37397589D01*
X137541919Y-37397589D01*
X137396847Y-37397589D01*
X137396844Y-37397589D01*
X137257653Y-37438458D01*
X137257652Y-37438458D01*
X137135609Y-37516892D01*
X137040606Y-37626531D01*
X137040605Y-37626532D01*
X136980341Y-37758489D01*
X136980340Y-37758493D01*
X136959695Y-37902089D01*
X136973665Y-37999257D01*
X136963721Y-38068415D01*
X136917967Y-38121218D01*
X136823100Y-38182186D01*
X136728097Y-38291825D01*
X136728096Y-38291826D01*
X136667832Y-38423783D01*
X136667831Y-38423787D01*
X136647186Y-38567383D01*
X124282971Y-38567383D01*
X124275597Y-37661477D01*
X126174806Y-36564968D01*
X126242704Y-36548496D01*
X126308731Y-36571349D01*
X126351922Y-36626270D01*
X126354931Y-36634965D01*
X126398050Y-36729381D01*
X126415559Y-36767720D01*
X126510561Y-36877358D01*
X126588995Y-36927764D01*
X126632605Y-36955792D01*
X126771797Y-36996661D01*
X126771799Y-36996662D01*
X126771800Y-36996662D01*
X126916873Y-36996662D01*
X126916873Y-36996661D01*
X127056065Y-36955792D01*
X127056066Y-36955792D01*
X127056068Y-36955791D01*
X127178111Y-36877358D01*
X127273113Y-36767720D01*
X127333378Y-36635758D01*
X127340563Y-36585782D01*
X137930556Y-36585782D01*
X137951201Y-36729377D01*
X137951202Y-36729381D01*
X138011466Y-36861338D01*
X138011467Y-36861340D01*
X138106469Y-36970978D01*
X138146434Y-36996662D01*
X138228513Y-37049412D01*
X138367705Y-37090281D01*
X138367707Y-37090282D01*
X138367708Y-37090282D01*
X138512781Y-37090282D01*
X138512781Y-37090281D01*
X138651973Y-37049412D01*
X138651974Y-37049412D01*
X138651976Y-37049411D01*
X138774019Y-36970978D01*
X138869021Y-36861340D01*
X138929286Y-36729378D01*
X138949932Y-36585782D01*
X138929286Y-36442186D01*
X138929285Y-36442182D01*
X138869021Y-36310225D01*
X138869021Y-36310224D01*
X138774019Y-36200586D01*
X138679191Y-36139643D01*
X138651974Y-36122151D01*
X138512782Y-36081282D01*
X138512780Y-36081282D01*
X138367708Y-36081282D01*
X138367705Y-36081282D01*
X138228514Y-36122151D01*
X138228513Y-36122151D01*
X138106470Y-36200585D01*
X138106469Y-36200585D01*
X138106469Y-36200586D01*
X138011467Y-36310224D01*
X138011466Y-36310225D01*
X137951202Y-36442182D01*
X137951201Y-36442186D01*
X137930556Y-36585782D01*
X127340563Y-36585782D01*
X127354024Y-36492162D01*
X127333378Y-36348566D01*
X127333377Y-36348562D01*
X127273113Y-36216605D01*
X127273113Y-36216604D01*
X127259232Y-36200585D01*
X127206424Y-36139640D01*
X127177400Y-36076088D01*
X127187343Y-36006929D01*
X127233098Y-35954125D01*
X127238116Y-35951066D01*
X128194566Y-35398859D01*
X129949499Y-35398859D01*
X129970144Y-35542454D01*
X129970145Y-35542458D01*
X130019935Y-35651480D01*
X130030410Y-35674417D01*
X130125412Y-35784055D01*
X130203172Y-35834029D01*
X130247456Y-35862489D01*
X130386648Y-35903358D01*
X130386650Y-35903359D01*
X130386651Y-35903359D01*
X130531724Y-35903359D01*
X130531724Y-35903358D01*
X130670916Y-35862489D01*
X130670917Y-35862489D01*
X130670919Y-35862488D01*
X130792962Y-35784055D01*
X130795620Y-35780988D01*
X130799032Y-35778794D01*
X130799667Y-35778245D01*
X130799746Y-35778336D01*
X130854397Y-35743212D01*
X130924266Y-35743210D01*
X130956375Y-35757873D01*
X130963281Y-35762311D01*
X131102472Y-35803180D01*
X131102474Y-35803181D01*
X131102475Y-35803181D01*
X131247548Y-35803181D01*
X131247548Y-35803180D01*
X131386740Y-35762311D01*
X131386741Y-35762311D01*
X131393647Y-35757873D01*
X131508786Y-35683877D01*
X131508792Y-35683870D01*
X131515487Y-35678070D01*
X131517654Y-35680571D01*
X131562857Y-35651502D01*
X131632727Y-35651480D01*
X131664869Y-35666153D01*
X131715960Y-35698988D01*
X131855152Y-35739857D01*
X131855154Y-35739858D01*
X131855155Y-35739858D01*
X132000228Y-35739858D01*
X132000228Y-35739857D01*
X132061046Y-35722000D01*
X132139418Y-35698989D01*
X132139419Y-35698988D01*
X132139423Y-35698987D01*
X132157250Y-35687529D01*
X132224285Y-35667844D01*
X132291325Y-35687526D01*
X132318003Y-35710641D01*
X132321543Y-35714726D01*
X132395586Y-35762311D01*
X132443587Y-35793160D01*
X132582779Y-35834029D01*
X132582781Y-35834030D01*
X132582782Y-35834030D01*
X132727855Y-35834030D01*
X132727855Y-35834029D01*
X132867047Y-35793160D01*
X132867048Y-35793160D01*
X132867050Y-35793159D01*
X132989093Y-35714726D01*
X133084095Y-35605088D01*
X133144360Y-35473126D01*
X133165006Y-35329530D01*
X133144360Y-35185934D01*
X133144359Y-35185930D01*
X133094596Y-35076966D01*
X133084095Y-35053972D01*
X132989093Y-34944334D01*
X132941099Y-34913490D01*
X132867048Y-34865899D01*
X132727856Y-34825030D01*
X132727854Y-34825030D01*
X132582782Y-34825030D01*
X132582779Y-34825030D01*
X132443589Y-34865899D01*
X132425755Y-34877360D01*
X132358715Y-34897043D01*
X132291676Y-34877357D01*
X132265005Y-34854245D01*
X132261471Y-34850167D01*
X132261468Y-34850164D01*
X132261466Y-34850162D01*
X132222360Y-34825030D01*
X132139421Y-34771727D01*
X132000229Y-34730858D01*
X132000227Y-34730858D01*
X131855155Y-34730858D01*
X131855152Y-34730858D01*
X131715961Y-34771727D01*
X131715960Y-34771727D01*
X131593917Y-34850161D01*
X131587215Y-34855969D01*
X131585057Y-34853479D01*
X131539741Y-34882567D01*
X131469871Y-34882528D01*
X131437832Y-34867885D01*
X131386741Y-34835050D01*
X131247549Y-34794181D01*
X131247547Y-34794181D01*
X131102475Y-34794181D01*
X131102472Y-34794181D01*
X130963281Y-34835050D01*
X130963280Y-34835050D01*
X130841238Y-34913483D01*
X130841230Y-34913490D01*
X130838568Y-34916562D01*
X130835151Y-34918757D01*
X130834532Y-34919294D01*
X130834454Y-34919204D01*
X130779786Y-34954331D01*
X130709917Y-34954325D01*
X130677823Y-34939667D01*
X130670916Y-34935228D01*
X130531725Y-34894359D01*
X130531723Y-34894359D01*
X130386651Y-34894359D01*
X130386648Y-34894359D01*
X130247457Y-34935228D01*
X130247456Y-34935228D01*
X130125413Y-35013662D01*
X130030410Y-35123301D01*
X130030409Y-35123302D01*
X129970145Y-35255259D01*
X129970144Y-35255263D01*
X129949499Y-35398859D01*
X128194566Y-35398859D01*
X133746244Y-32193595D01*
X133814140Y-32177124D01*
X133824859Y-32178103D01*
G37*
G04 #@! TD.AperFunction*
G04 #@! TA.AperFunction,Conductor*
G36*
X110916366Y-32340172D02*
G01*
X118711422Y-36840651D01*
X118759638Y-36891218D01*
X118772861Y-36959825D01*
X118746893Y-37024690D01*
X118689978Y-37065218D01*
X118633237Y-37070977D01*
X118208002Y-37014994D01*
X117750000Y-36994998D01*
X117291997Y-37014994D01*
X116837490Y-37074831D01*
X116837486Y-37074831D01*
X116389897Y-37174060D01*
X115952683Y-37311913D01*
X115529139Y-37487350D01*
X115122508Y-37699029D01*
X114735850Y-37945356D01*
X114372153Y-38224431D01*
X114126398Y-38449622D01*
X116070621Y-40393845D01*
X115893845Y-40570621D01*
X113949622Y-38626398D01*
X113724431Y-38872153D01*
X113445356Y-39235850D01*
X113199029Y-39622508D01*
X112987350Y-40029139D01*
X112811913Y-40452683D01*
X112674060Y-40889897D01*
X112574831Y-41337486D01*
X112574831Y-41337490D01*
X112514994Y-41791997D01*
X112494998Y-42250000D01*
X112514994Y-42708002D01*
X112574831Y-43162509D01*
X112574831Y-43162513D01*
X112674060Y-43610102D01*
X112811913Y-44047316D01*
X112987350Y-44470860D01*
X113199029Y-44877491D01*
X113445356Y-45264149D01*
X113724431Y-45627846D01*
X113949622Y-45873599D01*
X115893844Y-43929377D01*
X116070621Y-44106154D01*
X114126398Y-46050376D01*
X114372160Y-46275573D01*
X114735850Y-46554643D01*
X115122508Y-46800970D01*
X115529139Y-47012649D01*
X115952683Y-47188086D01*
X116389897Y-47325939D01*
X116837488Y-47425168D01*
X117291997Y-47485005D01*
X117750000Y-47505001D01*
X118208002Y-47485005D01*
X118662509Y-47425168D01*
X118662513Y-47425168D01*
X119110102Y-47325939D01*
X119547316Y-47188086D01*
X119970860Y-47012649D01*
X120377491Y-46800970D01*
X120764149Y-46554643D01*
X121127839Y-46275573D01*
X121373600Y-46050376D01*
X119429378Y-44106154D01*
X119606154Y-43929378D01*
X121550376Y-45873600D01*
X121775573Y-45627839D01*
X122054643Y-45264149D01*
X122300970Y-44877491D01*
X122512649Y-44470860D01*
X122688086Y-44047316D01*
X122825939Y-43610102D01*
X122925168Y-43162513D01*
X122925168Y-43162509D01*
X122985005Y-42708002D01*
X123005001Y-42250000D01*
X122985005Y-41791997D01*
X122925168Y-41337490D01*
X122925168Y-41337486D01*
X122825939Y-40889897D01*
X122688086Y-40452683D01*
X122512649Y-40029139D01*
X122300970Y-39622508D01*
X122054643Y-39235850D01*
X121793546Y-38895582D01*
X121768352Y-38830413D01*
X121782390Y-38761968D01*
X121831204Y-38711979D01*
X121899296Y-38696315D01*
X121953919Y-38712708D01*
X121977584Y-38726371D01*
X122011181Y-38745768D01*
X122138475Y-38779876D01*
X122138477Y-38779876D01*
X122270257Y-38779876D01*
X122270259Y-38779876D01*
X122397553Y-38745768D01*
X124275596Y-37661479D01*
X124360000Y-48030000D01*
X121075159Y-48058658D01*
X121075143Y-48058658D01*
X121075135Y-48058658D01*
X121075134Y-48058658D01*
X102958853Y-48216715D01*
X101663081Y-48228019D01*
X101656111Y-48227883D01*
X101417708Y-48216465D01*
X101348449Y-48213148D01*
X101334500Y-48211686D01*
X101033957Y-48162867D01*
X101020262Y-48159839D01*
X100727146Y-48077391D01*
X100713895Y-48072841D01*
X100431973Y-47957822D01*
X100419308Y-47951798D01*
X100152183Y-47805681D01*
X100140279Y-47798266D01*
X99891357Y-47622914D01*
X99880366Y-47614201D01*
X99652841Y-47411863D01*
X99642911Y-47401972D01*
X99435000Y-47170000D01*
X98580000Y-46100000D01*
X97210364Y-46104442D01*
X97210363Y-46104442D01*
X97210360Y-46104442D01*
X97210341Y-46104441D01*
X89944902Y-46128004D01*
X89877799Y-46108537D01*
X89831873Y-46055882D01*
X89820500Y-46004005D01*
X89820500Y-44349999D01*
X90879369Y-44349999D01*
X90879370Y-44350000D01*
X91488356Y-44350000D01*
X91472500Y-44409174D01*
X91472500Y-44540826D01*
X91488356Y-44600000D01*
X90879370Y-44600000D01*
X90886597Y-44677989D01*
X90886597Y-44677992D01*
X90942383Y-44874063D01*
X90942386Y-44874069D01*
X91033254Y-45056556D01*
X91156108Y-45219242D01*
X91306760Y-45356578D01*
X91480084Y-45463897D01*
X91670178Y-45537539D01*
X91847500Y-45570686D01*
X91847500Y-44959144D01*
X91906674Y-44975000D01*
X92038326Y-44975000D01*
X92097500Y-44959144D01*
X92097500Y-45570686D01*
X92274821Y-45537539D01*
X92464915Y-45463897D01*
X92638239Y-45356578D01*
X92788891Y-45219242D01*
X92911745Y-45056556D01*
X93002613Y-44874069D01*
X93002616Y-44874063D01*
X93058402Y-44677992D01*
X93058402Y-44677989D01*
X93065630Y-44600000D01*
X92456644Y-44600000D01*
X92472500Y-44540826D01*
X92472500Y-44475000D01*
X93403268Y-44475000D01*
X93422154Y-44678816D01*
X93478173Y-44875704D01*
X93569412Y-45058935D01*
X93692769Y-45222287D01*
X93844037Y-45360185D01*
X93844039Y-45360187D01*
X94018069Y-45467942D01*
X94018075Y-45467945D01*
X94058510Y-45483609D01*
X94208944Y-45541888D01*
X94410153Y-45579500D01*
X94410156Y-45579500D01*
X94614844Y-45579500D01*
X94614847Y-45579500D01*
X94816056Y-45541888D01*
X95006927Y-45467944D01*
X95180962Y-45360186D01*
X95332232Y-45222285D01*
X95455588Y-45058935D01*
X95546828Y-44875701D01*
X95602845Y-44678821D01*
X95621732Y-44475000D01*
X95602845Y-44271179D01*
X95546828Y-44074299D01*
X95455588Y-43891065D01*
X95388173Y-43801793D01*
X95332230Y-43727712D01*
X95180962Y-43589814D01*
X95180960Y-43589812D01*
X95006930Y-43482057D01*
X95006924Y-43482054D01*
X94827279Y-43412460D01*
X94816056Y-43408112D01*
X94614847Y-43370500D01*
X94410153Y-43370500D01*
X94208944Y-43408112D01*
X94208941Y-43408112D01*
X94208941Y-43408113D01*
X94018075Y-43482054D01*
X94018069Y-43482057D01*
X93844039Y-43589812D01*
X93844037Y-43589814D01*
X93692769Y-43727712D01*
X93569412Y-43891064D01*
X93478173Y-44074295D01*
X93422154Y-44271183D01*
X93403268Y-44474999D01*
X93403268Y-44475000D01*
X92472500Y-44475000D01*
X92472500Y-44409174D01*
X92456644Y-44350000D01*
X93065630Y-44350000D01*
X93065630Y-44349999D01*
X93058402Y-44272010D01*
X93058402Y-44272007D01*
X93002616Y-44075936D01*
X93002613Y-44075930D01*
X92911745Y-43893443D01*
X92788891Y-43730757D01*
X92638239Y-43593421D01*
X92464915Y-43486102D01*
X92274821Y-43412460D01*
X92097500Y-43379312D01*
X92097500Y-43990855D01*
X92038326Y-43975000D01*
X91906674Y-43975000D01*
X91847500Y-43990855D01*
X91847500Y-43379312D01*
X91670178Y-43412460D01*
X91480084Y-43486102D01*
X91306760Y-43593421D01*
X91156108Y-43730757D01*
X91033254Y-43893443D01*
X90942386Y-44075930D01*
X90942383Y-44075936D01*
X90886597Y-44272007D01*
X90886597Y-44272010D01*
X90879369Y-44349999D01*
X89820500Y-44349999D01*
X89820500Y-41935000D01*
X90863268Y-41935000D01*
X90882154Y-42138816D01*
X90882154Y-42138818D01*
X90882155Y-42138821D01*
X90913788Y-42249999D01*
X90938173Y-42335704D01*
X91029412Y-42518935D01*
X91152769Y-42682287D01*
X91304037Y-42820185D01*
X91304039Y-42820187D01*
X91478069Y-42927942D01*
X91478075Y-42927945D01*
X91517399Y-42943179D01*
X91668944Y-43001888D01*
X91870153Y-43039500D01*
X91870156Y-43039500D01*
X92074844Y-43039500D01*
X92074847Y-43039500D01*
X92276056Y-43001888D01*
X92466927Y-42927944D01*
X92640962Y-42820186D01*
X92792232Y-42682285D01*
X92915588Y-42518935D01*
X93006828Y-42335701D01*
X93062845Y-42138821D01*
X93081732Y-41935000D01*
X93403268Y-41935000D01*
X93422154Y-42138816D01*
X93422154Y-42138818D01*
X93422155Y-42138821D01*
X93453788Y-42249999D01*
X93478173Y-42335704D01*
X93569412Y-42518935D01*
X93692769Y-42682287D01*
X93844037Y-42820185D01*
X93844039Y-42820187D01*
X94018069Y-42927942D01*
X94018075Y-42927945D01*
X94057399Y-42943179D01*
X94208944Y-43001888D01*
X94410153Y-43039500D01*
X94410156Y-43039500D01*
X94614844Y-43039500D01*
X94614847Y-43039500D01*
X94816056Y-43001888D01*
X95006927Y-42927944D01*
X95180962Y-42820186D01*
X95332232Y-42682285D01*
X95455588Y-42518935D01*
X95546828Y-42335701D01*
X95593415Y-42171965D01*
X100749500Y-42171965D01*
X100783210Y-42514249D01*
X100850308Y-42851572D01*
X100950150Y-43180706D01*
X101032416Y-43379312D01*
X101074973Y-43482056D01*
X101081770Y-43498464D01*
X101081772Y-43498469D01*
X101243893Y-43801775D01*
X101243904Y-43801793D01*
X101434975Y-44087751D01*
X101434985Y-44087765D01*
X101653176Y-44353632D01*
X101896367Y-44596823D01*
X101896372Y-44596827D01*
X101896373Y-44596828D01*
X102162240Y-44815019D01*
X102448213Y-45006100D01*
X102448222Y-45006105D01*
X102448224Y-45006106D01*
X102751530Y-45168227D01*
X102751532Y-45168227D01*
X102751538Y-45168231D01*
X103069295Y-45299850D01*
X103398422Y-45399690D01*
X103735750Y-45466789D01*
X104078031Y-45500500D01*
X104078034Y-45500500D01*
X104421966Y-45500500D01*
X104421969Y-45500500D01*
X104764250Y-45466789D01*
X105101578Y-45399690D01*
X105430705Y-45299850D01*
X105748462Y-45168231D01*
X106051787Y-45006100D01*
X106337760Y-44815019D01*
X106603627Y-44596828D01*
X106846828Y-44353627D01*
X107065019Y-44087760D01*
X107256100Y-43801787D01*
X107418231Y-43498462D01*
X107549850Y-43180705D01*
X107649690Y-42851578D01*
X107716789Y-42514250D01*
X107750500Y-42171969D01*
X107750500Y-41828031D01*
X107716789Y-41485750D01*
X107649690Y-41148422D01*
X107549850Y-40819295D01*
X107418231Y-40501538D01*
X107392117Y-40452683D01*
X107256106Y-40198224D01*
X107256105Y-40198222D01*
X107256100Y-40198213D01*
X107065019Y-39912240D01*
X106846828Y-39646373D01*
X106846827Y-39646372D01*
X106846823Y-39646367D01*
X106603632Y-39403176D01*
X106337765Y-39184985D01*
X106337764Y-39184984D01*
X106337760Y-39184981D01*
X106051787Y-38993900D01*
X106051782Y-38993897D01*
X106051775Y-38993893D01*
X105748469Y-38831772D01*
X105748464Y-38831770D01*
X105698475Y-38811064D01*
X105540837Y-38745768D01*
X105430706Y-38700150D01*
X105101572Y-38600308D01*
X104764248Y-38533210D01*
X104764249Y-38533210D01*
X104506456Y-38507821D01*
X104421969Y-38499500D01*
X104078031Y-38499500D01*
X103999966Y-38507188D01*
X103735750Y-38533210D01*
X103398427Y-38600308D01*
X103069293Y-38700150D01*
X102751535Y-38831770D01*
X102751530Y-38831772D01*
X102448224Y-38993893D01*
X102448206Y-38993904D01*
X102162248Y-39184975D01*
X102162234Y-39184985D01*
X101896367Y-39403176D01*
X101653176Y-39646367D01*
X101434985Y-39912234D01*
X101434975Y-39912248D01*
X101243904Y-40198206D01*
X101243893Y-40198224D01*
X101081772Y-40501530D01*
X101081770Y-40501535D01*
X100950150Y-40819293D01*
X100850308Y-41148427D01*
X100783210Y-41485750D01*
X100749500Y-41828034D01*
X100749500Y-42171965D01*
X95593415Y-42171965D01*
X95602845Y-42138821D01*
X95621732Y-41935000D01*
X95602845Y-41731179D01*
X95546828Y-41534299D01*
X95455588Y-41351065D01*
X95332232Y-41187715D01*
X95332230Y-41187712D01*
X95180962Y-41049814D01*
X95180960Y-41049812D01*
X95006930Y-40942057D01*
X95006924Y-40942054D01*
X94856493Y-40883777D01*
X94816056Y-40868112D01*
X94614847Y-40830500D01*
X94410153Y-40830500D01*
X94208944Y-40868112D01*
X94208941Y-40868112D01*
X94208941Y-40868113D01*
X94018075Y-40942054D01*
X94018069Y-40942057D01*
X93844039Y-41049812D01*
X93844037Y-41049814D01*
X93692769Y-41187712D01*
X93569412Y-41351064D01*
X93478173Y-41534295D01*
X93422154Y-41731183D01*
X93403268Y-41934999D01*
X93403268Y-41935000D01*
X93081732Y-41935000D01*
X93062845Y-41731179D01*
X93006828Y-41534299D01*
X92915588Y-41351065D01*
X92792232Y-41187715D01*
X92792230Y-41187712D01*
X92640962Y-41049814D01*
X92640960Y-41049812D01*
X92466930Y-40942057D01*
X92466924Y-40942054D01*
X92316493Y-40883777D01*
X92276056Y-40868112D01*
X92074847Y-40830500D01*
X91870153Y-40830500D01*
X91668944Y-40868112D01*
X91668941Y-40868112D01*
X91668941Y-40868113D01*
X91478075Y-40942054D01*
X91478069Y-40942057D01*
X91304039Y-41049812D01*
X91304037Y-41049814D01*
X91152769Y-41187712D01*
X91029412Y-41351064D01*
X90938173Y-41534295D01*
X90882154Y-41731183D01*
X90863268Y-41934999D01*
X90863268Y-41935000D01*
X89820500Y-41935000D01*
X89820500Y-39395000D01*
X90863268Y-39395000D01*
X90882154Y-39598816D01*
X90938173Y-39795704D01*
X91029412Y-39978935D01*
X91152769Y-40142287D01*
X91304037Y-40280185D01*
X91304039Y-40280187D01*
X91478069Y-40387942D01*
X91478075Y-40387945D01*
X91518510Y-40403609D01*
X91668944Y-40461888D01*
X91870153Y-40499500D01*
X91870156Y-40499500D01*
X92074844Y-40499500D01*
X92074847Y-40499500D01*
X92276056Y-40461888D01*
X92466927Y-40387944D01*
X92640962Y-40280186D01*
X92652066Y-40270063D01*
X93408000Y-40270063D01*
X93422766Y-40344301D01*
X93479015Y-40428484D01*
X93512734Y-40451014D01*
X93563199Y-40484734D01*
X93563202Y-40484734D01*
X93563203Y-40484735D01*
X93588166Y-40489700D01*
X93637433Y-40499500D01*
X95387566Y-40499499D01*
X95461801Y-40484734D01*
X95545984Y-40428484D01*
X95602234Y-40344301D01*
X95617000Y-40270067D01*
X95616999Y-38519934D01*
X95602234Y-38445699D01*
X95573071Y-38402054D01*
X95545984Y-38361515D01*
X95495519Y-38327796D01*
X95461801Y-38305266D01*
X95461799Y-38305265D01*
X95461796Y-38305264D01*
X95387569Y-38290500D01*
X93637436Y-38290500D01*
X93563198Y-38305266D01*
X93479015Y-38361515D01*
X93422766Y-38445699D01*
X93422764Y-38445703D01*
X93408000Y-38519928D01*
X93408000Y-40270063D01*
X92652066Y-40270063D01*
X92792232Y-40142285D01*
X92915588Y-39978935D01*
X93006828Y-39795701D01*
X93062845Y-39598821D01*
X93081732Y-39395000D01*
X93062845Y-39191179D01*
X93006828Y-38994299D01*
X92915588Y-38811065D01*
X92792232Y-38647715D01*
X92792230Y-38647712D01*
X92640962Y-38509814D01*
X92640960Y-38509812D01*
X92466930Y-38402057D01*
X92466924Y-38402054D01*
X92316493Y-38343777D01*
X92276056Y-38328112D01*
X92074847Y-38290500D01*
X91870153Y-38290500D01*
X91668944Y-38328112D01*
X91668941Y-38328112D01*
X91668941Y-38328113D01*
X91478075Y-38402054D01*
X91478069Y-38402057D01*
X91304039Y-38509812D01*
X91304037Y-38509814D01*
X91152769Y-38647712D01*
X91029412Y-38811064D01*
X90938173Y-38994295D01*
X90938172Y-38994299D01*
X90883919Y-39184981D01*
X90882154Y-39191183D01*
X90863268Y-39394999D01*
X90863268Y-39395000D01*
X89820500Y-39395000D01*
X89820500Y-35659362D01*
X89840185Y-35592323D01*
X89845037Y-35585315D01*
X90017555Y-35353582D01*
X90026817Y-35342542D01*
X90256327Y-35099275D01*
X90266797Y-35089398D01*
X90522998Y-34874419D01*
X90534542Y-34865824D01*
X90813980Y-34682036D01*
X90826451Y-34674837D01*
X91125315Y-34524740D01*
X91138532Y-34519039D01*
X91452805Y-34404653D01*
X91466609Y-34400520D01*
X91792048Y-34323390D01*
X91806206Y-34320894D01*
X92093178Y-34287351D01*
X92162042Y-34299119D01*
X92169548Y-34303115D01*
X99473686Y-38520162D01*
X99587814Y-38586054D01*
X99715108Y-38620162D01*
X99715110Y-38620162D01*
X99846890Y-38620162D01*
X99846892Y-38620162D01*
X99974186Y-38586054D01*
X100065713Y-38533211D01*
X100088315Y-38520162D01*
X100088315Y-38520161D01*
X110792369Y-32340171D01*
X110860266Y-32323699D01*
X110916366Y-32340172D01*
G37*
G04 #@! TD.AperFunction*
M02*
