G04 #@! TF.GenerationSoftware,KiCad,Pcbnew,8.0.0*
G04 #@! TF.CreationDate,2024-04-27T08:46:39-07:00*
G04 #@! TF.ProjectId,module controller,6d6f6475-6c65-4206-936f-6e74726f6c6c,rev?*
G04 #@! TF.SameCoordinates,Original*
G04 #@! TF.FileFunction,Legend,Top*
G04 #@! TF.FilePolarity,Positive*
%FSLAX46Y46*%
G04 Gerber Fmt 4.6, Leading zero omitted, Abs format (unit mm)*
G04 Created by KiCad (PCBNEW 8.0.0) date 2024-04-27 08:46:39*
%MOMM*%
%LPD*%
G01*
G04 APERTURE LIST*
G04 Aperture macros list*
%AMRoundRect*
0 Rectangle with rounded corners*
0 $1 Rounding radius*
0 $2 $3 $4 $5 $6 $7 $8 $9 X,Y pos of 4 corners*
0 Add a 4 corners polygon primitive as box body*
4,1,4,$2,$3,$4,$5,$6,$7,$8,$9,$2,$3,0*
0 Add four circle primitives for the rounded corners*
1,1,$1+$1,$2,$3*
1,1,$1+$1,$4,$5*
1,1,$1+$1,$6,$7*
1,1,$1+$1,$8,$9*
0 Add four rect primitives between the rounded corners*
20,1,$1+$1,$2,$3,$4,$5,0*
20,1,$1+$1,$4,$5,$6,$7,0*
20,1,$1+$1,$6,$7,$8,$9,0*
20,1,$1+$1,$8,$9,$2,$3,0*%
G04 Aperture macros list end*
%ADD10C,0.150000*%
%ADD11C,0.100000*%
%ADD12C,0.120000*%
%ADD13RoundRect,0.150000X0.587500X0.150000X-0.587500X0.150000X-0.587500X-0.150000X0.587500X-0.150000X0*%
%ADD14RoundRect,0.155000X-0.155000X0.212500X-0.155000X-0.212500X0.155000X-0.212500X0.155000X0.212500X0*%
%ADD15C,1.700000*%
%ADD16RoundRect,0.250000X0.475000X-0.250000X0.475000X0.250000X-0.475000X0.250000X-0.475000X-0.250000X0*%
%ADD17RoundRect,0.160000X0.160000X-0.197500X0.160000X0.197500X-0.160000X0.197500X-0.160000X-0.197500X0*%
%ADD18RoundRect,0.150000X-0.587500X-0.150000X0.587500X-0.150000X0.587500X0.150000X-0.587500X0.150000X0*%
%ADD19C,10.000000*%
%ADD20RoundRect,0.250000X-0.362500X-1.425000X0.362500X-1.425000X0.362500X1.425000X-0.362500X1.425000X0*%
%ADD21RoundRect,0.250000X-2.050000X-0.300000X2.050000X-0.300000X2.050000X0.300000X-2.050000X0.300000X0*%
%ADD22RoundRect,0.250002X-4.449998X-5.149998X4.449998X-5.149998X4.449998X5.149998X-4.449998X5.149998X0*%
%ADD23RoundRect,0.250000X-0.625000X0.400000X-0.625000X-0.400000X0.625000X-0.400000X0.625000X0.400000X0*%
%ADD24RoundRect,0.150000X0.150000X-0.875000X0.150000X0.875000X-0.150000X0.875000X-0.150000X-0.875000X0*%
%ADD25RoundRect,0.160000X-0.160000X0.197500X-0.160000X-0.197500X0.160000X-0.197500X0.160000X0.197500X0*%
%ADD26RoundRect,0.249999X1.450001X-0.450001X1.450001X0.450001X-1.450001X0.450001X-1.450001X-0.450001X0*%
%ADD27RoundRect,0.250000X0.400000X0.625000X-0.400000X0.625000X-0.400000X-0.625000X0.400000X-0.625000X0*%
%ADD28RoundRect,0.375000X0.375000X-0.625000X0.375000X0.625000X-0.375000X0.625000X-0.375000X-0.625000X0*%
%ADD29RoundRect,0.500000X1.400000X-0.500000X1.400000X0.500000X-1.400000X0.500000X-1.400000X-0.500000X0*%
%ADD30RoundRect,0.155000X0.155000X-0.212500X0.155000X0.212500X-0.155000X0.212500X-0.155000X-0.212500X0*%
%ADD31C,2.500000*%
%ADD32RoundRect,0.160000X0.197500X0.160000X-0.197500X0.160000X-0.197500X-0.160000X0.197500X-0.160000X0*%
%ADD33RoundRect,0.112500X-0.112500X-0.237500X0.112500X-0.237500X0.112500X0.237500X-0.112500X0.237500X0*%
%ADD34RoundRect,0.155000X-0.212500X-0.155000X0.212500X-0.155000X0.212500X0.155000X-0.212500X0.155000X0*%
%ADD35RoundRect,0.250000X2.050000X0.300000X-2.050000X0.300000X-2.050000X-0.300000X2.050000X-0.300000X0*%
%ADD36RoundRect,0.250002X4.449998X5.149998X-4.449998X5.149998X-4.449998X-5.149998X4.449998X-5.149998X0*%
%ADD37RoundRect,0.160000X-0.197500X-0.160000X0.197500X-0.160000X0.197500X0.160000X-0.197500X0.160000X0*%
%ADD38RoundRect,1.000000X-1.000000X-2.600000X1.000000X-2.600000X1.000000X2.600000X-1.000000X2.600000X0*%
%ADD39R,2.667000X2.667000*%
%ADD40C,2.667000*%
%ADD41R,1.700000X1.700000*%
%ADD42O,1.700000X1.700000*%
G04 APERTURE END LIST*
D10*
X128540000Y-35280000D02*
X130790000Y-35280000D01*
X128110000Y-35680000D02*
X128540000Y-35280000D01*
X124020000Y-37820000D02*
X125150000Y-37210000D01*
X130790000Y-35280000D02*
X131200000Y-34680000D01*
X90857255Y-48068385D02*
X91009636Y-48068385D01*
X91009636Y-48068385D02*
X91085826Y-48030290D01*
X91085826Y-48030290D02*
X91123922Y-47992194D01*
X91123922Y-47992194D02*
X91200112Y-47877909D01*
X91200112Y-47877909D02*
X91238207Y-47725528D01*
X91238207Y-47725528D02*
X91238207Y-47420766D01*
X91238207Y-47420766D02*
X91200112Y-47344575D01*
X91200112Y-47344575D02*
X91162017Y-47306480D01*
X91162017Y-47306480D02*
X91085826Y-47268385D01*
X91085826Y-47268385D02*
X90933445Y-47268385D01*
X90933445Y-47268385D02*
X90857255Y-47306480D01*
X90857255Y-47306480D02*
X90819160Y-47344575D01*
X90819160Y-47344575D02*
X90781064Y-47420766D01*
X90781064Y-47420766D02*
X90781064Y-47611242D01*
X90781064Y-47611242D02*
X90819160Y-47687432D01*
X90819160Y-47687432D02*
X90857255Y-47725528D01*
X90857255Y-47725528D02*
X90933445Y-47763623D01*
X90933445Y-47763623D02*
X91085826Y-47763623D01*
X91085826Y-47763623D02*
X91162017Y-47725528D01*
X91162017Y-47725528D02*
X91200112Y-47687432D01*
X91200112Y-47687432D02*
X91238207Y-47611242D01*
X91733446Y-47268385D02*
X91809636Y-47268385D01*
X91809636Y-47268385D02*
X91885827Y-47306480D01*
X91885827Y-47306480D02*
X91923922Y-47344575D01*
X91923922Y-47344575D02*
X91962017Y-47420766D01*
X91962017Y-47420766D02*
X92000112Y-47573147D01*
X92000112Y-47573147D02*
X92000112Y-47763623D01*
X92000112Y-47763623D02*
X91962017Y-47916004D01*
X91962017Y-47916004D02*
X91923922Y-47992194D01*
X91923922Y-47992194D02*
X91885827Y-48030290D01*
X91885827Y-48030290D02*
X91809636Y-48068385D01*
X91809636Y-48068385D02*
X91733446Y-48068385D01*
X91733446Y-48068385D02*
X91657255Y-48030290D01*
X91657255Y-48030290D02*
X91619160Y-47992194D01*
X91619160Y-47992194D02*
X91581065Y-47916004D01*
X91581065Y-47916004D02*
X91542969Y-47763623D01*
X91542969Y-47763623D02*
X91542969Y-47573147D01*
X91542969Y-47573147D02*
X91581065Y-47420766D01*
X91581065Y-47420766D02*
X91619160Y-47344575D01*
X91619160Y-47344575D02*
X91657255Y-47306480D01*
X91657255Y-47306480D02*
X91733446Y-47268385D01*
X92685827Y-47535051D02*
X92685827Y-48068385D01*
X92495351Y-47230290D02*
X92304874Y-47801718D01*
X92304874Y-47801718D02*
X92800113Y-47801718D01*
X93257256Y-47268385D02*
X93333446Y-47268385D01*
X93333446Y-47268385D02*
X93409637Y-47306480D01*
X93409637Y-47306480D02*
X93447732Y-47344575D01*
X93447732Y-47344575D02*
X93485827Y-47420766D01*
X93485827Y-47420766D02*
X93523922Y-47573147D01*
X93523922Y-47573147D02*
X93523922Y-47763623D01*
X93523922Y-47763623D02*
X93485827Y-47916004D01*
X93485827Y-47916004D02*
X93447732Y-47992194D01*
X93447732Y-47992194D02*
X93409637Y-48030290D01*
X93409637Y-48030290D02*
X93333446Y-48068385D01*
X93333446Y-48068385D02*
X93257256Y-48068385D01*
X93257256Y-48068385D02*
X93181065Y-48030290D01*
X93181065Y-48030290D02*
X93142970Y-47992194D01*
X93142970Y-47992194D02*
X93104875Y-47916004D01*
X93104875Y-47916004D02*
X93066779Y-47763623D01*
X93066779Y-47763623D02*
X93066779Y-47573147D01*
X93066779Y-47573147D02*
X93104875Y-47420766D01*
X93104875Y-47420766D02*
X93142970Y-47344575D01*
X93142970Y-47344575D02*
X93181065Y-47306480D01*
X93181065Y-47306480D02*
X93257256Y-47268385D01*
X93790589Y-47268385D02*
X94285827Y-47268385D01*
X94285827Y-47268385D02*
X94019161Y-47573147D01*
X94019161Y-47573147D02*
X94133446Y-47573147D01*
X94133446Y-47573147D02*
X94209637Y-47611242D01*
X94209637Y-47611242D02*
X94247732Y-47649337D01*
X94247732Y-47649337D02*
X94285827Y-47725528D01*
X94285827Y-47725528D02*
X94285827Y-47916004D01*
X94285827Y-47916004D02*
X94247732Y-47992194D01*
X94247732Y-47992194D02*
X94209637Y-48030290D01*
X94209637Y-48030290D02*
X94133446Y-48068385D01*
X94133446Y-48068385D02*
X93904875Y-48068385D01*
X93904875Y-48068385D02*
X93828684Y-48030290D01*
X93828684Y-48030290D02*
X93790589Y-47992194D01*
X95047732Y-48068385D02*
X94590589Y-48068385D01*
X94819161Y-48068385D02*
X94819161Y-47268385D01*
X94819161Y-47268385D02*
X94742970Y-47382670D01*
X94742970Y-47382670D02*
X94666780Y-47458861D01*
X94666780Y-47458861D02*
X94590589Y-47496956D01*
X95771542Y-47268385D02*
X95390590Y-47268385D01*
X95390590Y-47268385D02*
X95352494Y-47649337D01*
X95352494Y-47649337D02*
X95390590Y-47611242D01*
X95390590Y-47611242D02*
X95466780Y-47573147D01*
X95466780Y-47573147D02*
X95657256Y-47573147D01*
X95657256Y-47573147D02*
X95733447Y-47611242D01*
X95733447Y-47611242D02*
X95771542Y-47649337D01*
X95771542Y-47649337D02*
X95809637Y-47725528D01*
X95809637Y-47725528D02*
X95809637Y-47916004D01*
X95809637Y-47916004D02*
X95771542Y-47992194D01*
X95771542Y-47992194D02*
X95733447Y-48030290D01*
X95733447Y-48030290D02*
X95657256Y-48068385D01*
X95657256Y-48068385D02*
X95466780Y-48068385D01*
X95466780Y-48068385D02*
X95390590Y-48030290D01*
X95390590Y-48030290D02*
X95352494Y-47992194D01*
X97219162Y-48068385D02*
X96952495Y-47687432D01*
X96762019Y-48068385D02*
X96762019Y-47268385D01*
X96762019Y-47268385D02*
X97066781Y-47268385D01*
X97066781Y-47268385D02*
X97142971Y-47306480D01*
X97142971Y-47306480D02*
X97181066Y-47344575D01*
X97181066Y-47344575D02*
X97219162Y-47420766D01*
X97219162Y-47420766D02*
X97219162Y-47535051D01*
X97219162Y-47535051D02*
X97181066Y-47611242D01*
X97181066Y-47611242D02*
X97142971Y-47649337D01*
X97142971Y-47649337D02*
X97066781Y-47687432D01*
X97066781Y-47687432D02*
X96762019Y-47687432D01*
X97562019Y-47649337D02*
X97828685Y-47649337D01*
X97942971Y-48068385D02*
X97562019Y-48068385D01*
X97562019Y-48068385D02*
X97562019Y-47268385D01*
X97562019Y-47268385D02*
X97942971Y-47268385D01*
X98171543Y-47268385D02*
X98438210Y-48068385D01*
X98438210Y-48068385D02*
X98704876Y-47268385D01*
X99581067Y-47649337D02*
X99847733Y-47649337D01*
X99962019Y-48068385D02*
X99581067Y-48068385D01*
X99581067Y-48068385D02*
X99581067Y-47268385D01*
X99581067Y-47268385D02*
X99962019Y-47268385D01*
X90819160Y-49356340D02*
X90819160Y-48556340D01*
X90819160Y-48556340D02*
X91123922Y-48556340D01*
X91123922Y-48556340D02*
X91200112Y-48594435D01*
X91200112Y-48594435D02*
X91238207Y-48632530D01*
X91238207Y-48632530D02*
X91276303Y-48708721D01*
X91276303Y-48708721D02*
X91276303Y-48823006D01*
X91276303Y-48823006D02*
X91238207Y-48899197D01*
X91238207Y-48899197D02*
X91200112Y-48937292D01*
X91200112Y-48937292D02*
X91123922Y-48975387D01*
X91123922Y-48975387D02*
X90819160Y-48975387D01*
X92076303Y-49280149D02*
X92038207Y-49318245D01*
X92038207Y-49318245D02*
X91923922Y-49356340D01*
X91923922Y-49356340D02*
X91847731Y-49356340D01*
X91847731Y-49356340D02*
X91733445Y-49318245D01*
X91733445Y-49318245D02*
X91657255Y-49242054D01*
X91657255Y-49242054D02*
X91619160Y-49165864D01*
X91619160Y-49165864D02*
X91581064Y-49013483D01*
X91581064Y-49013483D02*
X91581064Y-48899197D01*
X91581064Y-48899197D02*
X91619160Y-48746816D01*
X91619160Y-48746816D02*
X91657255Y-48670625D01*
X91657255Y-48670625D02*
X91733445Y-48594435D01*
X91733445Y-48594435D02*
X91847731Y-48556340D01*
X91847731Y-48556340D02*
X91923922Y-48556340D01*
X91923922Y-48556340D02*
X92038207Y-48594435D01*
X92038207Y-48594435D02*
X92076303Y-48632530D01*
X92685826Y-48937292D02*
X92800112Y-48975387D01*
X92800112Y-48975387D02*
X92838207Y-49013483D01*
X92838207Y-49013483D02*
X92876303Y-49089673D01*
X92876303Y-49089673D02*
X92876303Y-49203959D01*
X92876303Y-49203959D02*
X92838207Y-49280149D01*
X92838207Y-49280149D02*
X92800112Y-49318245D01*
X92800112Y-49318245D02*
X92723922Y-49356340D01*
X92723922Y-49356340D02*
X92419160Y-49356340D01*
X92419160Y-49356340D02*
X92419160Y-48556340D01*
X92419160Y-48556340D02*
X92685826Y-48556340D01*
X92685826Y-48556340D02*
X92762017Y-48594435D01*
X92762017Y-48594435D02*
X92800112Y-48632530D01*
X92800112Y-48632530D02*
X92838207Y-48708721D01*
X92838207Y-48708721D02*
X92838207Y-48784911D01*
X92838207Y-48784911D02*
X92800112Y-48861102D01*
X92800112Y-48861102D02*
X92762017Y-48899197D01*
X92762017Y-48899197D02*
X92685826Y-48937292D01*
X92685826Y-48937292D02*
X92419160Y-48937292D01*
X93181064Y-49127768D02*
X93562017Y-49127768D01*
X93104874Y-49356340D02*
X93371541Y-48556340D01*
X93371541Y-48556340D02*
X93638207Y-49356340D01*
X94552493Y-49356340D02*
X94704874Y-49356340D01*
X94704874Y-49356340D02*
X94781064Y-49318245D01*
X94781064Y-49318245D02*
X94819160Y-49280149D01*
X94819160Y-49280149D02*
X94895350Y-49165864D01*
X94895350Y-49165864D02*
X94933445Y-49013483D01*
X94933445Y-49013483D02*
X94933445Y-48708721D01*
X94933445Y-48708721D02*
X94895350Y-48632530D01*
X94895350Y-48632530D02*
X94857255Y-48594435D01*
X94857255Y-48594435D02*
X94781064Y-48556340D01*
X94781064Y-48556340D02*
X94628683Y-48556340D01*
X94628683Y-48556340D02*
X94552493Y-48594435D01*
X94552493Y-48594435D02*
X94514398Y-48632530D01*
X94514398Y-48632530D02*
X94476302Y-48708721D01*
X94476302Y-48708721D02*
X94476302Y-48899197D01*
X94476302Y-48899197D02*
X94514398Y-48975387D01*
X94514398Y-48975387D02*
X94552493Y-49013483D01*
X94552493Y-49013483D02*
X94628683Y-49051578D01*
X94628683Y-49051578D02*
X94781064Y-49051578D01*
X94781064Y-49051578D02*
X94857255Y-49013483D01*
X94857255Y-49013483D02*
X94895350Y-48975387D01*
X94895350Y-48975387D02*
X94933445Y-48899197D01*
X95428684Y-48556340D02*
X95504874Y-48556340D01*
X95504874Y-48556340D02*
X95581065Y-48594435D01*
X95581065Y-48594435D02*
X95619160Y-48632530D01*
X95619160Y-48632530D02*
X95657255Y-48708721D01*
X95657255Y-48708721D02*
X95695350Y-48861102D01*
X95695350Y-48861102D02*
X95695350Y-49051578D01*
X95695350Y-49051578D02*
X95657255Y-49203959D01*
X95657255Y-49203959D02*
X95619160Y-49280149D01*
X95619160Y-49280149D02*
X95581065Y-49318245D01*
X95581065Y-49318245D02*
X95504874Y-49356340D01*
X95504874Y-49356340D02*
X95428684Y-49356340D01*
X95428684Y-49356340D02*
X95352493Y-49318245D01*
X95352493Y-49318245D02*
X95314398Y-49280149D01*
X95314398Y-49280149D02*
X95276303Y-49203959D01*
X95276303Y-49203959D02*
X95238207Y-49051578D01*
X95238207Y-49051578D02*
X95238207Y-48861102D01*
X95238207Y-48861102D02*
X95276303Y-48708721D01*
X95276303Y-48708721D02*
X95314398Y-48632530D01*
X95314398Y-48632530D02*
X95352493Y-48594435D01*
X95352493Y-48594435D02*
X95428684Y-48556340D01*
X96381065Y-48823006D02*
X96381065Y-49356340D01*
X96190589Y-48518245D02*
X96000112Y-49089673D01*
X96000112Y-49089673D02*
X96495351Y-49089673D01*
X96952494Y-48556340D02*
X97028684Y-48556340D01*
X97028684Y-48556340D02*
X97104875Y-48594435D01*
X97104875Y-48594435D02*
X97142970Y-48632530D01*
X97142970Y-48632530D02*
X97181065Y-48708721D01*
X97181065Y-48708721D02*
X97219160Y-48861102D01*
X97219160Y-48861102D02*
X97219160Y-49051578D01*
X97219160Y-49051578D02*
X97181065Y-49203959D01*
X97181065Y-49203959D02*
X97142970Y-49280149D01*
X97142970Y-49280149D02*
X97104875Y-49318245D01*
X97104875Y-49318245D02*
X97028684Y-49356340D01*
X97028684Y-49356340D02*
X96952494Y-49356340D01*
X96952494Y-49356340D02*
X96876303Y-49318245D01*
X96876303Y-49318245D02*
X96838208Y-49280149D01*
X96838208Y-49280149D02*
X96800113Y-49203959D01*
X96800113Y-49203959D02*
X96762017Y-49051578D01*
X96762017Y-49051578D02*
X96762017Y-48861102D01*
X96762017Y-48861102D02*
X96800113Y-48708721D01*
X96800113Y-48708721D02*
X96838208Y-48632530D01*
X96838208Y-48632530D02*
X96876303Y-48594435D01*
X96876303Y-48594435D02*
X96952494Y-48556340D01*
X97485827Y-48556340D02*
X97981065Y-48556340D01*
X97981065Y-48556340D02*
X97714399Y-48861102D01*
X97714399Y-48861102D02*
X97828684Y-48861102D01*
X97828684Y-48861102D02*
X97904875Y-48899197D01*
X97904875Y-48899197D02*
X97942970Y-48937292D01*
X97942970Y-48937292D02*
X97981065Y-49013483D01*
X97981065Y-49013483D02*
X97981065Y-49203959D01*
X97981065Y-49203959D02*
X97942970Y-49280149D01*
X97942970Y-49280149D02*
X97904875Y-49318245D01*
X97904875Y-49318245D02*
X97828684Y-49356340D01*
X97828684Y-49356340D02*
X97600113Y-49356340D01*
X97600113Y-49356340D02*
X97523922Y-49318245D01*
X97523922Y-49318245D02*
X97485827Y-49280149D01*
X98742970Y-49356340D02*
X98285827Y-49356340D01*
X98514399Y-49356340D02*
X98514399Y-48556340D01*
X98514399Y-48556340D02*
X98438208Y-48670625D01*
X98438208Y-48670625D02*
X98362018Y-48746816D01*
X98362018Y-48746816D02*
X98285827Y-48784911D01*
X99428685Y-48823006D02*
X99428685Y-49356340D01*
X99238209Y-48518245D02*
X99047732Y-49089673D01*
X99047732Y-49089673D02*
X99542971Y-49089673D01*
X99847733Y-49051578D02*
X100457257Y-49051578D01*
X101257256Y-49356340D02*
X100800113Y-49356340D01*
X101028685Y-49356340D02*
X101028685Y-48556340D01*
X101028685Y-48556340D02*
X100952494Y-48670625D01*
X100952494Y-48670625D02*
X100876304Y-48746816D01*
X100876304Y-48746816D02*
X100800113Y-48784911D01*
X101523923Y-48556340D02*
X102019161Y-48556340D01*
X102019161Y-48556340D02*
X101752495Y-48861102D01*
X101752495Y-48861102D02*
X101866780Y-48861102D01*
X101866780Y-48861102D02*
X101942971Y-48899197D01*
X101942971Y-48899197D02*
X101981066Y-48937292D01*
X101981066Y-48937292D02*
X102019161Y-49013483D01*
X102019161Y-49013483D02*
X102019161Y-49203959D01*
X102019161Y-49203959D02*
X101981066Y-49280149D01*
X101981066Y-49280149D02*
X101942971Y-49318245D01*
X101942971Y-49318245D02*
X101866780Y-49356340D01*
X101866780Y-49356340D02*
X101638209Y-49356340D01*
X101638209Y-49356340D02*
X101562018Y-49318245D01*
X101562018Y-49318245D02*
X101523923Y-49280149D01*
X103123924Y-48556340D02*
X103276305Y-48556340D01*
X103276305Y-48556340D02*
X103352495Y-48594435D01*
X103352495Y-48594435D02*
X103428686Y-48670625D01*
X103428686Y-48670625D02*
X103466781Y-48823006D01*
X103466781Y-48823006D02*
X103466781Y-49089673D01*
X103466781Y-49089673D02*
X103428686Y-49242054D01*
X103428686Y-49242054D02*
X103352495Y-49318245D01*
X103352495Y-49318245D02*
X103276305Y-49356340D01*
X103276305Y-49356340D02*
X103123924Y-49356340D01*
X103123924Y-49356340D02*
X103047733Y-49318245D01*
X103047733Y-49318245D02*
X102971543Y-49242054D01*
X102971543Y-49242054D02*
X102933447Y-49089673D01*
X102933447Y-49089673D02*
X102933447Y-48823006D01*
X102933447Y-48823006D02*
X102971543Y-48670625D01*
X102971543Y-48670625D02*
X103047733Y-48594435D01*
X103047733Y-48594435D02*
X103123924Y-48556340D01*
X90819160Y-50644295D02*
X90819160Y-49844295D01*
X90819160Y-49844295D02*
X91123922Y-49844295D01*
X91123922Y-49844295D02*
X91200112Y-49882390D01*
X91200112Y-49882390D02*
X91238207Y-49920485D01*
X91238207Y-49920485D02*
X91276303Y-49996676D01*
X91276303Y-49996676D02*
X91276303Y-50110961D01*
X91276303Y-50110961D02*
X91238207Y-50187152D01*
X91238207Y-50187152D02*
X91200112Y-50225247D01*
X91200112Y-50225247D02*
X91123922Y-50263342D01*
X91123922Y-50263342D02*
X90819160Y-50263342D01*
X92076303Y-50568104D02*
X92038207Y-50606200D01*
X92038207Y-50606200D02*
X91923922Y-50644295D01*
X91923922Y-50644295D02*
X91847731Y-50644295D01*
X91847731Y-50644295D02*
X91733445Y-50606200D01*
X91733445Y-50606200D02*
X91657255Y-50530009D01*
X91657255Y-50530009D02*
X91619160Y-50453819D01*
X91619160Y-50453819D02*
X91581064Y-50301438D01*
X91581064Y-50301438D02*
X91581064Y-50187152D01*
X91581064Y-50187152D02*
X91619160Y-50034771D01*
X91619160Y-50034771D02*
X91657255Y-49958580D01*
X91657255Y-49958580D02*
X91733445Y-49882390D01*
X91733445Y-49882390D02*
X91847731Y-49844295D01*
X91847731Y-49844295D02*
X91923922Y-49844295D01*
X91923922Y-49844295D02*
X92038207Y-49882390D01*
X92038207Y-49882390D02*
X92076303Y-49920485D01*
X92685826Y-50225247D02*
X92800112Y-50263342D01*
X92800112Y-50263342D02*
X92838207Y-50301438D01*
X92838207Y-50301438D02*
X92876303Y-50377628D01*
X92876303Y-50377628D02*
X92876303Y-50491914D01*
X92876303Y-50491914D02*
X92838207Y-50568104D01*
X92838207Y-50568104D02*
X92800112Y-50606200D01*
X92800112Y-50606200D02*
X92723922Y-50644295D01*
X92723922Y-50644295D02*
X92419160Y-50644295D01*
X92419160Y-50644295D02*
X92419160Y-49844295D01*
X92419160Y-49844295D02*
X92685826Y-49844295D01*
X92685826Y-49844295D02*
X92762017Y-49882390D01*
X92762017Y-49882390D02*
X92800112Y-49920485D01*
X92800112Y-49920485D02*
X92838207Y-49996676D01*
X92838207Y-49996676D02*
X92838207Y-50072866D01*
X92838207Y-50072866D02*
X92800112Y-50149057D01*
X92800112Y-50149057D02*
X92762017Y-50187152D01*
X92762017Y-50187152D02*
X92685826Y-50225247D01*
X92685826Y-50225247D02*
X92419160Y-50225247D01*
X93181064Y-50415723D02*
X93562017Y-50415723D01*
X93104874Y-50644295D02*
X93371541Y-49844295D01*
X93371541Y-49844295D02*
X93638207Y-50644295D01*
X94552493Y-50644295D02*
X94704874Y-50644295D01*
X94704874Y-50644295D02*
X94781064Y-50606200D01*
X94781064Y-50606200D02*
X94819160Y-50568104D01*
X94819160Y-50568104D02*
X94895350Y-50453819D01*
X94895350Y-50453819D02*
X94933445Y-50301438D01*
X94933445Y-50301438D02*
X94933445Y-49996676D01*
X94933445Y-49996676D02*
X94895350Y-49920485D01*
X94895350Y-49920485D02*
X94857255Y-49882390D01*
X94857255Y-49882390D02*
X94781064Y-49844295D01*
X94781064Y-49844295D02*
X94628683Y-49844295D01*
X94628683Y-49844295D02*
X94552493Y-49882390D01*
X94552493Y-49882390D02*
X94514398Y-49920485D01*
X94514398Y-49920485D02*
X94476302Y-49996676D01*
X94476302Y-49996676D02*
X94476302Y-50187152D01*
X94476302Y-50187152D02*
X94514398Y-50263342D01*
X94514398Y-50263342D02*
X94552493Y-50301438D01*
X94552493Y-50301438D02*
X94628683Y-50339533D01*
X94628683Y-50339533D02*
X94781064Y-50339533D01*
X94781064Y-50339533D02*
X94857255Y-50301438D01*
X94857255Y-50301438D02*
X94895350Y-50263342D01*
X94895350Y-50263342D02*
X94933445Y-50187152D01*
X95428684Y-49844295D02*
X95504874Y-49844295D01*
X95504874Y-49844295D02*
X95581065Y-49882390D01*
X95581065Y-49882390D02*
X95619160Y-49920485D01*
X95619160Y-49920485D02*
X95657255Y-49996676D01*
X95657255Y-49996676D02*
X95695350Y-50149057D01*
X95695350Y-50149057D02*
X95695350Y-50339533D01*
X95695350Y-50339533D02*
X95657255Y-50491914D01*
X95657255Y-50491914D02*
X95619160Y-50568104D01*
X95619160Y-50568104D02*
X95581065Y-50606200D01*
X95581065Y-50606200D02*
X95504874Y-50644295D01*
X95504874Y-50644295D02*
X95428684Y-50644295D01*
X95428684Y-50644295D02*
X95352493Y-50606200D01*
X95352493Y-50606200D02*
X95314398Y-50568104D01*
X95314398Y-50568104D02*
X95276303Y-50491914D01*
X95276303Y-50491914D02*
X95238207Y-50339533D01*
X95238207Y-50339533D02*
X95238207Y-50149057D01*
X95238207Y-50149057D02*
X95276303Y-49996676D01*
X95276303Y-49996676D02*
X95314398Y-49920485D01*
X95314398Y-49920485D02*
X95352493Y-49882390D01*
X95352493Y-49882390D02*
X95428684Y-49844295D01*
X96381065Y-50110961D02*
X96381065Y-50644295D01*
X96190589Y-49806200D02*
X96000112Y-50377628D01*
X96000112Y-50377628D02*
X96495351Y-50377628D01*
X96952494Y-49844295D02*
X97028684Y-49844295D01*
X97028684Y-49844295D02*
X97104875Y-49882390D01*
X97104875Y-49882390D02*
X97142970Y-49920485D01*
X97142970Y-49920485D02*
X97181065Y-49996676D01*
X97181065Y-49996676D02*
X97219160Y-50149057D01*
X97219160Y-50149057D02*
X97219160Y-50339533D01*
X97219160Y-50339533D02*
X97181065Y-50491914D01*
X97181065Y-50491914D02*
X97142970Y-50568104D01*
X97142970Y-50568104D02*
X97104875Y-50606200D01*
X97104875Y-50606200D02*
X97028684Y-50644295D01*
X97028684Y-50644295D02*
X96952494Y-50644295D01*
X96952494Y-50644295D02*
X96876303Y-50606200D01*
X96876303Y-50606200D02*
X96838208Y-50568104D01*
X96838208Y-50568104D02*
X96800113Y-50491914D01*
X96800113Y-50491914D02*
X96762017Y-50339533D01*
X96762017Y-50339533D02*
X96762017Y-50149057D01*
X96762017Y-50149057D02*
X96800113Y-49996676D01*
X96800113Y-49996676D02*
X96838208Y-49920485D01*
X96838208Y-49920485D02*
X96876303Y-49882390D01*
X96876303Y-49882390D02*
X96952494Y-49844295D01*
X97485827Y-49844295D02*
X97981065Y-49844295D01*
X97981065Y-49844295D02*
X97714399Y-50149057D01*
X97714399Y-50149057D02*
X97828684Y-50149057D01*
X97828684Y-50149057D02*
X97904875Y-50187152D01*
X97904875Y-50187152D02*
X97942970Y-50225247D01*
X97942970Y-50225247D02*
X97981065Y-50301438D01*
X97981065Y-50301438D02*
X97981065Y-50491914D01*
X97981065Y-50491914D02*
X97942970Y-50568104D01*
X97942970Y-50568104D02*
X97904875Y-50606200D01*
X97904875Y-50606200D02*
X97828684Y-50644295D01*
X97828684Y-50644295D02*
X97600113Y-50644295D01*
X97600113Y-50644295D02*
X97523922Y-50606200D01*
X97523922Y-50606200D02*
X97485827Y-50568104D01*
X98742970Y-50644295D02*
X98285827Y-50644295D01*
X98514399Y-50644295D02*
X98514399Y-49844295D01*
X98514399Y-49844295D02*
X98438208Y-49958580D01*
X98438208Y-49958580D02*
X98362018Y-50034771D01*
X98362018Y-50034771D02*
X98285827Y-50072866D01*
X99428685Y-50110961D02*
X99428685Y-50644295D01*
X99238209Y-49806200D02*
X99047732Y-50377628D01*
X99047732Y-50377628D02*
X99542971Y-50377628D01*
X99847733Y-50339533D02*
X100457257Y-50339533D01*
X100876304Y-50644295D02*
X101028685Y-50644295D01*
X101028685Y-50644295D02*
X101104875Y-50606200D01*
X101104875Y-50606200D02*
X101142971Y-50568104D01*
X101142971Y-50568104D02*
X101219161Y-50453819D01*
X101219161Y-50453819D02*
X101257256Y-50301438D01*
X101257256Y-50301438D02*
X101257256Y-49996676D01*
X101257256Y-49996676D02*
X101219161Y-49920485D01*
X101219161Y-49920485D02*
X101181066Y-49882390D01*
X101181066Y-49882390D02*
X101104875Y-49844295D01*
X101104875Y-49844295D02*
X100952494Y-49844295D01*
X100952494Y-49844295D02*
X100876304Y-49882390D01*
X100876304Y-49882390D02*
X100838209Y-49920485D01*
X100838209Y-49920485D02*
X100800113Y-49996676D01*
X100800113Y-49996676D02*
X100800113Y-50187152D01*
X100800113Y-50187152D02*
X100838209Y-50263342D01*
X100838209Y-50263342D02*
X100876304Y-50301438D01*
X100876304Y-50301438D02*
X100952494Y-50339533D01*
X100952494Y-50339533D02*
X101104875Y-50339533D01*
X101104875Y-50339533D02*
X101181066Y-50301438D01*
X101181066Y-50301438D02*
X101219161Y-50263342D01*
X101219161Y-50263342D02*
X101257256Y-50187152D01*
X101942971Y-50110961D02*
X101942971Y-50644295D01*
X101752495Y-49806200D02*
X101562018Y-50377628D01*
X101562018Y-50377628D02*
X102057257Y-50377628D01*
X103123924Y-49844295D02*
X103276305Y-49844295D01*
X103276305Y-49844295D02*
X103352495Y-49882390D01*
X103352495Y-49882390D02*
X103428686Y-49958580D01*
X103428686Y-49958580D02*
X103466781Y-50110961D01*
X103466781Y-50110961D02*
X103466781Y-50377628D01*
X103466781Y-50377628D02*
X103428686Y-50530009D01*
X103428686Y-50530009D02*
X103352495Y-50606200D01*
X103352495Y-50606200D02*
X103276305Y-50644295D01*
X103276305Y-50644295D02*
X103123924Y-50644295D01*
X103123924Y-50644295D02*
X103047733Y-50606200D01*
X103047733Y-50606200D02*
X102971543Y-50530009D01*
X102971543Y-50530009D02*
X102933447Y-50377628D01*
X102933447Y-50377628D02*
X102933447Y-50110961D01*
X102933447Y-50110961D02*
X102971543Y-49958580D01*
X102971543Y-49958580D02*
X103047733Y-49882390D01*
X103047733Y-49882390D02*
X103123924Y-49844295D01*
X91242493Y-53320771D02*
X91194874Y-53273152D01*
X91194874Y-53273152D02*
X91099636Y-53130295D01*
X91099636Y-53130295D02*
X91052017Y-53035057D01*
X91052017Y-53035057D02*
X91004398Y-52892200D01*
X91004398Y-52892200D02*
X90956779Y-52654104D01*
X90956779Y-52654104D02*
X90956779Y-52463628D01*
X90956779Y-52463628D02*
X91004398Y-52225533D01*
X91004398Y-52225533D02*
X91052017Y-52082676D01*
X91052017Y-52082676D02*
X91099636Y-51987438D01*
X91099636Y-51987438D02*
X91194874Y-51844580D01*
X91194874Y-51844580D02*
X91242493Y-51796961D01*
X92194874Y-52844580D02*
X92147255Y-52892200D01*
X92147255Y-52892200D02*
X92004398Y-52939819D01*
X92004398Y-52939819D02*
X91909160Y-52939819D01*
X91909160Y-52939819D02*
X91766303Y-52892200D01*
X91766303Y-52892200D02*
X91671065Y-52796961D01*
X91671065Y-52796961D02*
X91623446Y-52701723D01*
X91623446Y-52701723D02*
X91575827Y-52511247D01*
X91575827Y-52511247D02*
X91575827Y-52368390D01*
X91575827Y-52368390D02*
X91623446Y-52177914D01*
X91623446Y-52177914D02*
X91671065Y-52082676D01*
X91671065Y-52082676D02*
X91766303Y-51987438D01*
X91766303Y-51987438D02*
X91909160Y-51939819D01*
X91909160Y-51939819D02*
X92004398Y-51939819D01*
X92004398Y-51939819D02*
X92147255Y-51987438D01*
X92147255Y-51987438D02*
X92194874Y-52035057D01*
X92528208Y-53320771D02*
X92575827Y-53273152D01*
X92575827Y-53273152D02*
X92671065Y-53130295D01*
X92671065Y-53130295D02*
X92718684Y-53035057D01*
X92718684Y-53035057D02*
X92766303Y-52892200D01*
X92766303Y-52892200D02*
X92813922Y-52654104D01*
X92813922Y-52654104D02*
X92813922Y-52463628D01*
X92813922Y-52463628D02*
X92766303Y-52225533D01*
X92766303Y-52225533D02*
X92718684Y-52082676D01*
X92718684Y-52082676D02*
X92671065Y-51987438D01*
X92671065Y-51987438D02*
X92575827Y-51844580D01*
X92575827Y-51844580D02*
X92528208Y-51796961D01*
X93242494Y-52035057D02*
X93290113Y-51987438D01*
X93290113Y-51987438D02*
X93385351Y-51939819D01*
X93385351Y-51939819D02*
X93623446Y-51939819D01*
X93623446Y-51939819D02*
X93718684Y-51987438D01*
X93718684Y-51987438D02*
X93766303Y-52035057D01*
X93766303Y-52035057D02*
X93813922Y-52130295D01*
X93813922Y-52130295D02*
X93813922Y-52225533D01*
X93813922Y-52225533D02*
X93766303Y-52368390D01*
X93766303Y-52368390D02*
X93194875Y-52939819D01*
X93194875Y-52939819D02*
X93813922Y-52939819D01*
X94432970Y-51939819D02*
X94528208Y-51939819D01*
X94528208Y-51939819D02*
X94623446Y-51987438D01*
X94623446Y-51987438D02*
X94671065Y-52035057D01*
X94671065Y-52035057D02*
X94718684Y-52130295D01*
X94718684Y-52130295D02*
X94766303Y-52320771D01*
X94766303Y-52320771D02*
X94766303Y-52558866D01*
X94766303Y-52558866D02*
X94718684Y-52749342D01*
X94718684Y-52749342D02*
X94671065Y-52844580D01*
X94671065Y-52844580D02*
X94623446Y-52892200D01*
X94623446Y-52892200D02*
X94528208Y-52939819D01*
X94528208Y-52939819D02*
X94432970Y-52939819D01*
X94432970Y-52939819D02*
X94337732Y-52892200D01*
X94337732Y-52892200D02*
X94290113Y-52844580D01*
X94290113Y-52844580D02*
X94242494Y-52749342D01*
X94242494Y-52749342D02*
X94194875Y-52558866D01*
X94194875Y-52558866D02*
X94194875Y-52320771D01*
X94194875Y-52320771D02*
X94242494Y-52130295D01*
X94242494Y-52130295D02*
X94290113Y-52035057D01*
X94290113Y-52035057D02*
X94337732Y-51987438D01*
X94337732Y-51987438D02*
X94432970Y-51939819D01*
X95147256Y-52035057D02*
X95194875Y-51987438D01*
X95194875Y-51987438D02*
X95290113Y-51939819D01*
X95290113Y-51939819D02*
X95528208Y-51939819D01*
X95528208Y-51939819D02*
X95623446Y-51987438D01*
X95623446Y-51987438D02*
X95671065Y-52035057D01*
X95671065Y-52035057D02*
X95718684Y-52130295D01*
X95718684Y-52130295D02*
X95718684Y-52225533D01*
X95718684Y-52225533D02*
X95671065Y-52368390D01*
X95671065Y-52368390D02*
X95099637Y-52939819D01*
X95099637Y-52939819D02*
X95718684Y-52939819D01*
X96575827Y-52273152D02*
X96575827Y-52939819D01*
X96337732Y-51892200D02*
X96099637Y-52606485D01*
X96099637Y-52606485D02*
X96718684Y-52606485D01*
X97861542Y-52939819D02*
X97861542Y-52273152D01*
X97861542Y-52368390D02*
X97909161Y-52320771D01*
X97909161Y-52320771D02*
X98004399Y-52273152D01*
X98004399Y-52273152D02*
X98147256Y-52273152D01*
X98147256Y-52273152D02*
X98242494Y-52320771D01*
X98242494Y-52320771D02*
X98290113Y-52416009D01*
X98290113Y-52416009D02*
X98290113Y-52939819D01*
X98290113Y-52416009D02*
X98337732Y-52320771D01*
X98337732Y-52320771D02*
X98432970Y-52273152D01*
X98432970Y-52273152D02*
X98575827Y-52273152D01*
X98575827Y-52273152D02*
X98671066Y-52320771D01*
X98671066Y-52320771D02*
X98718685Y-52416009D01*
X98718685Y-52416009D02*
X98718685Y-52939819D01*
X99337732Y-52939819D02*
X99242494Y-52892200D01*
X99242494Y-52892200D02*
X99194875Y-52844580D01*
X99194875Y-52844580D02*
X99147256Y-52749342D01*
X99147256Y-52749342D02*
X99147256Y-52463628D01*
X99147256Y-52463628D02*
X99194875Y-52368390D01*
X99194875Y-52368390D02*
X99242494Y-52320771D01*
X99242494Y-52320771D02*
X99337732Y-52273152D01*
X99337732Y-52273152D02*
X99480589Y-52273152D01*
X99480589Y-52273152D02*
X99575827Y-52320771D01*
X99575827Y-52320771D02*
X99623446Y-52368390D01*
X99623446Y-52368390D02*
X99671065Y-52463628D01*
X99671065Y-52463628D02*
X99671065Y-52749342D01*
X99671065Y-52749342D02*
X99623446Y-52844580D01*
X99623446Y-52844580D02*
X99575827Y-52892200D01*
X99575827Y-52892200D02*
X99480589Y-52939819D01*
X99480589Y-52939819D02*
X99337732Y-52939819D01*
X100528208Y-52939819D02*
X100528208Y-51939819D01*
X100528208Y-52892200D02*
X100432970Y-52939819D01*
X100432970Y-52939819D02*
X100242494Y-52939819D01*
X100242494Y-52939819D02*
X100147256Y-52892200D01*
X100147256Y-52892200D02*
X100099637Y-52844580D01*
X100099637Y-52844580D02*
X100052018Y-52749342D01*
X100052018Y-52749342D02*
X100052018Y-52463628D01*
X100052018Y-52463628D02*
X100099637Y-52368390D01*
X100099637Y-52368390D02*
X100147256Y-52320771D01*
X100147256Y-52320771D02*
X100242494Y-52273152D01*
X100242494Y-52273152D02*
X100432970Y-52273152D01*
X100432970Y-52273152D02*
X100528208Y-52320771D01*
X101004399Y-52939819D02*
X101004399Y-51939819D01*
X101004399Y-52320771D02*
X101099637Y-52273152D01*
X101099637Y-52273152D02*
X101290113Y-52273152D01*
X101290113Y-52273152D02*
X101385351Y-52320771D01*
X101385351Y-52320771D02*
X101432970Y-52368390D01*
X101432970Y-52368390D02*
X101480589Y-52463628D01*
X101480589Y-52463628D02*
X101480589Y-52749342D01*
X101480589Y-52749342D02*
X101432970Y-52844580D01*
X101432970Y-52844580D02*
X101385351Y-52892200D01*
X101385351Y-52892200D02*
X101290113Y-52939819D01*
X101290113Y-52939819D02*
X101099637Y-52939819D01*
X101099637Y-52939819D02*
X101004399Y-52892200D01*
X102337732Y-52939819D02*
X102337732Y-52416009D01*
X102337732Y-52416009D02*
X102290113Y-52320771D01*
X102290113Y-52320771D02*
X102194875Y-52273152D01*
X102194875Y-52273152D02*
X102004399Y-52273152D01*
X102004399Y-52273152D02*
X101909161Y-52320771D01*
X102337732Y-52892200D02*
X102242494Y-52939819D01*
X102242494Y-52939819D02*
X102004399Y-52939819D01*
X102004399Y-52939819D02*
X101909161Y-52892200D01*
X101909161Y-52892200D02*
X101861542Y-52796961D01*
X101861542Y-52796961D02*
X101861542Y-52701723D01*
X101861542Y-52701723D02*
X101909161Y-52606485D01*
X101909161Y-52606485D02*
X102004399Y-52558866D01*
X102004399Y-52558866D02*
X102242494Y-52558866D01*
X102242494Y-52558866D02*
X102337732Y-52511247D01*
X102671066Y-52273152D02*
X103052018Y-52273152D01*
X102813923Y-51939819D02*
X102813923Y-52796961D01*
X102813923Y-52796961D02*
X102861542Y-52892200D01*
X102861542Y-52892200D02*
X102956780Y-52939819D01*
X102956780Y-52939819D02*
X103052018Y-52939819D01*
X103242495Y-52273152D02*
X103623447Y-52273152D01*
X103385352Y-51939819D02*
X103385352Y-52796961D01*
X103385352Y-52796961D02*
X103432971Y-52892200D01*
X103432971Y-52892200D02*
X103528209Y-52939819D01*
X103528209Y-52939819D02*
X103623447Y-52939819D01*
X139515826Y-39695247D02*
X139249160Y-39695247D01*
X139249160Y-40114295D02*
X139249160Y-39314295D01*
X139249160Y-39314295D02*
X139630112Y-39314295D01*
X140392017Y-40038104D02*
X140353921Y-40076200D01*
X140353921Y-40076200D02*
X140239636Y-40114295D01*
X140239636Y-40114295D02*
X140163445Y-40114295D01*
X140163445Y-40114295D02*
X140049159Y-40076200D01*
X140049159Y-40076200D02*
X139972969Y-40000009D01*
X139972969Y-40000009D02*
X139934874Y-39923819D01*
X139934874Y-39923819D02*
X139896778Y-39771438D01*
X139896778Y-39771438D02*
X139896778Y-39657152D01*
X139896778Y-39657152D02*
X139934874Y-39504771D01*
X139934874Y-39504771D02*
X139972969Y-39428580D01*
X139972969Y-39428580D02*
X140049159Y-39352390D01*
X140049159Y-39352390D02*
X140163445Y-39314295D01*
X140163445Y-39314295D02*
X140239636Y-39314295D01*
X140239636Y-39314295D02*
X140353921Y-39352390D01*
X140353921Y-39352390D02*
X140392017Y-39390485D01*
X149931064Y-70416200D02*
X150045350Y-70454295D01*
X150045350Y-70454295D02*
X150235826Y-70454295D01*
X150235826Y-70454295D02*
X150312017Y-70416200D01*
X150312017Y-70416200D02*
X150350112Y-70378104D01*
X150350112Y-70378104D02*
X150388207Y-70301914D01*
X150388207Y-70301914D02*
X150388207Y-70225723D01*
X150388207Y-70225723D02*
X150350112Y-70149533D01*
X150350112Y-70149533D02*
X150312017Y-70111438D01*
X150312017Y-70111438D02*
X150235826Y-70073342D01*
X150235826Y-70073342D02*
X150083445Y-70035247D01*
X150083445Y-70035247D02*
X150007255Y-69997152D01*
X150007255Y-69997152D02*
X149969160Y-69959057D01*
X149969160Y-69959057D02*
X149931064Y-69882866D01*
X149931064Y-69882866D02*
X149931064Y-69806676D01*
X149931064Y-69806676D02*
X149969160Y-69730485D01*
X149969160Y-69730485D02*
X150007255Y-69692390D01*
X150007255Y-69692390D02*
X150083445Y-69654295D01*
X150083445Y-69654295D02*
X150273922Y-69654295D01*
X150273922Y-69654295D02*
X150388207Y-69692390D01*
X150731065Y-70454295D02*
X150731065Y-69654295D01*
X150731065Y-69654295D02*
X151035827Y-69654295D01*
X151035827Y-69654295D02*
X151112017Y-69692390D01*
X151112017Y-69692390D02*
X151150112Y-69730485D01*
X151150112Y-69730485D02*
X151188208Y-69806676D01*
X151188208Y-69806676D02*
X151188208Y-69920961D01*
X151188208Y-69920961D02*
X151150112Y-69997152D01*
X151150112Y-69997152D02*
X151112017Y-70035247D01*
X151112017Y-70035247D02*
X151035827Y-70073342D01*
X151035827Y-70073342D02*
X150731065Y-70073342D01*
X142724874Y-42124295D02*
X143182017Y-42124295D01*
X142953445Y-42924295D02*
X142953445Y-42124295D01*
X138871064Y-44863200D02*
X138985350Y-44896533D01*
X138985350Y-44896533D02*
X139175826Y-44896533D01*
X139175826Y-44896533D02*
X139252017Y-44863200D01*
X139252017Y-44863200D02*
X139290112Y-44829866D01*
X139290112Y-44829866D02*
X139328207Y-44763200D01*
X139328207Y-44763200D02*
X139328207Y-44696533D01*
X139328207Y-44696533D02*
X139290112Y-44629866D01*
X139290112Y-44629866D02*
X139252017Y-44596533D01*
X139252017Y-44596533D02*
X139175826Y-44563200D01*
X139175826Y-44563200D02*
X139023445Y-44529866D01*
X139023445Y-44529866D02*
X138947255Y-44496533D01*
X138947255Y-44496533D02*
X138909160Y-44463200D01*
X138909160Y-44463200D02*
X138871064Y-44396533D01*
X138871064Y-44396533D02*
X138871064Y-44329866D01*
X138871064Y-44329866D02*
X138909160Y-44263200D01*
X138909160Y-44263200D02*
X138947255Y-44229866D01*
X138947255Y-44229866D02*
X139023445Y-44196533D01*
X139023445Y-44196533D02*
X139213922Y-44196533D01*
X139213922Y-44196533D02*
X139328207Y-44229866D01*
X139671065Y-44896533D02*
X139671065Y-44196533D01*
X139671065Y-44196533D02*
X140128208Y-44896533D01*
X140128208Y-44896533D02*
X140128208Y-44196533D01*
X139679160Y-42115247D02*
X139945826Y-42115247D01*
X140060112Y-42534295D02*
X139679160Y-42534295D01*
X139679160Y-42534295D02*
X139679160Y-41734295D01*
X139679160Y-41734295D02*
X140060112Y-41734295D01*
X142746303Y-37924295D02*
X142479636Y-37543342D01*
X142289160Y-37924295D02*
X142289160Y-37124295D01*
X142289160Y-37124295D02*
X142593922Y-37124295D01*
X142593922Y-37124295D02*
X142670112Y-37162390D01*
X142670112Y-37162390D02*
X142708207Y-37200485D01*
X142708207Y-37200485D02*
X142746303Y-37276676D01*
X142746303Y-37276676D02*
X142746303Y-37390961D01*
X142746303Y-37390961D02*
X142708207Y-37467152D01*
X142708207Y-37467152D02*
X142670112Y-37505247D01*
X142670112Y-37505247D02*
X142593922Y-37543342D01*
X142593922Y-37543342D02*
X142289160Y-37543342D01*
X139819160Y-60118385D02*
X139819160Y-60766004D01*
X139819160Y-60766004D02*
X139857255Y-60842194D01*
X139857255Y-60842194D02*
X139895350Y-60880290D01*
X139895350Y-60880290D02*
X139971541Y-60918385D01*
X139971541Y-60918385D02*
X140123922Y-60918385D01*
X140123922Y-60918385D02*
X140200112Y-60880290D01*
X140200112Y-60880290D02*
X140238207Y-60842194D01*
X140238207Y-60842194D02*
X140276303Y-60766004D01*
X140276303Y-60766004D02*
X140276303Y-60118385D01*
X140619159Y-60880290D02*
X140733445Y-60918385D01*
X140733445Y-60918385D02*
X140923921Y-60918385D01*
X140923921Y-60918385D02*
X141000112Y-60880290D01*
X141000112Y-60880290D02*
X141038207Y-60842194D01*
X141038207Y-60842194D02*
X141076302Y-60766004D01*
X141076302Y-60766004D02*
X141076302Y-60689813D01*
X141076302Y-60689813D02*
X141038207Y-60613623D01*
X141038207Y-60613623D02*
X141000112Y-60575528D01*
X141000112Y-60575528D02*
X140923921Y-60537432D01*
X140923921Y-60537432D02*
X140771540Y-60499337D01*
X140771540Y-60499337D02*
X140695350Y-60461242D01*
X140695350Y-60461242D02*
X140657255Y-60423147D01*
X140657255Y-60423147D02*
X140619159Y-60346956D01*
X140619159Y-60346956D02*
X140619159Y-60270766D01*
X140619159Y-60270766D02*
X140657255Y-60194575D01*
X140657255Y-60194575D02*
X140695350Y-60156480D01*
X140695350Y-60156480D02*
X140771540Y-60118385D01*
X140771540Y-60118385D02*
X140962017Y-60118385D01*
X140962017Y-60118385D02*
X141076302Y-60156480D01*
X142028684Y-60918385D02*
X142028684Y-60118385D01*
X142028684Y-60118385D02*
X142333446Y-60118385D01*
X142333446Y-60118385D02*
X142409636Y-60156480D01*
X142409636Y-60156480D02*
X142447731Y-60194575D01*
X142447731Y-60194575D02*
X142485827Y-60270766D01*
X142485827Y-60270766D02*
X142485827Y-60385051D01*
X142485827Y-60385051D02*
X142447731Y-60461242D01*
X142447731Y-60461242D02*
X142409636Y-60499337D01*
X142409636Y-60499337D02*
X142333446Y-60537432D01*
X142333446Y-60537432D02*
X142028684Y-60537432D01*
X143171541Y-60918385D02*
X143171541Y-60499337D01*
X143171541Y-60499337D02*
X143133446Y-60423147D01*
X143133446Y-60423147D02*
X143057255Y-60385051D01*
X143057255Y-60385051D02*
X142904874Y-60385051D01*
X142904874Y-60385051D02*
X142828684Y-60423147D01*
X143171541Y-60880290D02*
X143095350Y-60918385D01*
X143095350Y-60918385D02*
X142904874Y-60918385D01*
X142904874Y-60918385D02*
X142828684Y-60880290D01*
X142828684Y-60880290D02*
X142790588Y-60804099D01*
X142790588Y-60804099D02*
X142790588Y-60727909D01*
X142790588Y-60727909D02*
X142828684Y-60651718D01*
X142828684Y-60651718D02*
X142904874Y-60613623D01*
X142904874Y-60613623D02*
X143095350Y-60613623D01*
X143095350Y-60613623D02*
X143171541Y-60575528D01*
X143438208Y-60385051D02*
X143742970Y-60385051D01*
X143552494Y-60118385D02*
X143552494Y-60804099D01*
X143552494Y-60804099D02*
X143590589Y-60880290D01*
X143590589Y-60880290D02*
X143666779Y-60918385D01*
X143666779Y-60918385D02*
X143742970Y-60918385D01*
X145038208Y-60918385D02*
X144581065Y-60918385D01*
X144809637Y-60918385D02*
X144809637Y-60118385D01*
X144809637Y-60118385D02*
X144733446Y-60232670D01*
X144733446Y-60232670D02*
X144657256Y-60308861D01*
X144657256Y-60308861D02*
X144581065Y-60346956D01*
X145800113Y-60918385D02*
X145342970Y-60918385D01*
X145571542Y-60918385D02*
X145571542Y-60118385D01*
X145571542Y-60118385D02*
X145495351Y-60232670D01*
X145495351Y-60232670D02*
X145419161Y-60308861D01*
X145419161Y-60308861D02*
X145342970Y-60346956D01*
X146181066Y-60880290D02*
X146181066Y-60918385D01*
X146181066Y-60918385D02*
X146142971Y-60994575D01*
X146142971Y-60994575D02*
X146104875Y-61032670D01*
X146447732Y-60118385D02*
X146942970Y-60118385D01*
X146942970Y-60118385D02*
X146676304Y-60423147D01*
X146676304Y-60423147D02*
X146790589Y-60423147D01*
X146790589Y-60423147D02*
X146866780Y-60461242D01*
X146866780Y-60461242D02*
X146904875Y-60499337D01*
X146904875Y-60499337D02*
X146942970Y-60575528D01*
X146942970Y-60575528D02*
X146942970Y-60766004D01*
X146942970Y-60766004D02*
X146904875Y-60842194D01*
X146904875Y-60842194D02*
X146866780Y-60880290D01*
X146866780Y-60880290D02*
X146790589Y-60918385D01*
X146790589Y-60918385D02*
X146562018Y-60918385D01*
X146562018Y-60918385D02*
X146485827Y-60880290D01*
X146485827Y-60880290D02*
X146447732Y-60842194D01*
X147400113Y-60461242D02*
X147323923Y-60423147D01*
X147323923Y-60423147D02*
X147285828Y-60385051D01*
X147285828Y-60385051D02*
X147247732Y-60308861D01*
X147247732Y-60308861D02*
X147247732Y-60270766D01*
X147247732Y-60270766D02*
X147285828Y-60194575D01*
X147285828Y-60194575D02*
X147323923Y-60156480D01*
X147323923Y-60156480D02*
X147400113Y-60118385D01*
X147400113Y-60118385D02*
X147552494Y-60118385D01*
X147552494Y-60118385D02*
X147628685Y-60156480D01*
X147628685Y-60156480D02*
X147666780Y-60194575D01*
X147666780Y-60194575D02*
X147704875Y-60270766D01*
X147704875Y-60270766D02*
X147704875Y-60308861D01*
X147704875Y-60308861D02*
X147666780Y-60385051D01*
X147666780Y-60385051D02*
X147628685Y-60423147D01*
X147628685Y-60423147D02*
X147552494Y-60461242D01*
X147552494Y-60461242D02*
X147400113Y-60461242D01*
X147400113Y-60461242D02*
X147323923Y-60499337D01*
X147323923Y-60499337D02*
X147285828Y-60537432D01*
X147285828Y-60537432D02*
X147247732Y-60613623D01*
X147247732Y-60613623D02*
X147247732Y-60766004D01*
X147247732Y-60766004D02*
X147285828Y-60842194D01*
X147285828Y-60842194D02*
X147323923Y-60880290D01*
X147323923Y-60880290D02*
X147400113Y-60918385D01*
X147400113Y-60918385D02*
X147552494Y-60918385D01*
X147552494Y-60918385D02*
X147628685Y-60880290D01*
X147628685Y-60880290D02*
X147666780Y-60842194D01*
X147666780Y-60842194D02*
X147704875Y-60766004D01*
X147704875Y-60766004D02*
X147704875Y-60613623D01*
X147704875Y-60613623D02*
X147666780Y-60537432D01*
X147666780Y-60537432D02*
X147628685Y-60499337D01*
X147628685Y-60499337D02*
X147552494Y-60461242D01*
X148200114Y-60118385D02*
X148276304Y-60118385D01*
X148276304Y-60118385D02*
X148352495Y-60156480D01*
X148352495Y-60156480D02*
X148390590Y-60194575D01*
X148390590Y-60194575D02*
X148428685Y-60270766D01*
X148428685Y-60270766D02*
X148466780Y-60423147D01*
X148466780Y-60423147D02*
X148466780Y-60613623D01*
X148466780Y-60613623D02*
X148428685Y-60766004D01*
X148428685Y-60766004D02*
X148390590Y-60842194D01*
X148390590Y-60842194D02*
X148352495Y-60880290D01*
X148352495Y-60880290D02*
X148276304Y-60918385D01*
X148276304Y-60918385D02*
X148200114Y-60918385D01*
X148200114Y-60918385D02*
X148123923Y-60880290D01*
X148123923Y-60880290D02*
X148085828Y-60842194D01*
X148085828Y-60842194D02*
X148047733Y-60766004D01*
X148047733Y-60766004D02*
X148009637Y-60613623D01*
X148009637Y-60613623D02*
X148009637Y-60423147D01*
X148009637Y-60423147D02*
X148047733Y-60270766D01*
X148047733Y-60270766D02*
X148085828Y-60194575D01*
X148085828Y-60194575D02*
X148123923Y-60156480D01*
X148123923Y-60156480D02*
X148200114Y-60118385D01*
X148847733Y-60880290D02*
X148847733Y-60918385D01*
X148847733Y-60918385D02*
X148809638Y-60994575D01*
X148809638Y-60994575D02*
X148771542Y-61032670D01*
X149228685Y-60918385D02*
X149381066Y-60918385D01*
X149381066Y-60918385D02*
X149457256Y-60880290D01*
X149457256Y-60880290D02*
X149495352Y-60842194D01*
X149495352Y-60842194D02*
X149571542Y-60727909D01*
X149571542Y-60727909D02*
X149609637Y-60575528D01*
X149609637Y-60575528D02*
X149609637Y-60270766D01*
X149609637Y-60270766D02*
X149571542Y-60194575D01*
X149571542Y-60194575D02*
X149533447Y-60156480D01*
X149533447Y-60156480D02*
X149457256Y-60118385D01*
X149457256Y-60118385D02*
X149304875Y-60118385D01*
X149304875Y-60118385D02*
X149228685Y-60156480D01*
X149228685Y-60156480D02*
X149190590Y-60194575D01*
X149190590Y-60194575D02*
X149152494Y-60270766D01*
X149152494Y-60270766D02*
X149152494Y-60461242D01*
X149152494Y-60461242D02*
X149190590Y-60537432D01*
X149190590Y-60537432D02*
X149228685Y-60575528D01*
X149228685Y-60575528D02*
X149304875Y-60613623D01*
X149304875Y-60613623D02*
X149457256Y-60613623D01*
X149457256Y-60613623D02*
X149533447Y-60575528D01*
X149533447Y-60575528D02*
X149571542Y-60537432D01*
X149571542Y-60537432D02*
X149609637Y-60461242D01*
X150295352Y-60385051D02*
X150295352Y-60918385D01*
X150104876Y-60080290D02*
X149914399Y-60651718D01*
X149914399Y-60651718D02*
X150409638Y-60651718D01*
X150676304Y-60194575D02*
X150714400Y-60156480D01*
X150714400Y-60156480D02*
X150790590Y-60118385D01*
X150790590Y-60118385D02*
X150981066Y-60118385D01*
X150981066Y-60118385D02*
X151057257Y-60156480D01*
X151057257Y-60156480D02*
X151095352Y-60194575D01*
X151095352Y-60194575D02*
X151133447Y-60270766D01*
X151133447Y-60270766D02*
X151133447Y-60346956D01*
X151133447Y-60346956D02*
X151095352Y-60461242D01*
X151095352Y-60461242D02*
X150638209Y-60918385D01*
X150638209Y-60918385D02*
X151133447Y-60918385D01*
X140238207Y-62206340D02*
X139781064Y-62206340D01*
X140009636Y-62206340D02*
X140009636Y-61406340D01*
X140009636Y-61406340D02*
X139933445Y-61520625D01*
X139933445Y-61520625D02*
X139857255Y-61596816D01*
X139857255Y-61596816D02*
X139781064Y-61634911D01*
X141000112Y-62206340D02*
X140542969Y-62206340D01*
X140771541Y-62206340D02*
X140771541Y-61406340D01*
X140771541Y-61406340D02*
X140695350Y-61520625D01*
X140695350Y-61520625D02*
X140619160Y-61596816D01*
X140619160Y-61596816D02*
X140542969Y-61634911D01*
X141381065Y-62168245D02*
X141381065Y-62206340D01*
X141381065Y-62206340D02*
X141342970Y-62282530D01*
X141342970Y-62282530D02*
X141304874Y-62320625D01*
X142066779Y-61673006D02*
X142066779Y-62206340D01*
X141876303Y-61368245D02*
X141685826Y-61939673D01*
X141685826Y-61939673D02*
X142181065Y-61939673D01*
X142828684Y-61406340D02*
X142676303Y-61406340D01*
X142676303Y-61406340D02*
X142600112Y-61444435D01*
X142600112Y-61444435D02*
X142562017Y-61482530D01*
X142562017Y-61482530D02*
X142485827Y-61596816D01*
X142485827Y-61596816D02*
X142447731Y-61749197D01*
X142447731Y-61749197D02*
X142447731Y-62053959D01*
X142447731Y-62053959D02*
X142485827Y-62130149D01*
X142485827Y-62130149D02*
X142523922Y-62168245D01*
X142523922Y-62168245D02*
X142600112Y-62206340D01*
X142600112Y-62206340D02*
X142752493Y-62206340D01*
X142752493Y-62206340D02*
X142828684Y-62168245D01*
X142828684Y-62168245D02*
X142866779Y-62130149D01*
X142866779Y-62130149D02*
X142904874Y-62053959D01*
X142904874Y-62053959D02*
X142904874Y-61863483D01*
X142904874Y-61863483D02*
X142866779Y-61787292D01*
X142866779Y-61787292D02*
X142828684Y-61749197D01*
X142828684Y-61749197D02*
X142752493Y-61711102D01*
X142752493Y-61711102D02*
X142600112Y-61711102D01*
X142600112Y-61711102D02*
X142523922Y-61749197D01*
X142523922Y-61749197D02*
X142485827Y-61787292D01*
X142485827Y-61787292D02*
X142447731Y-61863483D01*
X143285827Y-62206340D02*
X143438208Y-62206340D01*
X143438208Y-62206340D02*
X143514398Y-62168245D01*
X143514398Y-62168245D02*
X143552494Y-62130149D01*
X143552494Y-62130149D02*
X143628684Y-62015864D01*
X143628684Y-62015864D02*
X143666779Y-61863483D01*
X143666779Y-61863483D02*
X143666779Y-61558721D01*
X143666779Y-61558721D02*
X143628684Y-61482530D01*
X143628684Y-61482530D02*
X143590589Y-61444435D01*
X143590589Y-61444435D02*
X143514398Y-61406340D01*
X143514398Y-61406340D02*
X143362017Y-61406340D01*
X143362017Y-61406340D02*
X143285827Y-61444435D01*
X143285827Y-61444435D02*
X143247732Y-61482530D01*
X143247732Y-61482530D02*
X143209636Y-61558721D01*
X143209636Y-61558721D02*
X143209636Y-61749197D01*
X143209636Y-61749197D02*
X143247732Y-61825387D01*
X143247732Y-61825387D02*
X143285827Y-61863483D01*
X143285827Y-61863483D02*
X143362017Y-61901578D01*
X143362017Y-61901578D02*
X143514398Y-61901578D01*
X143514398Y-61901578D02*
X143590589Y-61863483D01*
X143590589Y-61863483D02*
X143628684Y-61825387D01*
X143628684Y-61825387D02*
X143666779Y-61749197D01*
X144047732Y-62168245D02*
X144047732Y-62206340D01*
X144047732Y-62206340D02*
X144009637Y-62282530D01*
X144009637Y-62282530D02*
X143971541Y-62320625D01*
X144733446Y-61673006D02*
X144733446Y-62206340D01*
X144542970Y-61368245D02*
X144352493Y-61939673D01*
X144352493Y-61939673D02*
X144847732Y-61939673D01*
X145076303Y-61406340D02*
X145609637Y-61406340D01*
X145609637Y-61406340D02*
X145266779Y-62206340D01*
X146066780Y-61406340D02*
X146142970Y-61406340D01*
X146142970Y-61406340D02*
X146219161Y-61444435D01*
X146219161Y-61444435D02*
X146257256Y-61482530D01*
X146257256Y-61482530D02*
X146295351Y-61558721D01*
X146295351Y-61558721D02*
X146333446Y-61711102D01*
X146333446Y-61711102D02*
X146333446Y-61901578D01*
X146333446Y-61901578D02*
X146295351Y-62053959D01*
X146295351Y-62053959D02*
X146257256Y-62130149D01*
X146257256Y-62130149D02*
X146219161Y-62168245D01*
X146219161Y-62168245D02*
X146142970Y-62206340D01*
X146142970Y-62206340D02*
X146066780Y-62206340D01*
X146066780Y-62206340D02*
X145990589Y-62168245D01*
X145990589Y-62168245D02*
X145952494Y-62130149D01*
X145952494Y-62130149D02*
X145914399Y-62053959D01*
X145914399Y-62053959D02*
X145876303Y-61901578D01*
X145876303Y-61901578D02*
X145876303Y-61711102D01*
X145876303Y-61711102D02*
X145914399Y-61558721D01*
X145914399Y-61558721D02*
X145952494Y-61482530D01*
X145952494Y-61482530D02*
X145990589Y-61444435D01*
X145990589Y-61444435D02*
X146066780Y-61406340D01*
X147704875Y-62206340D02*
X147247732Y-62206340D01*
X147476304Y-62206340D02*
X147476304Y-61406340D01*
X147476304Y-61406340D02*
X147400113Y-61520625D01*
X147400113Y-61520625D02*
X147323923Y-61596816D01*
X147323923Y-61596816D02*
X147247732Y-61634911D01*
X148466780Y-62206340D02*
X148009637Y-62206340D01*
X148238209Y-62206340D02*
X148238209Y-61406340D01*
X148238209Y-61406340D02*
X148162018Y-61520625D01*
X148162018Y-61520625D02*
X148085828Y-61596816D01*
X148085828Y-61596816D02*
X148009637Y-61634911D01*
X148847733Y-62168245D02*
X148847733Y-62206340D01*
X148847733Y-62206340D02*
X148809638Y-62282530D01*
X148809638Y-62282530D02*
X148771542Y-62320625D01*
X149571542Y-61406340D02*
X149190590Y-61406340D01*
X149190590Y-61406340D02*
X149152494Y-61787292D01*
X149152494Y-61787292D02*
X149190590Y-61749197D01*
X149190590Y-61749197D02*
X149266780Y-61711102D01*
X149266780Y-61711102D02*
X149457256Y-61711102D01*
X149457256Y-61711102D02*
X149533447Y-61749197D01*
X149533447Y-61749197D02*
X149571542Y-61787292D01*
X149571542Y-61787292D02*
X149609637Y-61863483D01*
X149609637Y-61863483D02*
X149609637Y-62053959D01*
X149609637Y-62053959D02*
X149571542Y-62130149D01*
X149571542Y-62130149D02*
X149533447Y-62168245D01*
X149533447Y-62168245D02*
X149457256Y-62206340D01*
X149457256Y-62206340D02*
X149266780Y-62206340D01*
X149266780Y-62206340D02*
X149190590Y-62168245D01*
X149190590Y-62168245D02*
X149152494Y-62130149D01*
X149876304Y-61406340D02*
X150409638Y-61406340D01*
X150409638Y-61406340D02*
X150066780Y-62206340D01*
X151095352Y-61406340D02*
X150714400Y-61406340D01*
X150714400Y-61406340D02*
X150676304Y-61787292D01*
X150676304Y-61787292D02*
X150714400Y-61749197D01*
X150714400Y-61749197D02*
X150790590Y-61711102D01*
X150790590Y-61711102D02*
X150981066Y-61711102D01*
X150981066Y-61711102D02*
X151057257Y-61749197D01*
X151057257Y-61749197D02*
X151095352Y-61787292D01*
X151095352Y-61787292D02*
X151133447Y-61863483D01*
X151133447Y-61863483D02*
X151133447Y-62053959D01*
X151133447Y-62053959D02*
X151095352Y-62130149D01*
X151095352Y-62130149D02*
X151057257Y-62168245D01*
X151057257Y-62168245D02*
X150981066Y-62206340D01*
X150981066Y-62206340D02*
X150790590Y-62206340D01*
X150790590Y-62206340D02*
X150714400Y-62168245D01*
X150714400Y-62168245D02*
X150676304Y-62130149D01*
X151514400Y-62168245D02*
X151514400Y-62206340D01*
X151514400Y-62206340D02*
X151476305Y-62282530D01*
X151476305Y-62282530D02*
X151438209Y-62320625D01*
X151819161Y-61482530D02*
X151857257Y-61444435D01*
X151857257Y-61444435D02*
X151933447Y-61406340D01*
X151933447Y-61406340D02*
X152123923Y-61406340D01*
X152123923Y-61406340D02*
X152200114Y-61444435D01*
X152200114Y-61444435D02*
X152238209Y-61482530D01*
X152238209Y-61482530D02*
X152276304Y-61558721D01*
X152276304Y-61558721D02*
X152276304Y-61634911D01*
X152276304Y-61634911D02*
X152238209Y-61749197D01*
X152238209Y-61749197D02*
X151781066Y-62206340D01*
X151781066Y-62206340D02*
X152276304Y-62206340D01*
X152542971Y-61406340D02*
X153076305Y-61406340D01*
X153076305Y-61406340D02*
X152733447Y-62206340D01*
X153533448Y-61406340D02*
X153609638Y-61406340D01*
X153609638Y-61406340D02*
X153685829Y-61444435D01*
X153685829Y-61444435D02*
X153723924Y-61482530D01*
X153723924Y-61482530D02*
X153762019Y-61558721D01*
X153762019Y-61558721D02*
X153800114Y-61711102D01*
X153800114Y-61711102D02*
X153800114Y-61901578D01*
X153800114Y-61901578D02*
X153762019Y-62053959D01*
X153762019Y-62053959D02*
X153723924Y-62130149D01*
X153723924Y-62130149D02*
X153685829Y-62168245D01*
X153685829Y-62168245D02*
X153609638Y-62206340D01*
X153609638Y-62206340D02*
X153533448Y-62206340D01*
X153533448Y-62206340D02*
X153457257Y-62168245D01*
X153457257Y-62168245D02*
X153419162Y-62130149D01*
X153419162Y-62130149D02*
X153381067Y-62053959D01*
X153381067Y-62053959D02*
X153342971Y-61901578D01*
X153342971Y-61901578D02*
X153342971Y-61711102D01*
X153342971Y-61711102D02*
X153381067Y-61558721D01*
X153381067Y-61558721D02*
X153419162Y-61482530D01*
X153419162Y-61482530D02*
X153457257Y-61444435D01*
X153457257Y-61444435D02*
X153533448Y-61406340D01*
X140238207Y-63494295D02*
X139781064Y-63494295D01*
X140009636Y-63494295D02*
X140009636Y-62694295D01*
X140009636Y-62694295D02*
X139933445Y-62808580D01*
X139933445Y-62808580D02*
X139857255Y-62884771D01*
X139857255Y-62884771D02*
X139781064Y-62922866D01*
X141000112Y-63494295D02*
X140542969Y-63494295D01*
X140771541Y-63494295D02*
X140771541Y-62694295D01*
X140771541Y-62694295D02*
X140695350Y-62808580D01*
X140695350Y-62808580D02*
X140619160Y-62884771D01*
X140619160Y-62884771D02*
X140542969Y-62922866D01*
X141381065Y-63456200D02*
X141381065Y-63494295D01*
X141381065Y-63494295D02*
X141342970Y-63570485D01*
X141342970Y-63570485D02*
X141304874Y-63608580D01*
X142104874Y-62694295D02*
X141723922Y-62694295D01*
X141723922Y-62694295D02*
X141685826Y-63075247D01*
X141685826Y-63075247D02*
X141723922Y-63037152D01*
X141723922Y-63037152D02*
X141800112Y-62999057D01*
X141800112Y-62999057D02*
X141990588Y-62999057D01*
X141990588Y-62999057D02*
X142066779Y-63037152D01*
X142066779Y-63037152D02*
X142104874Y-63075247D01*
X142104874Y-63075247D02*
X142142969Y-63151438D01*
X142142969Y-63151438D02*
X142142969Y-63341914D01*
X142142969Y-63341914D02*
X142104874Y-63418104D01*
X142104874Y-63418104D02*
X142066779Y-63456200D01*
X142066779Y-63456200D02*
X141990588Y-63494295D01*
X141990588Y-63494295D02*
X141800112Y-63494295D01*
X141800112Y-63494295D02*
X141723922Y-63456200D01*
X141723922Y-63456200D02*
X141685826Y-63418104D01*
X142828684Y-62694295D02*
X142676303Y-62694295D01*
X142676303Y-62694295D02*
X142600112Y-62732390D01*
X142600112Y-62732390D02*
X142562017Y-62770485D01*
X142562017Y-62770485D02*
X142485827Y-62884771D01*
X142485827Y-62884771D02*
X142447731Y-63037152D01*
X142447731Y-63037152D02*
X142447731Y-63341914D01*
X142447731Y-63341914D02*
X142485827Y-63418104D01*
X142485827Y-63418104D02*
X142523922Y-63456200D01*
X142523922Y-63456200D02*
X142600112Y-63494295D01*
X142600112Y-63494295D02*
X142752493Y-63494295D01*
X142752493Y-63494295D02*
X142828684Y-63456200D01*
X142828684Y-63456200D02*
X142866779Y-63418104D01*
X142866779Y-63418104D02*
X142904874Y-63341914D01*
X142904874Y-63341914D02*
X142904874Y-63151438D01*
X142904874Y-63151438D02*
X142866779Y-63075247D01*
X142866779Y-63075247D02*
X142828684Y-63037152D01*
X142828684Y-63037152D02*
X142752493Y-62999057D01*
X142752493Y-62999057D02*
X142600112Y-62999057D01*
X142600112Y-62999057D02*
X142523922Y-63037152D01*
X142523922Y-63037152D02*
X142485827Y-63075247D01*
X142485827Y-63075247D02*
X142447731Y-63151438D01*
X143171541Y-62694295D02*
X143666779Y-62694295D01*
X143666779Y-62694295D02*
X143400113Y-62999057D01*
X143400113Y-62999057D02*
X143514398Y-62999057D01*
X143514398Y-62999057D02*
X143590589Y-63037152D01*
X143590589Y-63037152D02*
X143628684Y-63075247D01*
X143628684Y-63075247D02*
X143666779Y-63151438D01*
X143666779Y-63151438D02*
X143666779Y-63341914D01*
X143666779Y-63341914D02*
X143628684Y-63418104D01*
X143628684Y-63418104D02*
X143590589Y-63456200D01*
X143590589Y-63456200D02*
X143514398Y-63494295D01*
X143514398Y-63494295D02*
X143285827Y-63494295D01*
X143285827Y-63494295D02*
X143209636Y-63456200D01*
X143209636Y-63456200D02*
X143171541Y-63418104D01*
X144047732Y-63456200D02*
X144047732Y-63494295D01*
X144047732Y-63494295D02*
X144009637Y-63570485D01*
X144009637Y-63570485D02*
X143971541Y-63608580D01*
X144352493Y-62770485D02*
X144390589Y-62732390D01*
X144390589Y-62732390D02*
X144466779Y-62694295D01*
X144466779Y-62694295D02*
X144657255Y-62694295D01*
X144657255Y-62694295D02*
X144733446Y-62732390D01*
X144733446Y-62732390D02*
X144771541Y-62770485D01*
X144771541Y-62770485D02*
X144809636Y-62846676D01*
X144809636Y-62846676D02*
X144809636Y-62922866D01*
X144809636Y-62922866D02*
X144771541Y-63037152D01*
X144771541Y-63037152D02*
X144314398Y-63494295D01*
X144314398Y-63494295D02*
X144809636Y-63494295D01*
X145495351Y-62960961D02*
X145495351Y-63494295D01*
X145304875Y-62656200D02*
X145114398Y-63227628D01*
X145114398Y-63227628D02*
X145609637Y-63227628D01*
X146333446Y-63494295D02*
X145876303Y-63494295D01*
X146104875Y-63494295D02*
X146104875Y-62694295D01*
X146104875Y-62694295D02*
X146028684Y-62808580D01*
X146028684Y-62808580D02*
X145952494Y-62884771D01*
X145952494Y-62884771D02*
X145876303Y-62922866D01*
X101351905Y-56844819D02*
X101351905Y-55844819D01*
X101351905Y-55844819D02*
X101590000Y-55844819D01*
X101590000Y-55844819D02*
X101732857Y-55892438D01*
X101732857Y-55892438D02*
X101828095Y-55987676D01*
X101828095Y-55987676D02*
X101875714Y-56082914D01*
X101875714Y-56082914D02*
X101923333Y-56273390D01*
X101923333Y-56273390D02*
X101923333Y-56416247D01*
X101923333Y-56416247D02*
X101875714Y-56606723D01*
X101875714Y-56606723D02*
X101828095Y-56701961D01*
X101828095Y-56701961D02*
X101732857Y-56797200D01*
X101732857Y-56797200D02*
X101590000Y-56844819D01*
X101590000Y-56844819D02*
X101351905Y-56844819D01*
X102875714Y-56844819D02*
X102304286Y-56844819D01*
X102590000Y-56844819D02*
X102590000Y-55844819D01*
X102590000Y-55844819D02*
X102494762Y-55987676D01*
X102494762Y-55987676D02*
X102399524Y-56082914D01*
X102399524Y-56082914D02*
X102304286Y-56130533D01*
X132136104Y-34694285D02*
X132174200Y-34732381D01*
X132174200Y-34732381D02*
X132212295Y-34846666D01*
X132212295Y-34846666D02*
X132212295Y-34922857D01*
X132212295Y-34922857D02*
X132174200Y-35037143D01*
X132174200Y-35037143D02*
X132098009Y-35113333D01*
X132098009Y-35113333D02*
X132021819Y-35151428D01*
X132021819Y-35151428D02*
X131869438Y-35189524D01*
X131869438Y-35189524D02*
X131755152Y-35189524D01*
X131755152Y-35189524D02*
X131602771Y-35151428D01*
X131602771Y-35151428D02*
X131526580Y-35113333D01*
X131526580Y-35113333D02*
X131450390Y-35037143D01*
X131450390Y-35037143D02*
X131412295Y-34922857D01*
X131412295Y-34922857D02*
X131412295Y-34846666D01*
X131412295Y-34846666D02*
X131450390Y-34732381D01*
X131450390Y-34732381D02*
X131488485Y-34694285D01*
X131488485Y-34389524D02*
X131450390Y-34351428D01*
X131450390Y-34351428D02*
X131412295Y-34275238D01*
X131412295Y-34275238D02*
X131412295Y-34084762D01*
X131412295Y-34084762D02*
X131450390Y-34008571D01*
X131450390Y-34008571D02*
X131488485Y-33970476D01*
X131488485Y-33970476D02*
X131564676Y-33932381D01*
X131564676Y-33932381D02*
X131640866Y-33932381D01*
X131640866Y-33932381D02*
X131755152Y-33970476D01*
X131755152Y-33970476D02*
X132212295Y-34427619D01*
X132212295Y-34427619D02*
X132212295Y-33932381D01*
X131412295Y-33665714D02*
X131412295Y-33170476D01*
X131412295Y-33170476D02*
X131717057Y-33437142D01*
X131717057Y-33437142D02*
X131717057Y-33322857D01*
X131717057Y-33322857D02*
X131755152Y-33246666D01*
X131755152Y-33246666D02*
X131793247Y-33208571D01*
X131793247Y-33208571D02*
X131869438Y-33170476D01*
X131869438Y-33170476D02*
X132059914Y-33170476D01*
X132059914Y-33170476D02*
X132136104Y-33208571D01*
X132136104Y-33208571D02*
X132174200Y-33246666D01*
X132174200Y-33246666D02*
X132212295Y-33322857D01*
X132212295Y-33322857D02*
X132212295Y-33551428D01*
X132212295Y-33551428D02*
X132174200Y-33627619D01*
X132174200Y-33627619D02*
X132136104Y-33665714D01*
X147159580Y-67852857D02*
X147207200Y-67900476D01*
X147207200Y-67900476D02*
X147254819Y-68043333D01*
X147254819Y-68043333D02*
X147254819Y-68138571D01*
X147254819Y-68138571D02*
X147207200Y-68281428D01*
X147207200Y-68281428D02*
X147111961Y-68376666D01*
X147111961Y-68376666D02*
X147016723Y-68424285D01*
X147016723Y-68424285D02*
X146826247Y-68471904D01*
X146826247Y-68471904D02*
X146683390Y-68471904D01*
X146683390Y-68471904D02*
X146492914Y-68424285D01*
X146492914Y-68424285D02*
X146397676Y-68376666D01*
X146397676Y-68376666D02*
X146302438Y-68281428D01*
X146302438Y-68281428D02*
X146254819Y-68138571D01*
X146254819Y-68138571D02*
X146254819Y-68043333D01*
X146254819Y-68043333D02*
X146302438Y-67900476D01*
X146302438Y-67900476D02*
X146350057Y-67852857D01*
X146350057Y-67471904D02*
X146302438Y-67424285D01*
X146302438Y-67424285D02*
X146254819Y-67329047D01*
X146254819Y-67329047D02*
X146254819Y-67090952D01*
X146254819Y-67090952D02*
X146302438Y-66995714D01*
X146302438Y-66995714D02*
X146350057Y-66948095D01*
X146350057Y-66948095D02*
X146445295Y-66900476D01*
X146445295Y-66900476D02*
X146540533Y-66900476D01*
X146540533Y-66900476D02*
X146683390Y-66948095D01*
X146683390Y-66948095D02*
X147254819Y-67519523D01*
X147254819Y-67519523D02*
X147254819Y-66900476D01*
X146683390Y-66329047D02*
X146635771Y-66424285D01*
X146635771Y-66424285D02*
X146588152Y-66471904D01*
X146588152Y-66471904D02*
X146492914Y-66519523D01*
X146492914Y-66519523D02*
X146445295Y-66519523D01*
X146445295Y-66519523D02*
X146350057Y-66471904D01*
X146350057Y-66471904D02*
X146302438Y-66424285D01*
X146302438Y-66424285D02*
X146254819Y-66329047D01*
X146254819Y-66329047D02*
X146254819Y-66138571D01*
X146254819Y-66138571D02*
X146302438Y-66043333D01*
X146302438Y-66043333D02*
X146350057Y-65995714D01*
X146350057Y-65995714D02*
X146445295Y-65948095D01*
X146445295Y-65948095D02*
X146492914Y-65948095D01*
X146492914Y-65948095D02*
X146588152Y-65995714D01*
X146588152Y-65995714D02*
X146635771Y-66043333D01*
X146635771Y-66043333D02*
X146683390Y-66138571D01*
X146683390Y-66138571D02*
X146683390Y-66329047D01*
X146683390Y-66329047D02*
X146731009Y-66424285D01*
X146731009Y-66424285D02*
X146778628Y-66471904D01*
X146778628Y-66471904D02*
X146873866Y-66519523D01*
X146873866Y-66519523D02*
X147064342Y-66519523D01*
X147064342Y-66519523D02*
X147159580Y-66471904D01*
X147159580Y-66471904D02*
X147207200Y-66424285D01*
X147207200Y-66424285D02*
X147254819Y-66329047D01*
X147254819Y-66329047D02*
X147254819Y-66138571D01*
X147254819Y-66138571D02*
X147207200Y-66043333D01*
X147207200Y-66043333D02*
X147159580Y-65995714D01*
X147159580Y-65995714D02*
X147064342Y-65948095D01*
X147064342Y-65948095D02*
X146873866Y-65948095D01*
X146873866Y-65948095D02*
X146778628Y-65995714D01*
X146778628Y-65995714D02*
X146731009Y-66043333D01*
X146731009Y-66043333D02*
X146683390Y-66138571D01*
X136232295Y-34604285D02*
X135851342Y-34870952D01*
X136232295Y-35061428D02*
X135432295Y-35061428D01*
X135432295Y-35061428D02*
X135432295Y-34756666D01*
X135432295Y-34756666D02*
X135470390Y-34680476D01*
X135470390Y-34680476D02*
X135508485Y-34642381D01*
X135508485Y-34642381D02*
X135584676Y-34604285D01*
X135584676Y-34604285D02*
X135698961Y-34604285D01*
X135698961Y-34604285D02*
X135775152Y-34642381D01*
X135775152Y-34642381D02*
X135813247Y-34680476D01*
X135813247Y-34680476D02*
X135851342Y-34756666D01*
X135851342Y-34756666D02*
X135851342Y-35061428D01*
X135432295Y-34337619D02*
X135432295Y-33842381D01*
X135432295Y-33842381D02*
X135737057Y-34109047D01*
X135737057Y-34109047D02*
X135737057Y-33994762D01*
X135737057Y-33994762D02*
X135775152Y-33918571D01*
X135775152Y-33918571D02*
X135813247Y-33880476D01*
X135813247Y-33880476D02*
X135889438Y-33842381D01*
X135889438Y-33842381D02*
X136079914Y-33842381D01*
X136079914Y-33842381D02*
X136156104Y-33880476D01*
X136156104Y-33880476D02*
X136194200Y-33918571D01*
X136194200Y-33918571D02*
X136232295Y-33994762D01*
X136232295Y-33994762D02*
X136232295Y-34223333D01*
X136232295Y-34223333D02*
X136194200Y-34299524D01*
X136194200Y-34299524D02*
X136156104Y-34337619D01*
X135432295Y-33347142D02*
X135432295Y-33270952D01*
X135432295Y-33270952D02*
X135470390Y-33194761D01*
X135470390Y-33194761D02*
X135508485Y-33156666D01*
X135508485Y-33156666D02*
X135584676Y-33118571D01*
X135584676Y-33118571D02*
X135737057Y-33080476D01*
X135737057Y-33080476D02*
X135927533Y-33080476D01*
X135927533Y-33080476D02*
X136079914Y-33118571D01*
X136079914Y-33118571D02*
X136156104Y-33156666D01*
X136156104Y-33156666D02*
X136194200Y-33194761D01*
X136194200Y-33194761D02*
X136232295Y-33270952D01*
X136232295Y-33270952D02*
X136232295Y-33347142D01*
X136232295Y-33347142D02*
X136194200Y-33423333D01*
X136194200Y-33423333D02*
X136156104Y-33461428D01*
X136156104Y-33461428D02*
X136079914Y-33499523D01*
X136079914Y-33499523D02*
X135927533Y-33537619D01*
X135927533Y-33537619D02*
X135737057Y-33537619D01*
X135737057Y-33537619D02*
X135584676Y-33499523D01*
X135584676Y-33499523D02*
X135508485Y-33461428D01*
X135508485Y-33461428D02*
X135470390Y-33423333D01*
X135470390Y-33423333D02*
X135432295Y-33347142D01*
X100591905Y-70944819D02*
X100591905Y-69944819D01*
X100591905Y-69944819D02*
X100830000Y-69944819D01*
X100830000Y-69944819D02*
X100972857Y-69992438D01*
X100972857Y-69992438D02*
X101068095Y-70087676D01*
X101068095Y-70087676D02*
X101115714Y-70182914D01*
X101115714Y-70182914D02*
X101163333Y-70373390D01*
X101163333Y-70373390D02*
X101163333Y-70516247D01*
X101163333Y-70516247D02*
X101115714Y-70706723D01*
X101115714Y-70706723D02*
X101068095Y-70801961D01*
X101068095Y-70801961D02*
X100972857Y-70897200D01*
X100972857Y-70897200D02*
X100830000Y-70944819D01*
X100830000Y-70944819D02*
X100591905Y-70944819D01*
X102020476Y-69944819D02*
X101830000Y-69944819D01*
X101830000Y-69944819D02*
X101734762Y-69992438D01*
X101734762Y-69992438D02*
X101687143Y-70040057D01*
X101687143Y-70040057D02*
X101591905Y-70182914D01*
X101591905Y-70182914D02*
X101544286Y-70373390D01*
X101544286Y-70373390D02*
X101544286Y-70754342D01*
X101544286Y-70754342D02*
X101591905Y-70849580D01*
X101591905Y-70849580D02*
X101639524Y-70897200D01*
X101639524Y-70897200D02*
X101734762Y-70944819D01*
X101734762Y-70944819D02*
X101925238Y-70944819D01*
X101925238Y-70944819D02*
X102020476Y-70897200D01*
X102020476Y-70897200D02*
X102068095Y-70849580D01*
X102068095Y-70849580D02*
X102115714Y-70754342D01*
X102115714Y-70754342D02*
X102115714Y-70516247D01*
X102115714Y-70516247D02*
X102068095Y-70421009D01*
X102068095Y-70421009D02*
X102020476Y-70373390D01*
X102020476Y-70373390D02*
X101925238Y-70325771D01*
X101925238Y-70325771D02*
X101734762Y-70325771D01*
X101734762Y-70325771D02*
X101639524Y-70373390D01*
X101639524Y-70373390D02*
X101591905Y-70421009D01*
X101591905Y-70421009D02*
X101544286Y-70516247D01*
D11*
X117416666Y-41207419D02*
X117416666Y-41921704D01*
X117416666Y-41921704D02*
X117369047Y-42064561D01*
X117369047Y-42064561D02*
X117273809Y-42159800D01*
X117273809Y-42159800D02*
X117130952Y-42207419D01*
X117130952Y-42207419D02*
X117035714Y-42207419D01*
X118416666Y-42207419D02*
X117845238Y-42207419D01*
X118130952Y-42207419D02*
X118130952Y-41207419D01*
X118130952Y-41207419D02*
X118035714Y-41350276D01*
X118035714Y-41350276D02*
X117940476Y-41445514D01*
X117940476Y-41445514D02*
X117845238Y-41493133D01*
D10*
X97861905Y-63574819D02*
X97861905Y-62574819D01*
X97861905Y-62574819D02*
X98100000Y-62574819D01*
X98100000Y-62574819D02*
X98242857Y-62622438D01*
X98242857Y-62622438D02*
X98338095Y-62717676D01*
X98338095Y-62717676D02*
X98385714Y-62812914D01*
X98385714Y-62812914D02*
X98433333Y-63003390D01*
X98433333Y-63003390D02*
X98433333Y-63146247D01*
X98433333Y-63146247D02*
X98385714Y-63336723D01*
X98385714Y-63336723D02*
X98338095Y-63431961D01*
X98338095Y-63431961D02*
X98242857Y-63527200D01*
X98242857Y-63527200D02*
X98100000Y-63574819D01*
X98100000Y-63574819D02*
X97861905Y-63574819D01*
X98766667Y-62574819D02*
X99385714Y-62574819D01*
X99385714Y-62574819D02*
X99052381Y-62955771D01*
X99052381Y-62955771D02*
X99195238Y-62955771D01*
X99195238Y-62955771D02*
X99290476Y-63003390D01*
X99290476Y-63003390D02*
X99338095Y-63051009D01*
X99338095Y-63051009D02*
X99385714Y-63146247D01*
X99385714Y-63146247D02*
X99385714Y-63384342D01*
X99385714Y-63384342D02*
X99338095Y-63479580D01*
X99338095Y-63479580D02*
X99290476Y-63527200D01*
X99290476Y-63527200D02*
X99195238Y-63574819D01*
X99195238Y-63574819D02*
X98909524Y-63574819D01*
X98909524Y-63574819D02*
X98814286Y-63527200D01*
X98814286Y-63527200D02*
X98766667Y-63479580D01*
X124867142Y-67694819D02*
X124533809Y-67218628D01*
X124295714Y-67694819D02*
X124295714Y-66694819D01*
X124295714Y-66694819D02*
X124676666Y-66694819D01*
X124676666Y-66694819D02*
X124771904Y-66742438D01*
X124771904Y-66742438D02*
X124819523Y-66790057D01*
X124819523Y-66790057D02*
X124867142Y-66885295D01*
X124867142Y-66885295D02*
X124867142Y-67028152D01*
X124867142Y-67028152D02*
X124819523Y-67123390D01*
X124819523Y-67123390D02*
X124771904Y-67171009D01*
X124771904Y-67171009D02*
X124676666Y-67218628D01*
X124676666Y-67218628D02*
X124295714Y-67218628D01*
X125200476Y-66694819D02*
X125819523Y-66694819D01*
X125819523Y-66694819D02*
X125486190Y-67075771D01*
X125486190Y-67075771D02*
X125629047Y-67075771D01*
X125629047Y-67075771D02*
X125724285Y-67123390D01*
X125724285Y-67123390D02*
X125771904Y-67171009D01*
X125771904Y-67171009D02*
X125819523Y-67266247D01*
X125819523Y-67266247D02*
X125819523Y-67504342D01*
X125819523Y-67504342D02*
X125771904Y-67599580D01*
X125771904Y-67599580D02*
X125724285Y-67647200D01*
X125724285Y-67647200D02*
X125629047Y-67694819D01*
X125629047Y-67694819D02*
X125343333Y-67694819D01*
X125343333Y-67694819D02*
X125248095Y-67647200D01*
X125248095Y-67647200D02*
X125200476Y-67599580D01*
X126676666Y-66694819D02*
X126486190Y-66694819D01*
X126486190Y-66694819D02*
X126390952Y-66742438D01*
X126390952Y-66742438D02*
X126343333Y-66790057D01*
X126343333Y-66790057D02*
X126248095Y-66932914D01*
X126248095Y-66932914D02*
X126200476Y-67123390D01*
X126200476Y-67123390D02*
X126200476Y-67504342D01*
X126200476Y-67504342D02*
X126248095Y-67599580D01*
X126248095Y-67599580D02*
X126295714Y-67647200D01*
X126295714Y-67647200D02*
X126390952Y-67694819D01*
X126390952Y-67694819D02*
X126581428Y-67694819D01*
X126581428Y-67694819D02*
X126676666Y-67647200D01*
X126676666Y-67647200D02*
X126724285Y-67599580D01*
X126724285Y-67599580D02*
X126771904Y-67504342D01*
X126771904Y-67504342D02*
X126771904Y-67266247D01*
X126771904Y-67266247D02*
X126724285Y-67171009D01*
X126724285Y-67171009D02*
X126676666Y-67123390D01*
X126676666Y-67123390D02*
X126581428Y-67075771D01*
X126581428Y-67075771D02*
X126390952Y-67075771D01*
X126390952Y-67075771D02*
X126295714Y-67123390D01*
X126295714Y-67123390D02*
X126248095Y-67171009D01*
X126248095Y-67171009D02*
X126200476Y-67266247D01*
X136244761Y-49540057D02*
X136149523Y-49492438D01*
X136149523Y-49492438D02*
X136054285Y-49397200D01*
X136054285Y-49397200D02*
X135911428Y-49254342D01*
X135911428Y-49254342D02*
X135816190Y-49206723D01*
X135816190Y-49206723D02*
X135720952Y-49206723D01*
X135768571Y-49444819D02*
X135673333Y-49397200D01*
X135673333Y-49397200D02*
X135578095Y-49301961D01*
X135578095Y-49301961D02*
X135530476Y-49111485D01*
X135530476Y-49111485D02*
X135530476Y-48778152D01*
X135530476Y-48778152D02*
X135578095Y-48587676D01*
X135578095Y-48587676D02*
X135673333Y-48492438D01*
X135673333Y-48492438D02*
X135768571Y-48444819D01*
X135768571Y-48444819D02*
X135959047Y-48444819D01*
X135959047Y-48444819D02*
X136054285Y-48492438D01*
X136054285Y-48492438D02*
X136149523Y-48587676D01*
X136149523Y-48587676D02*
X136197142Y-48778152D01*
X136197142Y-48778152D02*
X136197142Y-49111485D01*
X136197142Y-49111485D02*
X136149523Y-49301961D01*
X136149523Y-49301961D02*
X136054285Y-49397200D01*
X136054285Y-49397200D02*
X135959047Y-49444819D01*
X135959047Y-49444819D02*
X135768571Y-49444819D01*
X136578095Y-48540057D02*
X136625714Y-48492438D01*
X136625714Y-48492438D02*
X136720952Y-48444819D01*
X136720952Y-48444819D02*
X136959047Y-48444819D01*
X136959047Y-48444819D02*
X137054285Y-48492438D01*
X137054285Y-48492438D02*
X137101904Y-48540057D01*
X137101904Y-48540057D02*
X137149523Y-48635295D01*
X137149523Y-48635295D02*
X137149523Y-48730533D01*
X137149523Y-48730533D02*
X137101904Y-48873390D01*
X137101904Y-48873390D02*
X136530476Y-49444819D01*
X136530476Y-49444819D02*
X137149523Y-49444819D01*
X150882295Y-66114285D02*
X150501342Y-66380952D01*
X150882295Y-66571428D02*
X150082295Y-66571428D01*
X150082295Y-66571428D02*
X150082295Y-66266666D01*
X150082295Y-66266666D02*
X150120390Y-66190476D01*
X150120390Y-66190476D02*
X150158485Y-66152381D01*
X150158485Y-66152381D02*
X150234676Y-66114285D01*
X150234676Y-66114285D02*
X150348961Y-66114285D01*
X150348961Y-66114285D02*
X150425152Y-66152381D01*
X150425152Y-66152381D02*
X150463247Y-66190476D01*
X150463247Y-66190476D02*
X150501342Y-66266666D01*
X150501342Y-66266666D02*
X150501342Y-66571428D01*
X150882295Y-65352381D02*
X150882295Y-65809524D01*
X150882295Y-65580952D02*
X150082295Y-65580952D01*
X150082295Y-65580952D02*
X150196580Y-65657143D01*
X150196580Y-65657143D02*
X150272771Y-65733333D01*
X150272771Y-65733333D02*
X150310866Y-65809524D01*
X150082295Y-64666666D02*
X150082295Y-64819047D01*
X150082295Y-64819047D02*
X150120390Y-64895238D01*
X150120390Y-64895238D02*
X150158485Y-64933333D01*
X150158485Y-64933333D02*
X150272771Y-65009523D01*
X150272771Y-65009523D02*
X150425152Y-65047619D01*
X150425152Y-65047619D02*
X150729914Y-65047619D01*
X150729914Y-65047619D02*
X150806104Y-65009523D01*
X150806104Y-65009523D02*
X150844200Y-64971428D01*
X150844200Y-64971428D02*
X150882295Y-64895238D01*
X150882295Y-64895238D02*
X150882295Y-64742857D01*
X150882295Y-64742857D02*
X150844200Y-64666666D01*
X150844200Y-64666666D02*
X150806104Y-64628571D01*
X150806104Y-64628571D02*
X150729914Y-64590476D01*
X150729914Y-64590476D02*
X150539438Y-64590476D01*
X150539438Y-64590476D02*
X150463247Y-64628571D01*
X150463247Y-64628571D02*
X150425152Y-64666666D01*
X150425152Y-64666666D02*
X150387057Y-64742857D01*
X150387057Y-64742857D02*
X150387057Y-64895238D01*
X150387057Y-64895238D02*
X150425152Y-64971428D01*
X150425152Y-64971428D02*
X150463247Y-65009523D01*
X150463247Y-65009523D02*
X150539438Y-65047619D01*
X134954819Y-45991904D02*
X135764342Y-45991904D01*
X135764342Y-45991904D02*
X135859580Y-45944285D01*
X135859580Y-45944285D02*
X135907200Y-45896666D01*
X135907200Y-45896666D02*
X135954819Y-45801428D01*
X135954819Y-45801428D02*
X135954819Y-45610952D01*
X135954819Y-45610952D02*
X135907200Y-45515714D01*
X135907200Y-45515714D02*
X135859580Y-45468095D01*
X135859580Y-45468095D02*
X135764342Y-45420476D01*
X135764342Y-45420476D02*
X134954819Y-45420476D01*
X135954819Y-44420476D02*
X135954819Y-44991904D01*
X135954819Y-44706190D02*
X134954819Y-44706190D01*
X134954819Y-44706190D02*
X135097676Y-44801428D01*
X135097676Y-44801428D02*
X135192914Y-44896666D01*
X135192914Y-44896666D02*
X135240533Y-44991904D01*
X134202295Y-34604285D02*
X133821342Y-34870952D01*
X134202295Y-35061428D02*
X133402295Y-35061428D01*
X133402295Y-35061428D02*
X133402295Y-34756666D01*
X133402295Y-34756666D02*
X133440390Y-34680476D01*
X133440390Y-34680476D02*
X133478485Y-34642381D01*
X133478485Y-34642381D02*
X133554676Y-34604285D01*
X133554676Y-34604285D02*
X133668961Y-34604285D01*
X133668961Y-34604285D02*
X133745152Y-34642381D01*
X133745152Y-34642381D02*
X133783247Y-34680476D01*
X133783247Y-34680476D02*
X133821342Y-34756666D01*
X133821342Y-34756666D02*
X133821342Y-35061428D01*
X133478485Y-34299524D02*
X133440390Y-34261428D01*
X133440390Y-34261428D02*
X133402295Y-34185238D01*
X133402295Y-34185238D02*
X133402295Y-33994762D01*
X133402295Y-33994762D02*
X133440390Y-33918571D01*
X133440390Y-33918571D02*
X133478485Y-33880476D01*
X133478485Y-33880476D02*
X133554676Y-33842381D01*
X133554676Y-33842381D02*
X133630866Y-33842381D01*
X133630866Y-33842381D02*
X133745152Y-33880476D01*
X133745152Y-33880476D02*
X134202295Y-34337619D01*
X134202295Y-34337619D02*
X134202295Y-33842381D01*
X133745152Y-33385238D02*
X133707057Y-33461428D01*
X133707057Y-33461428D02*
X133668961Y-33499523D01*
X133668961Y-33499523D02*
X133592771Y-33537619D01*
X133592771Y-33537619D02*
X133554676Y-33537619D01*
X133554676Y-33537619D02*
X133478485Y-33499523D01*
X133478485Y-33499523D02*
X133440390Y-33461428D01*
X133440390Y-33461428D02*
X133402295Y-33385238D01*
X133402295Y-33385238D02*
X133402295Y-33232857D01*
X133402295Y-33232857D02*
X133440390Y-33156666D01*
X133440390Y-33156666D02*
X133478485Y-33118571D01*
X133478485Y-33118571D02*
X133554676Y-33080476D01*
X133554676Y-33080476D02*
X133592771Y-33080476D01*
X133592771Y-33080476D02*
X133668961Y-33118571D01*
X133668961Y-33118571D02*
X133707057Y-33156666D01*
X133707057Y-33156666D02*
X133745152Y-33232857D01*
X133745152Y-33232857D02*
X133745152Y-33385238D01*
X133745152Y-33385238D02*
X133783247Y-33461428D01*
X133783247Y-33461428D02*
X133821342Y-33499523D01*
X133821342Y-33499523D02*
X133897533Y-33537619D01*
X133897533Y-33537619D02*
X134049914Y-33537619D01*
X134049914Y-33537619D02*
X134126104Y-33499523D01*
X134126104Y-33499523D02*
X134164200Y-33461428D01*
X134164200Y-33461428D02*
X134202295Y-33385238D01*
X134202295Y-33385238D02*
X134202295Y-33232857D01*
X134202295Y-33232857D02*
X134164200Y-33156666D01*
X134164200Y-33156666D02*
X134126104Y-33118571D01*
X134126104Y-33118571D02*
X134049914Y-33080476D01*
X134049914Y-33080476D02*
X133897533Y-33080476D01*
X133897533Y-33080476D02*
X133821342Y-33118571D01*
X133821342Y-33118571D02*
X133783247Y-33156666D01*
X133783247Y-33156666D02*
X133745152Y-33232857D01*
X117837142Y-68859580D02*
X117789523Y-68907200D01*
X117789523Y-68907200D02*
X117646666Y-68954819D01*
X117646666Y-68954819D02*
X117551428Y-68954819D01*
X117551428Y-68954819D02*
X117408571Y-68907200D01*
X117408571Y-68907200D02*
X117313333Y-68811961D01*
X117313333Y-68811961D02*
X117265714Y-68716723D01*
X117265714Y-68716723D02*
X117218095Y-68526247D01*
X117218095Y-68526247D02*
X117218095Y-68383390D01*
X117218095Y-68383390D02*
X117265714Y-68192914D01*
X117265714Y-68192914D02*
X117313333Y-68097676D01*
X117313333Y-68097676D02*
X117408571Y-68002438D01*
X117408571Y-68002438D02*
X117551428Y-67954819D01*
X117551428Y-67954819D02*
X117646666Y-67954819D01*
X117646666Y-67954819D02*
X117789523Y-68002438D01*
X117789523Y-68002438D02*
X117837142Y-68050057D01*
X118170476Y-67954819D02*
X118789523Y-67954819D01*
X118789523Y-67954819D02*
X118456190Y-68335771D01*
X118456190Y-68335771D02*
X118599047Y-68335771D01*
X118599047Y-68335771D02*
X118694285Y-68383390D01*
X118694285Y-68383390D02*
X118741904Y-68431009D01*
X118741904Y-68431009D02*
X118789523Y-68526247D01*
X118789523Y-68526247D02*
X118789523Y-68764342D01*
X118789523Y-68764342D02*
X118741904Y-68859580D01*
X118741904Y-68859580D02*
X118694285Y-68907200D01*
X118694285Y-68907200D02*
X118599047Y-68954819D01*
X118599047Y-68954819D02*
X118313333Y-68954819D01*
X118313333Y-68954819D02*
X118218095Y-68907200D01*
X118218095Y-68907200D02*
X118170476Y-68859580D01*
X119408571Y-67954819D02*
X119503809Y-67954819D01*
X119503809Y-67954819D02*
X119599047Y-68002438D01*
X119599047Y-68002438D02*
X119646666Y-68050057D01*
X119646666Y-68050057D02*
X119694285Y-68145295D01*
X119694285Y-68145295D02*
X119741904Y-68335771D01*
X119741904Y-68335771D02*
X119741904Y-68573866D01*
X119741904Y-68573866D02*
X119694285Y-68764342D01*
X119694285Y-68764342D02*
X119646666Y-68859580D01*
X119646666Y-68859580D02*
X119599047Y-68907200D01*
X119599047Y-68907200D02*
X119503809Y-68954819D01*
X119503809Y-68954819D02*
X119408571Y-68954819D01*
X119408571Y-68954819D02*
X119313333Y-68907200D01*
X119313333Y-68907200D02*
X119265714Y-68859580D01*
X119265714Y-68859580D02*
X119218095Y-68764342D01*
X119218095Y-68764342D02*
X119170476Y-68573866D01*
X119170476Y-68573866D02*
X119170476Y-68335771D01*
X119170476Y-68335771D02*
X119218095Y-68145295D01*
X119218095Y-68145295D02*
X119265714Y-68050057D01*
X119265714Y-68050057D02*
X119313333Y-68002438D01*
X119313333Y-68002438D02*
X119408571Y-67954819D01*
X133212295Y-34574285D02*
X132831342Y-34840952D01*
X133212295Y-35031428D02*
X132412295Y-35031428D01*
X132412295Y-35031428D02*
X132412295Y-34726666D01*
X132412295Y-34726666D02*
X132450390Y-34650476D01*
X132450390Y-34650476D02*
X132488485Y-34612381D01*
X132488485Y-34612381D02*
X132564676Y-34574285D01*
X132564676Y-34574285D02*
X132678961Y-34574285D01*
X132678961Y-34574285D02*
X132755152Y-34612381D01*
X132755152Y-34612381D02*
X132793247Y-34650476D01*
X132793247Y-34650476D02*
X132831342Y-34726666D01*
X132831342Y-34726666D02*
X132831342Y-35031428D01*
X132488485Y-34269524D02*
X132450390Y-34231428D01*
X132450390Y-34231428D02*
X132412295Y-34155238D01*
X132412295Y-34155238D02*
X132412295Y-33964762D01*
X132412295Y-33964762D02*
X132450390Y-33888571D01*
X132450390Y-33888571D02*
X132488485Y-33850476D01*
X132488485Y-33850476D02*
X132564676Y-33812381D01*
X132564676Y-33812381D02*
X132640866Y-33812381D01*
X132640866Y-33812381D02*
X132755152Y-33850476D01*
X132755152Y-33850476D02*
X133212295Y-34307619D01*
X133212295Y-34307619D02*
X133212295Y-33812381D01*
X133212295Y-33431428D02*
X133212295Y-33279047D01*
X133212295Y-33279047D02*
X133174200Y-33202857D01*
X133174200Y-33202857D02*
X133136104Y-33164761D01*
X133136104Y-33164761D02*
X133021819Y-33088571D01*
X133021819Y-33088571D02*
X132869438Y-33050476D01*
X132869438Y-33050476D02*
X132564676Y-33050476D01*
X132564676Y-33050476D02*
X132488485Y-33088571D01*
X132488485Y-33088571D02*
X132450390Y-33126666D01*
X132450390Y-33126666D02*
X132412295Y-33202857D01*
X132412295Y-33202857D02*
X132412295Y-33355238D01*
X132412295Y-33355238D02*
X132450390Y-33431428D01*
X132450390Y-33431428D02*
X132488485Y-33469523D01*
X132488485Y-33469523D02*
X132564676Y-33507619D01*
X132564676Y-33507619D02*
X132755152Y-33507619D01*
X132755152Y-33507619D02*
X132831342Y-33469523D01*
X132831342Y-33469523D02*
X132869438Y-33431428D01*
X132869438Y-33431428D02*
X132907533Y-33355238D01*
X132907533Y-33355238D02*
X132907533Y-33202857D01*
X132907533Y-33202857D02*
X132869438Y-33126666D01*
X132869438Y-33126666D02*
X132831342Y-33088571D01*
X132831342Y-33088571D02*
X132755152Y-33050476D01*
X119747142Y-76104819D02*
X119413809Y-75628628D01*
X119175714Y-76104819D02*
X119175714Y-75104819D01*
X119175714Y-75104819D02*
X119556666Y-75104819D01*
X119556666Y-75104819D02*
X119651904Y-75152438D01*
X119651904Y-75152438D02*
X119699523Y-75200057D01*
X119699523Y-75200057D02*
X119747142Y-75295295D01*
X119747142Y-75295295D02*
X119747142Y-75438152D01*
X119747142Y-75438152D02*
X119699523Y-75533390D01*
X119699523Y-75533390D02*
X119651904Y-75581009D01*
X119651904Y-75581009D02*
X119556666Y-75628628D01*
X119556666Y-75628628D02*
X119175714Y-75628628D01*
X120080476Y-75104819D02*
X120699523Y-75104819D01*
X120699523Y-75104819D02*
X120366190Y-75485771D01*
X120366190Y-75485771D02*
X120509047Y-75485771D01*
X120509047Y-75485771D02*
X120604285Y-75533390D01*
X120604285Y-75533390D02*
X120651904Y-75581009D01*
X120651904Y-75581009D02*
X120699523Y-75676247D01*
X120699523Y-75676247D02*
X120699523Y-75914342D01*
X120699523Y-75914342D02*
X120651904Y-76009580D01*
X120651904Y-76009580D02*
X120604285Y-76057200D01*
X120604285Y-76057200D02*
X120509047Y-76104819D01*
X120509047Y-76104819D02*
X120223333Y-76104819D01*
X120223333Y-76104819D02*
X120128095Y-76057200D01*
X120128095Y-76057200D02*
X120080476Y-76009580D01*
X121032857Y-75104819D02*
X121699523Y-75104819D01*
X121699523Y-75104819D02*
X121270952Y-76104819D01*
X131677142Y-64534819D02*
X131343809Y-64058628D01*
X131105714Y-64534819D02*
X131105714Y-63534819D01*
X131105714Y-63534819D02*
X131486666Y-63534819D01*
X131486666Y-63534819D02*
X131581904Y-63582438D01*
X131581904Y-63582438D02*
X131629523Y-63630057D01*
X131629523Y-63630057D02*
X131677142Y-63725295D01*
X131677142Y-63725295D02*
X131677142Y-63868152D01*
X131677142Y-63868152D02*
X131629523Y-63963390D01*
X131629523Y-63963390D02*
X131581904Y-64011009D01*
X131581904Y-64011009D02*
X131486666Y-64058628D01*
X131486666Y-64058628D02*
X131105714Y-64058628D01*
X132058095Y-63630057D02*
X132105714Y-63582438D01*
X132105714Y-63582438D02*
X132200952Y-63534819D01*
X132200952Y-63534819D02*
X132439047Y-63534819D01*
X132439047Y-63534819D02*
X132534285Y-63582438D01*
X132534285Y-63582438D02*
X132581904Y-63630057D01*
X132581904Y-63630057D02*
X132629523Y-63725295D01*
X132629523Y-63725295D02*
X132629523Y-63820533D01*
X132629523Y-63820533D02*
X132581904Y-63963390D01*
X132581904Y-63963390D02*
X132010476Y-64534819D01*
X132010476Y-64534819D02*
X132629523Y-64534819D01*
X133581904Y-64534819D02*
X133010476Y-64534819D01*
X133296190Y-64534819D02*
X133296190Y-63534819D01*
X133296190Y-63534819D02*
X133200952Y-63677676D01*
X133200952Y-63677676D02*
X133105714Y-63772914D01*
X133105714Y-63772914D02*
X133010476Y-63820533D01*
X136444761Y-66920057D02*
X136349523Y-66872438D01*
X136349523Y-66872438D02*
X136254285Y-66777200D01*
X136254285Y-66777200D02*
X136111428Y-66634342D01*
X136111428Y-66634342D02*
X136016190Y-66586723D01*
X136016190Y-66586723D02*
X135920952Y-66586723D01*
X135968571Y-66824819D02*
X135873333Y-66777200D01*
X135873333Y-66777200D02*
X135778095Y-66681961D01*
X135778095Y-66681961D02*
X135730476Y-66491485D01*
X135730476Y-66491485D02*
X135730476Y-66158152D01*
X135730476Y-66158152D02*
X135778095Y-65967676D01*
X135778095Y-65967676D02*
X135873333Y-65872438D01*
X135873333Y-65872438D02*
X135968571Y-65824819D01*
X135968571Y-65824819D02*
X136159047Y-65824819D01*
X136159047Y-65824819D02*
X136254285Y-65872438D01*
X136254285Y-65872438D02*
X136349523Y-65967676D01*
X136349523Y-65967676D02*
X136397142Y-66158152D01*
X136397142Y-66158152D02*
X136397142Y-66491485D01*
X136397142Y-66491485D02*
X136349523Y-66681961D01*
X136349523Y-66681961D02*
X136254285Y-66777200D01*
X136254285Y-66777200D02*
X136159047Y-66824819D01*
X136159047Y-66824819D02*
X135968571Y-66824819D01*
X137301904Y-65824819D02*
X136825714Y-65824819D01*
X136825714Y-65824819D02*
X136778095Y-66301009D01*
X136778095Y-66301009D02*
X136825714Y-66253390D01*
X136825714Y-66253390D02*
X136920952Y-66205771D01*
X136920952Y-66205771D02*
X137159047Y-66205771D01*
X137159047Y-66205771D02*
X137254285Y-66253390D01*
X137254285Y-66253390D02*
X137301904Y-66301009D01*
X137301904Y-66301009D02*
X137349523Y-66396247D01*
X137349523Y-66396247D02*
X137349523Y-66634342D01*
X137349523Y-66634342D02*
X137301904Y-66729580D01*
X137301904Y-66729580D02*
X137254285Y-66777200D01*
X137254285Y-66777200D02*
X137159047Y-66824819D01*
X137159047Y-66824819D02*
X136920952Y-66824819D01*
X136920952Y-66824819D02*
X136825714Y-66777200D01*
X136825714Y-66777200D02*
X136778095Y-66729580D01*
X137186104Y-34553332D02*
X137224200Y-34591428D01*
X137224200Y-34591428D02*
X137262295Y-34705713D01*
X137262295Y-34705713D02*
X137262295Y-34781904D01*
X137262295Y-34781904D02*
X137224200Y-34896190D01*
X137224200Y-34896190D02*
X137148009Y-34972380D01*
X137148009Y-34972380D02*
X137071819Y-35010475D01*
X137071819Y-35010475D02*
X136919438Y-35048571D01*
X136919438Y-35048571D02*
X136805152Y-35048571D01*
X136805152Y-35048571D02*
X136652771Y-35010475D01*
X136652771Y-35010475D02*
X136576580Y-34972380D01*
X136576580Y-34972380D02*
X136500390Y-34896190D01*
X136500390Y-34896190D02*
X136462295Y-34781904D01*
X136462295Y-34781904D02*
X136462295Y-34705713D01*
X136462295Y-34705713D02*
X136500390Y-34591428D01*
X136500390Y-34591428D02*
X136538485Y-34553332D01*
X137262295Y-33791428D02*
X137262295Y-34248571D01*
X137262295Y-34019999D02*
X136462295Y-34019999D01*
X136462295Y-34019999D02*
X136576580Y-34096190D01*
X136576580Y-34096190D02*
X136652771Y-34172380D01*
X136652771Y-34172380D02*
X136690866Y-34248571D01*
X144484761Y-66950057D02*
X144389523Y-66902438D01*
X144389523Y-66902438D02*
X144294285Y-66807200D01*
X144294285Y-66807200D02*
X144151428Y-66664342D01*
X144151428Y-66664342D02*
X144056190Y-66616723D01*
X144056190Y-66616723D02*
X143960952Y-66616723D01*
X144008571Y-66854819D02*
X143913333Y-66807200D01*
X143913333Y-66807200D02*
X143818095Y-66711961D01*
X143818095Y-66711961D02*
X143770476Y-66521485D01*
X143770476Y-66521485D02*
X143770476Y-66188152D01*
X143770476Y-66188152D02*
X143818095Y-65997676D01*
X143818095Y-65997676D02*
X143913333Y-65902438D01*
X143913333Y-65902438D02*
X144008571Y-65854819D01*
X144008571Y-65854819D02*
X144199047Y-65854819D01*
X144199047Y-65854819D02*
X144294285Y-65902438D01*
X144294285Y-65902438D02*
X144389523Y-65997676D01*
X144389523Y-65997676D02*
X144437142Y-66188152D01*
X144437142Y-66188152D02*
X144437142Y-66521485D01*
X144437142Y-66521485D02*
X144389523Y-66711961D01*
X144389523Y-66711961D02*
X144294285Y-66807200D01*
X144294285Y-66807200D02*
X144199047Y-66854819D01*
X144199047Y-66854819D02*
X144008571Y-66854819D01*
X145294285Y-66188152D02*
X145294285Y-66854819D01*
X145056190Y-65807200D02*
X144818095Y-66521485D01*
X144818095Y-66521485D02*
X145437142Y-66521485D01*
X139646667Y-36322295D02*
X139380000Y-35941342D01*
X139189524Y-36322295D02*
X139189524Y-35522295D01*
X139189524Y-35522295D02*
X139494286Y-35522295D01*
X139494286Y-35522295D02*
X139570476Y-35560390D01*
X139570476Y-35560390D02*
X139608571Y-35598485D01*
X139608571Y-35598485D02*
X139646667Y-35674676D01*
X139646667Y-35674676D02*
X139646667Y-35788961D01*
X139646667Y-35788961D02*
X139608571Y-35865152D01*
X139608571Y-35865152D02*
X139570476Y-35903247D01*
X139570476Y-35903247D02*
X139494286Y-35941342D01*
X139494286Y-35941342D02*
X139189524Y-35941342D01*
X140408571Y-36322295D02*
X139951428Y-36322295D01*
X140180000Y-36322295D02*
X140180000Y-35522295D01*
X140180000Y-35522295D02*
X140103809Y-35636580D01*
X140103809Y-35636580D02*
X140027619Y-35712771D01*
X140027619Y-35712771D02*
X139951428Y-35750866D01*
X110027142Y-68889580D02*
X109979523Y-68937200D01*
X109979523Y-68937200D02*
X109836666Y-68984819D01*
X109836666Y-68984819D02*
X109741428Y-68984819D01*
X109741428Y-68984819D02*
X109598571Y-68937200D01*
X109598571Y-68937200D02*
X109503333Y-68841961D01*
X109503333Y-68841961D02*
X109455714Y-68746723D01*
X109455714Y-68746723D02*
X109408095Y-68556247D01*
X109408095Y-68556247D02*
X109408095Y-68413390D01*
X109408095Y-68413390D02*
X109455714Y-68222914D01*
X109455714Y-68222914D02*
X109503333Y-68127676D01*
X109503333Y-68127676D02*
X109598571Y-68032438D01*
X109598571Y-68032438D02*
X109741428Y-67984819D01*
X109741428Y-67984819D02*
X109836666Y-67984819D01*
X109836666Y-67984819D02*
X109979523Y-68032438D01*
X109979523Y-68032438D02*
X110027142Y-68080057D01*
X110360476Y-67984819D02*
X110979523Y-67984819D01*
X110979523Y-67984819D02*
X110646190Y-68365771D01*
X110646190Y-68365771D02*
X110789047Y-68365771D01*
X110789047Y-68365771D02*
X110884285Y-68413390D01*
X110884285Y-68413390D02*
X110931904Y-68461009D01*
X110931904Y-68461009D02*
X110979523Y-68556247D01*
X110979523Y-68556247D02*
X110979523Y-68794342D01*
X110979523Y-68794342D02*
X110931904Y-68889580D01*
X110931904Y-68889580D02*
X110884285Y-68937200D01*
X110884285Y-68937200D02*
X110789047Y-68984819D01*
X110789047Y-68984819D02*
X110503333Y-68984819D01*
X110503333Y-68984819D02*
X110408095Y-68937200D01*
X110408095Y-68937200D02*
X110360476Y-68889580D01*
X111931904Y-68984819D02*
X111360476Y-68984819D01*
X111646190Y-68984819D02*
X111646190Y-67984819D01*
X111646190Y-67984819D02*
X111550952Y-68127676D01*
X111550952Y-68127676D02*
X111455714Y-68222914D01*
X111455714Y-68222914D02*
X111360476Y-68270533D01*
X143543809Y-48418485D02*
X143467619Y-48380390D01*
X143467619Y-48380390D02*
X143391428Y-48304200D01*
X143391428Y-48304200D02*
X143277142Y-48189914D01*
X143277142Y-48189914D02*
X143200952Y-48151819D01*
X143200952Y-48151819D02*
X143124761Y-48151819D01*
X143162857Y-48342295D02*
X143086666Y-48304200D01*
X143086666Y-48304200D02*
X143010476Y-48228009D01*
X143010476Y-48228009D02*
X142972380Y-48075628D01*
X142972380Y-48075628D02*
X142972380Y-47808961D01*
X142972380Y-47808961D02*
X143010476Y-47656580D01*
X143010476Y-47656580D02*
X143086666Y-47580390D01*
X143086666Y-47580390D02*
X143162857Y-47542295D01*
X143162857Y-47542295D02*
X143315238Y-47542295D01*
X143315238Y-47542295D02*
X143391428Y-47580390D01*
X143391428Y-47580390D02*
X143467619Y-47656580D01*
X143467619Y-47656580D02*
X143505714Y-47808961D01*
X143505714Y-47808961D02*
X143505714Y-48075628D01*
X143505714Y-48075628D02*
X143467619Y-48228009D01*
X143467619Y-48228009D02*
X143391428Y-48304200D01*
X143391428Y-48304200D02*
X143315238Y-48342295D01*
X143315238Y-48342295D02*
X143162857Y-48342295D01*
X144267618Y-48342295D02*
X143810475Y-48342295D01*
X144039047Y-48342295D02*
X144039047Y-47542295D01*
X144039047Y-47542295D02*
X143962856Y-47656580D01*
X143962856Y-47656580D02*
X143886666Y-47732771D01*
X143886666Y-47732771D02*
X143810475Y-47770866D01*
X135156104Y-34554285D02*
X135194200Y-34592381D01*
X135194200Y-34592381D02*
X135232295Y-34706666D01*
X135232295Y-34706666D02*
X135232295Y-34782857D01*
X135232295Y-34782857D02*
X135194200Y-34897143D01*
X135194200Y-34897143D02*
X135118009Y-34973333D01*
X135118009Y-34973333D02*
X135041819Y-35011428D01*
X135041819Y-35011428D02*
X134889438Y-35049524D01*
X134889438Y-35049524D02*
X134775152Y-35049524D01*
X134775152Y-35049524D02*
X134622771Y-35011428D01*
X134622771Y-35011428D02*
X134546580Y-34973333D01*
X134546580Y-34973333D02*
X134470390Y-34897143D01*
X134470390Y-34897143D02*
X134432295Y-34782857D01*
X134432295Y-34782857D02*
X134432295Y-34706666D01*
X134432295Y-34706666D02*
X134470390Y-34592381D01*
X134470390Y-34592381D02*
X134508485Y-34554285D01*
X134508485Y-34249524D02*
X134470390Y-34211428D01*
X134470390Y-34211428D02*
X134432295Y-34135238D01*
X134432295Y-34135238D02*
X134432295Y-33944762D01*
X134432295Y-33944762D02*
X134470390Y-33868571D01*
X134470390Y-33868571D02*
X134508485Y-33830476D01*
X134508485Y-33830476D02*
X134584676Y-33792381D01*
X134584676Y-33792381D02*
X134660866Y-33792381D01*
X134660866Y-33792381D02*
X134775152Y-33830476D01*
X134775152Y-33830476D02*
X135232295Y-34287619D01*
X135232295Y-34287619D02*
X135232295Y-33792381D01*
X134698961Y-33106666D02*
X135232295Y-33106666D01*
X134394200Y-33297142D02*
X134965628Y-33487619D01*
X134965628Y-33487619D02*
X134965628Y-32992380D01*
X113847142Y-68889580D02*
X113799523Y-68937200D01*
X113799523Y-68937200D02*
X113656666Y-68984819D01*
X113656666Y-68984819D02*
X113561428Y-68984819D01*
X113561428Y-68984819D02*
X113418571Y-68937200D01*
X113418571Y-68937200D02*
X113323333Y-68841961D01*
X113323333Y-68841961D02*
X113275714Y-68746723D01*
X113275714Y-68746723D02*
X113228095Y-68556247D01*
X113228095Y-68556247D02*
X113228095Y-68413390D01*
X113228095Y-68413390D02*
X113275714Y-68222914D01*
X113275714Y-68222914D02*
X113323333Y-68127676D01*
X113323333Y-68127676D02*
X113418571Y-68032438D01*
X113418571Y-68032438D02*
X113561428Y-67984819D01*
X113561428Y-67984819D02*
X113656666Y-67984819D01*
X113656666Y-67984819D02*
X113799523Y-68032438D01*
X113799523Y-68032438D02*
X113847142Y-68080057D01*
X114180476Y-67984819D02*
X114799523Y-67984819D01*
X114799523Y-67984819D02*
X114466190Y-68365771D01*
X114466190Y-68365771D02*
X114609047Y-68365771D01*
X114609047Y-68365771D02*
X114704285Y-68413390D01*
X114704285Y-68413390D02*
X114751904Y-68461009D01*
X114751904Y-68461009D02*
X114799523Y-68556247D01*
X114799523Y-68556247D02*
X114799523Y-68794342D01*
X114799523Y-68794342D02*
X114751904Y-68889580D01*
X114751904Y-68889580D02*
X114704285Y-68937200D01*
X114704285Y-68937200D02*
X114609047Y-68984819D01*
X114609047Y-68984819D02*
X114323333Y-68984819D01*
X114323333Y-68984819D02*
X114228095Y-68937200D01*
X114228095Y-68937200D02*
X114180476Y-68889580D01*
X115180476Y-68080057D02*
X115228095Y-68032438D01*
X115228095Y-68032438D02*
X115323333Y-67984819D01*
X115323333Y-67984819D02*
X115561428Y-67984819D01*
X115561428Y-67984819D02*
X115656666Y-68032438D01*
X115656666Y-68032438D02*
X115704285Y-68080057D01*
X115704285Y-68080057D02*
X115751904Y-68175295D01*
X115751904Y-68175295D02*
X115751904Y-68270533D01*
X115751904Y-68270533D02*
X115704285Y-68413390D01*
X115704285Y-68413390D02*
X115132857Y-68984819D01*
X115132857Y-68984819D02*
X115751904Y-68984819D01*
X145387142Y-74684819D02*
X145053809Y-74208628D01*
X144815714Y-74684819D02*
X144815714Y-73684819D01*
X144815714Y-73684819D02*
X145196666Y-73684819D01*
X145196666Y-73684819D02*
X145291904Y-73732438D01*
X145291904Y-73732438D02*
X145339523Y-73780057D01*
X145339523Y-73780057D02*
X145387142Y-73875295D01*
X145387142Y-73875295D02*
X145387142Y-74018152D01*
X145387142Y-74018152D02*
X145339523Y-74113390D01*
X145339523Y-74113390D02*
X145291904Y-74161009D01*
X145291904Y-74161009D02*
X145196666Y-74208628D01*
X145196666Y-74208628D02*
X144815714Y-74208628D01*
X146339523Y-74684819D02*
X145768095Y-74684819D01*
X146053809Y-74684819D02*
X146053809Y-73684819D01*
X146053809Y-73684819D02*
X145958571Y-73827676D01*
X145958571Y-73827676D02*
X145863333Y-73922914D01*
X145863333Y-73922914D02*
X145768095Y-73970533D01*
X147244285Y-73684819D02*
X146768095Y-73684819D01*
X146768095Y-73684819D02*
X146720476Y-74161009D01*
X146720476Y-74161009D02*
X146768095Y-74113390D01*
X146768095Y-74113390D02*
X146863333Y-74065771D01*
X146863333Y-74065771D02*
X147101428Y-74065771D01*
X147101428Y-74065771D02*
X147196666Y-74113390D01*
X147196666Y-74113390D02*
X147244285Y-74161009D01*
X147244285Y-74161009D02*
X147291904Y-74256247D01*
X147291904Y-74256247D02*
X147291904Y-74494342D01*
X147291904Y-74494342D02*
X147244285Y-74589580D01*
X147244285Y-74589580D02*
X147196666Y-74637200D01*
X147196666Y-74637200D02*
X147101428Y-74684819D01*
X147101428Y-74684819D02*
X146863333Y-74684819D01*
X146863333Y-74684819D02*
X146768095Y-74637200D01*
X146768095Y-74637200D02*
X146720476Y-74589580D01*
D11*
X103916666Y-40957419D02*
X103916666Y-41671704D01*
X103916666Y-41671704D02*
X103869047Y-41814561D01*
X103869047Y-41814561D02*
X103773809Y-41909800D01*
X103773809Y-41909800D02*
X103630952Y-41957419D01*
X103630952Y-41957419D02*
X103535714Y-41957419D01*
X104345238Y-41052657D02*
X104392857Y-41005038D01*
X104392857Y-41005038D02*
X104488095Y-40957419D01*
X104488095Y-40957419D02*
X104726190Y-40957419D01*
X104726190Y-40957419D02*
X104821428Y-41005038D01*
X104821428Y-41005038D02*
X104869047Y-41052657D01*
X104869047Y-41052657D02*
X104916666Y-41147895D01*
X104916666Y-41147895D02*
X104916666Y-41243133D01*
X104916666Y-41243133D02*
X104869047Y-41385990D01*
X104869047Y-41385990D02*
X104297619Y-41957419D01*
X104297619Y-41957419D02*
X104916666Y-41957419D01*
D10*
X137694819Y-73182857D02*
X137218628Y-73516190D01*
X137694819Y-73754285D02*
X136694819Y-73754285D01*
X136694819Y-73754285D02*
X136694819Y-73373333D01*
X136694819Y-73373333D02*
X136742438Y-73278095D01*
X136742438Y-73278095D02*
X136790057Y-73230476D01*
X136790057Y-73230476D02*
X136885295Y-73182857D01*
X136885295Y-73182857D02*
X137028152Y-73182857D01*
X137028152Y-73182857D02*
X137123390Y-73230476D01*
X137123390Y-73230476D02*
X137171009Y-73278095D01*
X137171009Y-73278095D02*
X137218628Y-73373333D01*
X137218628Y-73373333D02*
X137218628Y-73754285D01*
X137694819Y-72230476D02*
X137694819Y-72801904D01*
X137694819Y-72516190D02*
X136694819Y-72516190D01*
X136694819Y-72516190D02*
X136837676Y-72611428D01*
X136837676Y-72611428D02*
X136932914Y-72706666D01*
X136932914Y-72706666D02*
X136980533Y-72801904D01*
X137123390Y-71659047D02*
X137075771Y-71754285D01*
X137075771Y-71754285D02*
X137028152Y-71801904D01*
X137028152Y-71801904D02*
X136932914Y-71849523D01*
X136932914Y-71849523D02*
X136885295Y-71849523D01*
X136885295Y-71849523D02*
X136790057Y-71801904D01*
X136790057Y-71801904D02*
X136742438Y-71754285D01*
X136742438Y-71754285D02*
X136694819Y-71659047D01*
X136694819Y-71659047D02*
X136694819Y-71468571D01*
X136694819Y-71468571D02*
X136742438Y-71373333D01*
X136742438Y-71373333D02*
X136790057Y-71325714D01*
X136790057Y-71325714D02*
X136885295Y-71278095D01*
X136885295Y-71278095D02*
X136932914Y-71278095D01*
X136932914Y-71278095D02*
X137028152Y-71325714D01*
X137028152Y-71325714D02*
X137075771Y-71373333D01*
X137075771Y-71373333D02*
X137123390Y-71468571D01*
X137123390Y-71468571D02*
X137123390Y-71659047D01*
X137123390Y-71659047D02*
X137171009Y-71754285D01*
X137171009Y-71754285D02*
X137218628Y-71801904D01*
X137218628Y-71801904D02*
X137313866Y-71849523D01*
X137313866Y-71849523D02*
X137504342Y-71849523D01*
X137504342Y-71849523D02*
X137599580Y-71801904D01*
X137599580Y-71801904D02*
X137647200Y-71754285D01*
X137647200Y-71754285D02*
X137694819Y-71659047D01*
X137694819Y-71659047D02*
X137694819Y-71468571D01*
X137694819Y-71468571D02*
X137647200Y-71373333D01*
X137647200Y-71373333D02*
X137599580Y-71325714D01*
X137599580Y-71325714D02*
X137504342Y-71278095D01*
X137504342Y-71278095D02*
X137313866Y-71278095D01*
X137313866Y-71278095D02*
X137218628Y-71325714D01*
X137218628Y-71325714D02*
X137171009Y-71373333D01*
X137171009Y-71373333D02*
X137123390Y-71468571D01*
X137366667Y-38312295D02*
X137100000Y-37931342D01*
X136909524Y-38312295D02*
X136909524Y-37512295D01*
X136909524Y-37512295D02*
X137214286Y-37512295D01*
X137214286Y-37512295D02*
X137290476Y-37550390D01*
X137290476Y-37550390D02*
X137328571Y-37588485D01*
X137328571Y-37588485D02*
X137366667Y-37664676D01*
X137366667Y-37664676D02*
X137366667Y-37778961D01*
X137366667Y-37778961D02*
X137328571Y-37855152D01*
X137328571Y-37855152D02*
X137290476Y-37893247D01*
X137290476Y-37893247D02*
X137214286Y-37931342D01*
X137214286Y-37931342D02*
X136909524Y-37931342D01*
X138052381Y-37778961D02*
X138052381Y-38312295D01*
X137861905Y-37474200D02*
X137671428Y-38045628D01*
X137671428Y-38045628D02*
X138166667Y-38045628D01*
X140085714Y-47886104D02*
X140047618Y-47924200D01*
X140047618Y-47924200D02*
X139933333Y-47962295D01*
X139933333Y-47962295D02*
X139857142Y-47962295D01*
X139857142Y-47962295D02*
X139742856Y-47924200D01*
X139742856Y-47924200D02*
X139666666Y-47848009D01*
X139666666Y-47848009D02*
X139628571Y-47771819D01*
X139628571Y-47771819D02*
X139590475Y-47619438D01*
X139590475Y-47619438D02*
X139590475Y-47505152D01*
X139590475Y-47505152D02*
X139628571Y-47352771D01*
X139628571Y-47352771D02*
X139666666Y-47276580D01*
X139666666Y-47276580D02*
X139742856Y-47200390D01*
X139742856Y-47200390D02*
X139857142Y-47162295D01*
X139857142Y-47162295D02*
X139933333Y-47162295D01*
X139933333Y-47162295D02*
X140047618Y-47200390D01*
X140047618Y-47200390D02*
X140085714Y-47238485D01*
X140847618Y-47962295D02*
X140390475Y-47962295D01*
X140619047Y-47962295D02*
X140619047Y-47162295D01*
X140619047Y-47162295D02*
X140542856Y-47276580D01*
X140542856Y-47276580D02*
X140466666Y-47352771D01*
X140466666Y-47352771D02*
X140390475Y-47390866D01*
X141342857Y-47162295D02*
X141419047Y-47162295D01*
X141419047Y-47162295D02*
X141495238Y-47200390D01*
X141495238Y-47200390D02*
X141533333Y-47238485D01*
X141533333Y-47238485D02*
X141571428Y-47314676D01*
X141571428Y-47314676D02*
X141609523Y-47467057D01*
X141609523Y-47467057D02*
X141609523Y-47657533D01*
X141609523Y-47657533D02*
X141571428Y-47809914D01*
X141571428Y-47809914D02*
X141533333Y-47886104D01*
X141533333Y-47886104D02*
X141495238Y-47924200D01*
X141495238Y-47924200D02*
X141419047Y-47962295D01*
X141419047Y-47962295D02*
X141342857Y-47962295D01*
X141342857Y-47962295D02*
X141266666Y-47924200D01*
X141266666Y-47924200D02*
X141228571Y-47886104D01*
X141228571Y-47886104D02*
X141190476Y-47809914D01*
X141190476Y-47809914D02*
X141152380Y-47657533D01*
X141152380Y-47657533D02*
X141152380Y-47467057D01*
X141152380Y-47467057D02*
X141190476Y-47314676D01*
X141190476Y-47314676D02*
X141228571Y-47238485D01*
X141228571Y-47238485D02*
X141266666Y-47200390D01*
X141266666Y-47200390D02*
X141342857Y-47162295D01*
X109374761Y-62320057D02*
X109279523Y-62272438D01*
X109279523Y-62272438D02*
X109184285Y-62177200D01*
X109184285Y-62177200D02*
X109041428Y-62034342D01*
X109041428Y-62034342D02*
X108946190Y-61986723D01*
X108946190Y-61986723D02*
X108850952Y-61986723D01*
X108898571Y-62224819D02*
X108803333Y-62177200D01*
X108803333Y-62177200D02*
X108708095Y-62081961D01*
X108708095Y-62081961D02*
X108660476Y-61891485D01*
X108660476Y-61891485D02*
X108660476Y-61558152D01*
X108660476Y-61558152D02*
X108708095Y-61367676D01*
X108708095Y-61367676D02*
X108803333Y-61272438D01*
X108803333Y-61272438D02*
X108898571Y-61224819D01*
X108898571Y-61224819D02*
X109089047Y-61224819D01*
X109089047Y-61224819D02*
X109184285Y-61272438D01*
X109184285Y-61272438D02*
X109279523Y-61367676D01*
X109279523Y-61367676D02*
X109327142Y-61558152D01*
X109327142Y-61558152D02*
X109327142Y-61891485D01*
X109327142Y-61891485D02*
X109279523Y-62081961D01*
X109279523Y-62081961D02*
X109184285Y-62177200D01*
X109184285Y-62177200D02*
X109089047Y-62224819D01*
X109089047Y-62224819D02*
X108898571Y-62224819D01*
X109660476Y-61224819D02*
X110279523Y-61224819D01*
X110279523Y-61224819D02*
X109946190Y-61605771D01*
X109946190Y-61605771D02*
X110089047Y-61605771D01*
X110089047Y-61605771D02*
X110184285Y-61653390D01*
X110184285Y-61653390D02*
X110231904Y-61701009D01*
X110231904Y-61701009D02*
X110279523Y-61796247D01*
X110279523Y-61796247D02*
X110279523Y-62034342D01*
X110279523Y-62034342D02*
X110231904Y-62129580D01*
X110231904Y-62129580D02*
X110184285Y-62177200D01*
X110184285Y-62177200D02*
X110089047Y-62224819D01*
X110089047Y-62224819D02*
X109803333Y-62224819D01*
X109803333Y-62224819D02*
X109708095Y-62177200D01*
X109708095Y-62177200D02*
X109660476Y-62129580D01*
X137486667Y-39712295D02*
X137220000Y-39331342D01*
X137029524Y-39712295D02*
X137029524Y-38912295D01*
X137029524Y-38912295D02*
X137334286Y-38912295D01*
X137334286Y-38912295D02*
X137410476Y-38950390D01*
X137410476Y-38950390D02*
X137448571Y-38988485D01*
X137448571Y-38988485D02*
X137486667Y-39064676D01*
X137486667Y-39064676D02*
X137486667Y-39178961D01*
X137486667Y-39178961D02*
X137448571Y-39255152D01*
X137448571Y-39255152D02*
X137410476Y-39293247D01*
X137410476Y-39293247D02*
X137334286Y-39331342D01*
X137334286Y-39331342D02*
X137029524Y-39331342D01*
X138210476Y-38912295D02*
X137829524Y-38912295D01*
X137829524Y-38912295D02*
X137791428Y-39293247D01*
X137791428Y-39293247D02*
X137829524Y-39255152D01*
X137829524Y-39255152D02*
X137905714Y-39217057D01*
X137905714Y-39217057D02*
X138096190Y-39217057D01*
X138096190Y-39217057D02*
X138172381Y-39255152D01*
X138172381Y-39255152D02*
X138210476Y-39293247D01*
X138210476Y-39293247D02*
X138248571Y-39369438D01*
X138248571Y-39369438D02*
X138248571Y-39559914D01*
X138248571Y-39559914D02*
X138210476Y-39636104D01*
X138210476Y-39636104D02*
X138172381Y-39674200D01*
X138172381Y-39674200D02*
X138096190Y-39712295D01*
X138096190Y-39712295D02*
X137905714Y-39712295D01*
X137905714Y-39712295D02*
X137829524Y-39674200D01*
X137829524Y-39674200D02*
X137791428Y-39636104D01*
X134365714Y-37072295D02*
X134099047Y-36691342D01*
X133908571Y-37072295D02*
X133908571Y-36272295D01*
X133908571Y-36272295D02*
X134213333Y-36272295D01*
X134213333Y-36272295D02*
X134289523Y-36310390D01*
X134289523Y-36310390D02*
X134327618Y-36348485D01*
X134327618Y-36348485D02*
X134365714Y-36424676D01*
X134365714Y-36424676D02*
X134365714Y-36538961D01*
X134365714Y-36538961D02*
X134327618Y-36615152D01*
X134327618Y-36615152D02*
X134289523Y-36653247D01*
X134289523Y-36653247D02*
X134213333Y-36691342D01*
X134213333Y-36691342D02*
X133908571Y-36691342D01*
X134670475Y-36348485D02*
X134708571Y-36310390D01*
X134708571Y-36310390D02*
X134784761Y-36272295D01*
X134784761Y-36272295D02*
X134975237Y-36272295D01*
X134975237Y-36272295D02*
X135051428Y-36310390D01*
X135051428Y-36310390D02*
X135089523Y-36348485D01*
X135089523Y-36348485D02*
X135127618Y-36424676D01*
X135127618Y-36424676D02*
X135127618Y-36500866D01*
X135127618Y-36500866D02*
X135089523Y-36615152D01*
X135089523Y-36615152D02*
X134632380Y-37072295D01*
X134632380Y-37072295D02*
X135127618Y-37072295D01*
X135432380Y-36348485D02*
X135470476Y-36310390D01*
X135470476Y-36310390D02*
X135546666Y-36272295D01*
X135546666Y-36272295D02*
X135737142Y-36272295D01*
X135737142Y-36272295D02*
X135813333Y-36310390D01*
X135813333Y-36310390D02*
X135851428Y-36348485D01*
X135851428Y-36348485D02*
X135889523Y-36424676D01*
X135889523Y-36424676D02*
X135889523Y-36500866D01*
X135889523Y-36500866D02*
X135851428Y-36615152D01*
X135851428Y-36615152D02*
X135394285Y-37072295D01*
X135394285Y-37072295D02*
X135889523Y-37072295D01*
X136935714Y-37092295D02*
X136669047Y-36711342D01*
X136478571Y-37092295D02*
X136478571Y-36292295D01*
X136478571Y-36292295D02*
X136783333Y-36292295D01*
X136783333Y-36292295D02*
X136859523Y-36330390D01*
X136859523Y-36330390D02*
X136897618Y-36368485D01*
X136897618Y-36368485D02*
X136935714Y-36444676D01*
X136935714Y-36444676D02*
X136935714Y-36558961D01*
X136935714Y-36558961D02*
X136897618Y-36635152D01*
X136897618Y-36635152D02*
X136859523Y-36673247D01*
X136859523Y-36673247D02*
X136783333Y-36711342D01*
X136783333Y-36711342D02*
X136478571Y-36711342D01*
X137240475Y-36368485D02*
X137278571Y-36330390D01*
X137278571Y-36330390D02*
X137354761Y-36292295D01*
X137354761Y-36292295D02*
X137545237Y-36292295D01*
X137545237Y-36292295D02*
X137621428Y-36330390D01*
X137621428Y-36330390D02*
X137659523Y-36368485D01*
X137659523Y-36368485D02*
X137697618Y-36444676D01*
X137697618Y-36444676D02*
X137697618Y-36520866D01*
X137697618Y-36520866D02*
X137659523Y-36635152D01*
X137659523Y-36635152D02*
X137202380Y-37092295D01*
X137202380Y-37092295D02*
X137697618Y-37092295D01*
X137964285Y-36292295D02*
X138459523Y-36292295D01*
X138459523Y-36292295D02*
X138192857Y-36597057D01*
X138192857Y-36597057D02*
X138307142Y-36597057D01*
X138307142Y-36597057D02*
X138383333Y-36635152D01*
X138383333Y-36635152D02*
X138421428Y-36673247D01*
X138421428Y-36673247D02*
X138459523Y-36749438D01*
X138459523Y-36749438D02*
X138459523Y-36939914D01*
X138459523Y-36939914D02*
X138421428Y-37016104D01*
X138421428Y-37016104D02*
X138383333Y-37054200D01*
X138383333Y-37054200D02*
X138307142Y-37092295D01*
X138307142Y-37092295D02*
X138078571Y-37092295D01*
X138078571Y-37092295D02*
X138002380Y-37054200D01*
X138002380Y-37054200D02*
X137964285Y-37016104D01*
D11*
X110497142Y-47457419D02*
X110163809Y-46981228D01*
X109925714Y-47457419D02*
X109925714Y-46457419D01*
X109925714Y-46457419D02*
X110306666Y-46457419D01*
X110306666Y-46457419D02*
X110401904Y-46505038D01*
X110401904Y-46505038D02*
X110449523Y-46552657D01*
X110449523Y-46552657D02*
X110497142Y-46647895D01*
X110497142Y-46647895D02*
X110497142Y-46790752D01*
X110497142Y-46790752D02*
X110449523Y-46885990D01*
X110449523Y-46885990D02*
X110401904Y-46933609D01*
X110401904Y-46933609D02*
X110306666Y-46981228D01*
X110306666Y-46981228D02*
X109925714Y-46981228D01*
X110830476Y-46457419D02*
X111449523Y-46457419D01*
X111449523Y-46457419D02*
X111116190Y-46838371D01*
X111116190Y-46838371D02*
X111259047Y-46838371D01*
X111259047Y-46838371D02*
X111354285Y-46885990D01*
X111354285Y-46885990D02*
X111401904Y-46933609D01*
X111401904Y-46933609D02*
X111449523Y-47028847D01*
X111449523Y-47028847D02*
X111449523Y-47266942D01*
X111449523Y-47266942D02*
X111401904Y-47362180D01*
X111401904Y-47362180D02*
X111354285Y-47409800D01*
X111354285Y-47409800D02*
X111259047Y-47457419D01*
X111259047Y-47457419D02*
X110973333Y-47457419D01*
X110973333Y-47457419D02*
X110878095Y-47409800D01*
X110878095Y-47409800D02*
X110830476Y-47362180D01*
X111830476Y-46552657D02*
X111878095Y-46505038D01*
X111878095Y-46505038D02*
X111973333Y-46457419D01*
X111973333Y-46457419D02*
X112211428Y-46457419D01*
X112211428Y-46457419D02*
X112306666Y-46505038D01*
X112306666Y-46505038D02*
X112354285Y-46552657D01*
X112354285Y-46552657D02*
X112401904Y-46647895D01*
X112401904Y-46647895D02*
X112401904Y-46743133D01*
X112401904Y-46743133D02*
X112354285Y-46885990D01*
X112354285Y-46885990D02*
X111782857Y-47457419D01*
X111782857Y-47457419D02*
X112401904Y-47457419D01*
D10*
X123522295Y-39674285D02*
X123141342Y-39940952D01*
X123522295Y-40131428D02*
X122722295Y-40131428D01*
X122722295Y-40131428D02*
X122722295Y-39826666D01*
X122722295Y-39826666D02*
X122760390Y-39750476D01*
X122760390Y-39750476D02*
X122798485Y-39712381D01*
X122798485Y-39712381D02*
X122874676Y-39674285D01*
X122874676Y-39674285D02*
X122988961Y-39674285D01*
X122988961Y-39674285D02*
X123065152Y-39712381D01*
X123065152Y-39712381D02*
X123103247Y-39750476D01*
X123103247Y-39750476D02*
X123141342Y-39826666D01*
X123141342Y-39826666D02*
X123141342Y-40131428D01*
X122722295Y-39407619D02*
X122722295Y-38912381D01*
X122722295Y-38912381D02*
X123027057Y-39179047D01*
X123027057Y-39179047D02*
X123027057Y-39064762D01*
X123027057Y-39064762D02*
X123065152Y-38988571D01*
X123065152Y-38988571D02*
X123103247Y-38950476D01*
X123103247Y-38950476D02*
X123179438Y-38912381D01*
X123179438Y-38912381D02*
X123369914Y-38912381D01*
X123369914Y-38912381D02*
X123446104Y-38950476D01*
X123446104Y-38950476D02*
X123484200Y-38988571D01*
X123484200Y-38988571D02*
X123522295Y-39064762D01*
X123522295Y-39064762D02*
X123522295Y-39293333D01*
X123522295Y-39293333D02*
X123484200Y-39369524D01*
X123484200Y-39369524D02*
X123446104Y-39407619D01*
X123522295Y-38150476D02*
X123522295Y-38607619D01*
X123522295Y-38379047D02*
X122722295Y-38379047D01*
X122722295Y-38379047D02*
X122836580Y-38455238D01*
X122836580Y-38455238D02*
X122912771Y-38531428D01*
X122912771Y-38531428D02*
X122950866Y-38607619D01*
D12*
X101630000Y-57532500D02*
X100980000Y-57532499D01*
X101630000Y-57532500D02*
X102280001Y-57532500D01*
X101630000Y-60652500D02*
X100979999Y-60652500D01*
X101630000Y-60652500D02*
X102280000Y-60652501D01*
X103032500Y-60932500D02*
X102552499Y-60932500D01*
X102792501Y-60602500D01*
X103032500Y-60932500D01*
G36*
X103032500Y-60932500D02*
G01*
X102552499Y-60932500D01*
X102792501Y-60602500D01*
X103032500Y-60932500D01*
G37*
X127620000Y-36624165D02*
X127620000Y-36855835D01*
X128340000Y-36624165D02*
X128340000Y-36855835D01*
X146055000Y-70871252D02*
X146055000Y-70348748D01*
X147525000Y-70871252D02*
X147525000Y-70348748D01*
X131470000Y-36887621D02*
X131470000Y-36552379D01*
X132230000Y-36887621D02*
X132230000Y-36552379D01*
X101790000Y-66227500D02*
X101140000Y-66227499D01*
X101790000Y-66227500D02*
X102440001Y-66227500D01*
X101790000Y-69347500D02*
X101139999Y-69347500D01*
X101790000Y-69347500D02*
X102440000Y-69347501D01*
X100627499Y-66277500D02*
X100387500Y-65947500D01*
X100867501Y-65947500D01*
X100627499Y-66277500D01*
G36*
X100627499Y-66277500D02*
G01*
X100387500Y-65947500D01*
X100867501Y-65947500D01*
X100627499Y-66277500D01*
G37*
X101710000Y-61522500D02*
X101060000Y-61522499D01*
X101710000Y-61522500D02*
X102360001Y-61522500D01*
X101710000Y-64642500D02*
X101059999Y-64642500D01*
X101710000Y-64642500D02*
X102360000Y-64642501D01*
X103112500Y-64922500D02*
X102632499Y-64922500D01*
X102872501Y-64592500D01*
X103112500Y-64922500D01*
G36*
X103112500Y-64922500D02*
G01*
X102632499Y-64922500D01*
X102872501Y-64592500D01*
X103112500Y-64922500D01*
G37*
X123332936Y-68150001D02*
X127687064Y-68150001D01*
X123332936Y-71569999D02*
X127687064Y-71569999D01*
X127865000Y-50250000D02*
X127865000Y-52060000D01*
X127865000Y-60650000D02*
X127865000Y-58840000D01*
X129365000Y-50250000D02*
X127865000Y-50250000D01*
X129365000Y-60650000D02*
X127865000Y-60650000D01*
X125302500Y-52060000D02*
X125062500Y-51730000D01*
X125542500Y-51730000D01*
X125302500Y-52060000D01*
G36*
X125302500Y-52060000D02*
G01*
X125062500Y-51730000D01*
X125542500Y-51730000D01*
X125302500Y-52060000D01*
G37*
X151310000Y-65002936D02*
X151310000Y-66457064D01*
X153130000Y-65002936D02*
X153130000Y-66457064D01*
X123795000Y-39920000D02*
X124050000Y-39920000D01*
X123795000Y-43780000D02*
X123795000Y-39920000D01*
X123795000Y-43780000D02*
X123795000Y-47640000D01*
X123795000Y-47640000D02*
X124050000Y-47640000D01*
X134315000Y-39920000D02*
X134060000Y-39920000D01*
X134315000Y-43780000D02*
X134315000Y-39920000D01*
X134315000Y-43780000D02*
X134315000Y-47640000D01*
X134315000Y-47640000D02*
X134060000Y-47640000D01*
X124050000Y-48492500D02*
X123580000Y-48832500D01*
X123580000Y-48152500D01*
X124050000Y-48492500D01*
G36*
X124050000Y-48492500D02*
G01*
X123580000Y-48832500D01*
X123580000Y-48152500D01*
X124050000Y-48492500D01*
G37*
X129550000Y-36532379D02*
X129550000Y-36867621D01*
X130310000Y-36532379D02*
X130310000Y-36867621D01*
X116900001Y-73341252D02*
X116900001Y-71018748D01*
X120319999Y-73341252D02*
X120319999Y-71018748D01*
X128540000Y-36542379D02*
X128540000Y-36877621D01*
X129300000Y-36542379D02*
X129300000Y-36877621D01*
X123412936Y-72020000D02*
X127767064Y-72020000D01*
X123412936Y-75440000D02*
X127767064Y-75440000D01*
X132907064Y-74090000D02*
X131452936Y-74090000D01*
X132907064Y-75910000D02*
X131452936Y-75910000D01*
X129917501Y-67260000D02*
X131177501Y-67260000D01*
X129917501Y-71020000D02*
X129917501Y-67260000D01*
X136737501Y-67260000D02*
X135477501Y-67260000D01*
X136737501Y-71020000D02*
X136737501Y-67260000D01*
X130017501Y-72300000D02*
X129687501Y-72540000D01*
X129687501Y-72060000D01*
X130017501Y-72300000D01*
G36*
X130017501Y-72300000D02*
G01*
X129687501Y-72540000D01*
X129687501Y-72060000D01*
X130017501Y-72300000D01*
G37*
X132530000Y-36825835D02*
X132530000Y-36594165D01*
X133250000Y-36825835D02*
X133250000Y-36594165D01*
X138110000Y-67470000D02*
X139370000Y-67470000D01*
X138110000Y-71230000D02*
X138110000Y-67470000D01*
X144930000Y-67470000D02*
X143670000Y-67470000D01*
X144930000Y-71230000D02*
X144930000Y-67470000D01*
X138210000Y-72510000D02*
X137880000Y-72750000D01*
X137880000Y-72270000D01*
X138210000Y-72510000D01*
G36*
X138210000Y-72510000D02*
G01*
X137880000Y-72750000D01*
X137880000Y-72270000D01*
X138210000Y-72510000D01*
G37*
X140637621Y-36600000D02*
X140302379Y-36600000D01*
X140637621Y-37360000D02*
X140302379Y-37360000D01*
X108850001Y-73351252D02*
X108850001Y-71028748D01*
X112269999Y-73351252D02*
X112269999Y-71028748D01*
X142350000Y-45170000D02*
X143010000Y-45170000D01*
X142350000Y-46580000D02*
X142350000Y-45170000D01*
X144010000Y-45170000D02*
X144670000Y-45170000D01*
X144670000Y-46580000D02*
X144670000Y-45170000D01*
X142370000Y-46950000D02*
X142040000Y-47190000D01*
X142040000Y-46710000D01*
X142370000Y-46950000D01*
G36*
X142370000Y-46950000D02*
G01*
X142040000Y-47190000D01*
X142040000Y-46710000D01*
X142370000Y-46950000D01*
G37*
X130530000Y-36604165D02*
X130530000Y-36835835D01*
X131250000Y-36604165D02*
X131250000Y-36835835D01*
X112880001Y-73351252D02*
X112880001Y-71028748D01*
X116299999Y-73351252D02*
X116299999Y-71028748D01*
X142997064Y-74120000D02*
X141542936Y-74120000D01*
X142997064Y-75940000D02*
X141542936Y-75940000D01*
X137937064Y-74080000D02*
X136482936Y-74080000D01*
X137937064Y-75900000D02*
X136482936Y-75900000D01*
X135937621Y-37490000D02*
X135602379Y-37490000D01*
X135937621Y-38250000D02*
X135602379Y-38250000D01*
X140874165Y-46150000D02*
X141105835Y-46150000D01*
X140874165Y-46870000D02*
X141105835Y-46870000D01*
X120235000Y-56760000D02*
X121735000Y-56760000D01*
X120235000Y-67160000D02*
X121735000Y-67160000D01*
X121735000Y-56760000D02*
X121735000Y-58570000D01*
X121735000Y-67160000D02*
X121735000Y-65350000D01*
X124537500Y-65680000D02*
X124057500Y-65680000D01*
X124297500Y-65350000D01*
X124537500Y-65680000D01*
G36*
X124537500Y-65680000D02*
G01*
X124057500Y-65680000D01*
X124297500Y-65350000D01*
X124537500Y-65680000D01*
G37*
X135662379Y-38900000D02*
X135997621Y-38900000D01*
X135662379Y-39660000D02*
X135997621Y-39660000D01*
X134962379Y-35300000D02*
X135297621Y-35300000D01*
X134962379Y-36060000D02*
X135297621Y-36060000D01*
X137312379Y-35330000D02*
X137647621Y-35330000D01*
X137312379Y-36090000D02*
X137647621Y-36090000D01*
D11*
X111520000Y-48180000D02*
X117020000Y-48180000D01*
X111770000Y-55180000D02*
X117020000Y-55180000D01*
D12*
X126232379Y-36890000D02*
X126567621Y-36890000D01*
X126232379Y-37650000D02*
X126567621Y-37650000D01*
%LPC*%
D13*
X102567500Y-60042500D03*
X102567500Y-58142500D03*
X100692500Y-59092500D03*
D14*
X127980000Y-36172500D03*
X127980000Y-37307500D03*
D15*
X152200000Y-70500000D03*
D16*
X146790000Y-71560000D03*
X146790000Y-69660000D03*
D15*
X143660000Y-41010000D03*
D17*
X131850000Y-37317500D03*
X131850000Y-36122500D03*
D18*
X100852500Y-66837500D03*
X100852500Y-68737500D03*
X102727500Y-67787500D03*
D15*
X141120000Y-41010000D03*
D19*
X117750000Y-42250000D03*
D13*
X102647500Y-64032500D03*
X102647500Y-62132500D03*
X100772500Y-63082500D03*
D20*
X122547500Y-69860000D03*
X128472500Y-69860000D03*
D21*
X125040000Y-52910000D03*
D22*
X134190000Y-55450000D03*
D21*
X125040000Y-57990000D03*
D23*
X152220000Y-64180000D03*
X152220000Y-67280000D03*
D24*
X124610000Y-48430000D03*
X125880000Y-48430000D03*
X127150000Y-48430000D03*
X128420000Y-48430000D03*
X129690000Y-48430000D03*
X130960000Y-48430000D03*
X132230000Y-48430000D03*
X133500000Y-48430000D03*
X133500000Y-39130000D03*
X132230000Y-39130000D03*
X130960000Y-39130000D03*
X129690000Y-39130000D03*
X128420000Y-39130000D03*
X127150000Y-39130000D03*
X125880000Y-39130000D03*
X124610000Y-39130000D03*
D25*
X129930000Y-36102500D03*
X129930000Y-37297500D03*
D26*
X118610000Y-74230000D03*
X118610000Y-70130000D03*
D25*
X128920000Y-36112500D03*
X128920000Y-37307500D03*
D20*
X122627500Y-73730000D03*
X128552500Y-73730000D03*
D27*
X133730000Y-75000000D03*
X130630000Y-75000000D03*
D28*
X131027501Y-72320000D03*
X133327501Y-72320000D03*
X135627501Y-72320000D03*
D29*
X133327501Y-66020000D03*
D30*
X132890000Y-37277500D03*
X132890000Y-36142500D03*
D28*
X139220000Y-72530000D03*
X141520000Y-72530000D03*
X143820000Y-72530000D03*
D29*
X141520000Y-66230000D03*
D31*
X101330000Y-74520000D03*
X98330000Y-74520000D03*
D32*
X141067500Y-36980000D03*
X139872500Y-36980000D03*
D26*
X110560000Y-74240000D03*
X110560000Y-70140000D03*
D33*
X142860000Y-46900000D03*
X144160000Y-46900000D03*
X143510000Y-44900000D03*
D14*
X130890000Y-36152500D03*
X130890000Y-37287500D03*
D26*
X114590000Y-74240000D03*
X114590000Y-70140000D03*
D27*
X143820000Y-75030000D03*
X140720000Y-75030000D03*
D19*
X104250000Y-42000000D03*
D27*
X138760000Y-74990000D03*
X135660000Y-74990000D03*
D15*
X143660000Y-38470000D03*
D32*
X136367500Y-37870000D03*
X135172500Y-37870000D03*
D15*
X141120000Y-38470000D03*
D34*
X140422500Y-46510000D03*
X141557500Y-46510000D03*
D35*
X124560000Y-64500000D03*
D36*
X115410000Y-61960000D03*
D35*
X124560000Y-59420000D03*
D37*
X135232500Y-39280000D03*
X136427500Y-39280000D03*
X134532500Y-35680000D03*
X135727500Y-35680000D03*
D15*
X141130000Y-43550000D03*
D37*
X136882500Y-35710000D03*
X138077500Y-35710000D03*
D38*
X109020000Y-51680000D03*
X119520000Y-51680000D03*
D37*
X125802500Y-37270000D03*
X126997500Y-37270000D03*
D39*
X105500000Y-70000000D03*
D40*
X105500000Y-66038000D03*
X105500000Y-62075000D03*
X105500000Y-58113000D03*
D15*
X148558200Y-71480000D03*
X148558200Y-68940000D03*
X148558200Y-63860000D03*
X148558200Y-58780000D03*
D41*
X94512500Y-39395000D03*
D42*
X91972500Y-39395000D03*
X94512500Y-41935000D03*
X91972500Y-41935000D03*
X94512500Y-44475000D03*
X91972500Y-44475000D03*
%LPD*%
M02*
