M48
; DRILL file {KiCad 8.0.0} date 2024-04-27T08:46:55-0700
; FORMAT={-:-/ absolute / metric / decimal}
; #@! TF.CreationDate,2024-04-27T08:46:55-07:00
; #@! TF.GenerationSoftware,Kicad,Pcbnew,8.0.0
; #@! TF.FileFunction,Plated,1,4,PTH
FMAT,2
METRIC
; #@! TA.AperFunction,Plated,PTH,ViaDrill
T1C0.300
; #@! TA.AperFunction,Plated,PTH,ComponentDrill
T2C1.000
; #@! TA.AperFunction,Plated,PTH,ComponentDrill
T3C1.500
; #@! TA.AperFunction,Plated,PTH,ComponentDrill
T4C1.778
; #@! TA.AperFunction,Plated,PTH,ComponentDrill
T5C5.000
%
G90
G05
T1
X95.63Y-48.31
X98.29Y-54.57
X101.35Y-60.6
X101.56Y-64.74
X106.43Y-59.72
X120.221Y-72.167
X120.925Y-72.425
X122.42Y-66.206
X122.883Y-54.383
X123.593Y-66.264
X124.273Y-52.07
X124.889Y-66.328
X124.96Y-68.646
X125.0Y-70.437
X125.45Y-50.99
X125.58Y-45.71
X125.73Y-43.99
X125.761Y-70.318
X126.235Y-37.668
X126.828Y-66.638
X126.844Y-36.492
X126.86Y-63.25
X127.401Y-41.972
X127.595Y-42.667
X127.73Y-40.7
X127.926Y-41.391
X128.497Y-43.823
X128.729Y-44.825
X128.95Y-46.59
X129.73Y-71.26
X129.752Y-62.328
X129.946Y-45.297
X130.33Y-65.8
X130.459Y-35.399
X130.9Y-70.38
X131.0Y-41.928
X131.175Y-35.299
X131.387Y-62.119
X131.414Y-61.369
X131.454Y-40.148
X131.913Y-40.693
X131.928Y-35.235
X132.54Y-41.28
X132.655Y-35.33
X132.82Y-46.97
X132.833Y-34.103
X133.0Y-61.52
X133.192Y-40.594
X133.55Y-43.097
X133.8Y-61.492
X134.175Y-42.48
X134.35Y-38.43
X134.481Y-44.581
X135.25Y-70.72
X135.428Y-42.259
X136.127Y-41.986
X136.218Y-43.557
X136.81Y-40.11
X137.157Y-38.567
X137.469Y-37.902
X137.5Y-62.2
X137.645Y-45.41
X137.934Y-34.801
X138.282Y-47.449
X138.44Y-36.586
X138.753Y-46.072
X138.969Y-37.128
X139.45Y-41.896
X140.242Y-45.428
X140.667Y-39.689
X141.277Y-47.684
X142.81Y-57.66
X143.61Y-46.29
X145.08Y-52.19
X146.92Y-54.23
X154.03Y-65.4
T2
X91.972Y-39.395
X91.972Y-41.935
X91.972Y-44.475
X94.512Y-39.395
X94.512Y-41.935
X94.512Y-44.475
X141.12Y-38.47
X141.12Y-41.01
X141.13Y-43.55
X143.66Y-38.47
X143.66Y-41.01
X148.558Y-58.78
X148.558Y-63.86
X148.558Y-68.94
X148.558Y-71.48
X152.2Y-70.5
T3
X98.33Y-74.52
X101.33Y-74.52
T4
X105.5Y-58.113
X105.5Y-62.075
X105.5Y-66.038
X105.5Y-70.0
T5
X104.25Y-42.0
X117.75Y-42.25
M30
