G04 #@! TF.GenerationSoftware,KiCad,Pcbnew,8.0.0*
G04 #@! TF.CreationDate,2024-04-27T08:46:39-07:00*
G04 #@! TF.ProjectId,module controller,6d6f6475-6c65-4206-936f-6e74726f6c6c,rev?*
G04 #@! TF.SameCoordinates,Original*
G04 #@! TF.FileFunction,Copper,L4,Bot*
G04 #@! TF.FilePolarity,Positive*
%FSLAX46Y46*%
G04 Gerber Fmt 4.6, Leading zero omitted, Abs format (unit mm)*
G04 Created by KiCad (PCBNEW 8.0.0) date 2024-04-27 08:46:39*
%MOMM*%
%LPD*%
G01*
G04 APERTURE LIST*
G04 Aperture macros list*
%AMRoundRect*
0 Rectangle with rounded corners*
0 $1 Rounding radius*
0 $2 $3 $4 $5 $6 $7 $8 $9 X,Y pos of 4 corners*
0 Add a 4 corners polygon primitive as box body*
4,1,4,$2,$3,$4,$5,$6,$7,$8,$9,$2,$3,0*
0 Add four circle primitives for the rounded corners*
1,1,$1+$1,$2,$3*
1,1,$1+$1,$4,$5*
1,1,$1+$1,$6,$7*
1,1,$1+$1,$8,$9*
0 Add four rect primitives between the rounded corners*
20,1,$1+$1,$2,$3,$4,$5,0*
20,1,$1+$1,$4,$5,$6,$7,0*
20,1,$1+$1,$6,$7,$8,$9,0*
20,1,$1+$1,$8,$9,$2,$3,0*%
G04 Aperture macros list end*
G04 #@! TA.AperFunction,ComponentPad*
%ADD10C,1.700000*%
G04 #@! TD*
G04 #@! TA.AperFunction,ComponentPad*
%ADD11C,10.000000*%
G04 #@! TD*
G04 #@! TA.AperFunction,ComponentPad*
%ADD12C,2.500000*%
G04 #@! TD*
G04 #@! TA.AperFunction,SMDPad,CuDef*
%ADD13RoundRect,0.250000X-0.450000X0.325000X-0.450000X-0.325000X0.450000X-0.325000X0.450000X0.325000X0*%
G04 #@! TD*
G04 #@! TA.AperFunction,SMDPad,CuDef*
%ADD14RoundRect,0.155000X0.212500X0.155000X-0.212500X0.155000X-0.212500X-0.155000X0.212500X-0.155000X0*%
G04 #@! TD*
G04 #@! TA.AperFunction,SMDPad,CuDef*
%ADD15RoundRect,0.155000X0.155000X-0.212500X0.155000X0.212500X-0.155000X0.212500X-0.155000X-0.212500X0*%
G04 #@! TD*
G04 #@! TA.AperFunction,SMDPad,CuDef*
%ADD16R,1.000000X1.800000*%
G04 #@! TD*
G04 #@! TA.AperFunction,SMDPad,CuDef*
%ADD17RoundRect,0.155000X-0.212500X-0.155000X0.212500X-0.155000X0.212500X0.155000X-0.212500X0.155000X0*%
G04 #@! TD*
G04 #@! TA.AperFunction,SMDPad,CuDef*
%ADD18RoundRect,0.160000X-0.160000X0.197500X-0.160000X-0.197500X0.160000X-0.197500X0.160000X0.197500X0*%
G04 #@! TD*
G04 #@! TA.AperFunction,SMDPad,CuDef*
%ADD19RoundRect,0.155000X-0.155000X0.212500X-0.155000X-0.212500X0.155000X-0.212500X0.155000X0.212500X0*%
G04 #@! TD*
G04 #@! TA.AperFunction,SMDPad,CuDef*
%ADD20RoundRect,0.160000X-0.197500X-0.160000X0.197500X-0.160000X0.197500X0.160000X-0.197500X0.160000X0*%
G04 #@! TD*
G04 #@! TA.AperFunction,ComponentPad*
%ADD21R,2.667000X2.667000*%
G04 #@! TD*
G04 #@! TA.AperFunction,ComponentPad*
%ADD22C,2.667000*%
G04 #@! TD*
G04 #@! TA.AperFunction,SMDPad,CuDef*
%ADD23RoundRect,0.250000X-0.475000X0.250000X-0.475000X-0.250000X0.475000X-0.250000X0.475000X0.250000X0*%
G04 #@! TD*
G04 #@! TA.AperFunction,SMDPad,CuDef*
%ADD24RoundRect,0.160000X0.197500X0.160000X-0.197500X0.160000X-0.197500X-0.160000X0.197500X-0.160000X0*%
G04 #@! TD*
G04 #@! TA.AperFunction,SMDPad,CuDef*
%ADD25RoundRect,0.150000X0.150000X-0.825000X0.150000X0.825000X-0.150000X0.825000X-0.150000X-0.825000X0*%
G04 #@! TD*
G04 #@! TA.AperFunction,SMDPad,CuDef*
%ADD26RoundRect,0.250000X-0.625000X0.400000X-0.625000X-0.400000X0.625000X-0.400000X0.625000X0.400000X0*%
G04 #@! TD*
G04 #@! TA.AperFunction,SMDPad,CuDef*
%ADD27RoundRect,0.112500X-0.237500X0.112500X-0.237500X-0.112500X0.237500X-0.112500X0.237500X0.112500X0*%
G04 #@! TD*
G04 #@! TA.AperFunction,SMDPad,CuDef*
%ADD28RoundRect,0.250000X1.300000X0.550000X-1.300000X0.550000X-1.300000X-0.550000X1.300000X-0.550000X0*%
G04 #@! TD*
G04 #@! TA.AperFunction,SMDPad,CuDef*
%ADD29RoundRect,0.150000X0.750000X0.150000X-0.750000X0.150000X-0.750000X-0.150000X0.750000X-0.150000X0*%
G04 #@! TD*
G04 #@! TA.AperFunction,SMDPad,CuDef*
%ADD30RoundRect,0.160000X0.160000X-0.197500X0.160000X0.197500X-0.160000X0.197500X-0.160000X-0.197500X0*%
G04 #@! TD*
G04 #@! TA.AperFunction,SMDPad,CuDef*
%ADD31R,0.400000X1.100000*%
G04 #@! TD*
G04 #@! TA.AperFunction,SMDPad,CuDef*
%ADD32R,0.700000X1.200000*%
G04 #@! TD*
G04 #@! TA.AperFunction,SMDPad,CuDef*
%ADD33R,0.500000X1.200000*%
G04 #@! TD*
G04 #@! TA.AperFunction,SMDPad,CuDef*
%ADD34R,1.000000X0.800000*%
G04 #@! TD*
G04 #@! TA.AperFunction,SMDPad,CuDef*
%ADD35R,1.000000X2.800000*%
G04 #@! TD*
G04 #@! TA.AperFunction,SMDPad,CuDef*
%ADD36R,1.000000X1.200000*%
G04 #@! TD*
G04 #@! TA.AperFunction,SMDPad,CuDef*
%ADD37R,1.300000X1.900000*%
G04 #@! TD*
G04 #@! TA.AperFunction,SMDPad,CuDef*
%ADD38RoundRect,0.150000X-0.825000X-0.150000X0.825000X-0.150000X0.825000X0.150000X-0.825000X0.150000X0*%
G04 #@! TD*
G04 #@! TA.AperFunction,ComponentPad*
%ADD39R,1.700000X1.700000*%
G04 #@! TD*
G04 #@! TA.AperFunction,ComponentPad*
%ADD40O,1.700000X1.700000*%
G04 #@! TD*
G04 #@! TA.AperFunction,SMDPad,CuDef*
%ADD41R,2.000000X0.640000*%
G04 #@! TD*
G04 #@! TA.AperFunction,SMDPad,CuDef*
%ADD42RoundRect,0.150000X-0.150000X0.512500X-0.150000X-0.512500X0.150000X-0.512500X0.150000X0.512500X0*%
G04 #@! TD*
G04 #@! TA.AperFunction,SMDPad,CuDef*
%ADD43RoundRect,0.250000X0.250000X0.475000X-0.250000X0.475000X-0.250000X-0.475000X0.250000X-0.475000X0*%
G04 #@! TD*
G04 #@! TA.AperFunction,SMDPad,CuDef*
%ADD44RoundRect,0.075000X-0.275000X-0.075000X0.275000X-0.075000X0.275000X0.075000X-0.275000X0.075000X0*%
G04 #@! TD*
G04 #@! TA.AperFunction,SMDPad,CuDef*
%ADD45RoundRect,0.375000X0.625000X0.375000X-0.625000X0.375000X-0.625000X-0.375000X0.625000X-0.375000X0*%
G04 #@! TD*
G04 #@! TA.AperFunction,SMDPad,CuDef*
%ADD46RoundRect,0.500000X0.500000X1.400000X-0.500000X1.400000X-0.500000X-1.400000X0.500000X-1.400000X0*%
G04 #@! TD*
G04 #@! TA.AperFunction,SMDPad,CuDef*
%ADD47RoundRect,0.225000X0.375000X-0.225000X0.375000X0.225000X-0.375000X0.225000X-0.375000X-0.225000X0*%
G04 #@! TD*
G04 #@! TA.AperFunction,SMDPad,CuDef*
%ADD48RoundRect,0.150000X-0.512500X-0.150000X0.512500X-0.150000X0.512500X0.150000X-0.512500X0.150000X0*%
G04 #@! TD*
G04 #@! TA.AperFunction,SMDPad,CuDef*
%ADD49RoundRect,0.125000X-0.125000X0.675000X-0.125000X-0.675000X0.125000X-0.675000X0.125000X0.675000X0*%
G04 #@! TD*
G04 #@! TA.AperFunction,SMDPad,CuDef*
%ADD50RoundRect,0.125000X0.675000X0.125000X-0.675000X0.125000X-0.675000X-0.125000X0.675000X-0.125000X0*%
G04 #@! TD*
G04 #@! TA.AperFunction,ViaPad*
%ADD51C,0.500000*%
G04 #@! TD*
G04 #@! TA.AperFunction,Conductor*
%ADD52C,0.254000*%
G04 #@! TD*
G04 #@! TA.AperFunction,Conductor*
%ADD53C,0.350000*%
G04 #@! TD*
G04 #@! TA.AperFunction,Conductor*
%ADD54C,0.635000*%
G04 #@! TD*
G04 APERTURE END LIST*
D10*
X152200000Y-70500000D03*
X143660000Y-41010000D03*
X141120000Y-41010000D03*
D11*
X117750000Y-42250000D03*
D12*
X101330000Y-74520000D03*
X98330000Y-74520000D03*
D11*
X104250000Y-42000000D03*
D10*
X143660000Y-38470000D03*
X141120000Y-38470000D03*
X141130000Y-43550000D03*
D13*
X135800000Y-54075000D03*
X135800000Y-56125000D03*
D14*
X135217500Y-47600000D03*
X134082500Y-47600000D03*
D15*
X125870000Y-75337500D03*
X125870000Y-74202500D03*
D16*
X121880000Y-74880000D03*
X124380000Y-74880000D03*
D17*
X124612500Y-65150000D03*
X125747500Y-65150000D03*
D15*
X133600000Y-35387500D03*
X133600000Y-34252500D03*
D18*
X135400000Y-51202500D03*
X135400000Y-52397500D03*
D19*
X121050000Y-61772500D03*
X121050000Y-62907500D03*
D20*
X140722500Y-46040000D03*
X141917500Y-46040000D03*
D17*
X126962500Y-48680000D03*
X128097500Y-48680000D03*
D21*
X105500000Y-70000000D03*
D22*
X105500000Y-66038000D03*
X105500000Y-62075000D03*
X105500000Y-58113000D03*
D23*
X141300000Y-54750000D03*
X141300000Y-56650000D03*
D19*
X134400000Y-51332500D03*
X134400000Y-52467500D03*
D15*
X126820000Y-39367500D03*
X126820000Y-38232500D03*
D18*
X136600000Y-51202500D03*
X136600000Y-52397500D03*
D24*
X141887500Y-47050000D03*
X140692500Y-47050000D03*
D14*
X109837500Y-59730000D03*
X108702500Y-59730000D03*
D25*
X125595000Y-72335000D03*
X124325000Y-72335000D03*
X123055000Y-72335000D03*
X121785000Y-72335000D03*
X121785000Y-67385000D03*
X123055000Y-67385000D03*
X124325000Y-67385000D03*
X125595000Y-67385000D03*
D26*
X152080000Y-63550000D03*
X152080000Y-66650000D03*
D27*
X121090000Y-58389999D03*
X121089999Y-59690000D03*
X119090000Y-59040000D03*
D28*
X118695000Y-61960000D03*
X118695000Y-64500000D03*
X118695000Y-67040000D03*
X118695000Y-69580000D03*
X109805000Y-69580000D03*
X109805000Y-67040000D03*
X109805000Y-64500000D03*
X109805000Y-61960000D03*
D14*
X123117500Y-65210000D03*
X121982500Y-65210000D03*
D10*
X148558200Y-71480000D03*
X148558200Y-68940000D03*
X148558200Y-63860000D03*
X148558200Y-58780000D03*
D29*
X131295000Y-50715000D03*
X131295000Y-51985000D03*
X131295000Y-53255000D03*
X131295000Y-54525000D03*
X120645000Y-54525000D03*
X120645000Y-53255000D03*
X120645000Y-51985000D03*
X120645000Y-50715000D03*
D26*
X152080000Y-58500000D03*
X152080000Y-61600000D03*
D15*
X99500000Y-51605000D03*
X99500000Y-50470000D03*
D14*
X136567500Y-50100000D03*
X135432500Y-50100000D03*
D30*
X122570000Y-57810000D03*
X122570000Y-56615000D03*
D18*
X117380000Y-73712500D03*
X117380000Y-74907500D03*
X125380000Y-56605000D03*
X125380000Y-57800000D03*
D24*
X118867500Y-50290000D03*
X117672500Y-50290000D03*
D30*
X124020000Y-57830000D03*
X124020000Y-56635000D03*
D19*
X118810000Y-53632500D03*
X118810000Y-54767500D03*
D31*
X124925000Y-43010000D03*
X125575000Y-43010000D03*
X126225000Y-43010000D03*
X126875000Y-43010000D03*
X126875000Y-47310000D03*
X126225000Y-47310000D03*
X125575000Y-47310000D03*
X124925000Y-47310000D03*
D30*
X139770000Y-37397500D03*
X139770000Y-36202500D03*
D27*
X125300000Y-59069999D03*
X125299999Y-60370000D03*
X123300000Y-59720000D03*
D19*
X120440000Y-74202500D03*
X120440000Y-75337500D03*
D14*
X134217500Y-53750000D03*
X133082500Y-53750000D03*
D32*
X131725000Y-59375000D03*
X132825000Y-59375000D03*
X133925000Y-59375000D03*
X135025000Y-59375000D03*
X136125000Y-59375000D03*
X137225000Y-59375000D03*
X138325000Y-59375000D03*
X139425000Y-59375000D03*
D33*
X140375000Y-59375000D03*
D34*
X141325000Y-69875000D03*
D35*
X141325000Y-74025000D03*
D36*
X141325000Y-63675000D03*
X130175000Y-59375000D03*
D37*
X127825000Y-74475000D03*
D18*
X118730000Y-73712500D03*
X118730000Y-74907500D03*
D19*
X118810000Y-51352500D03*
X118810000Y-52487500D03*
D38*
X138425000Y-52205000D03*
X138425000Y-50935000D03*
X138425000Y-49665000D03*
X138425000Y-48395000D03*
X143375000Y-48395000D03*
X143375000Y-49665000D03*
X143375000Y-50935000D03*
X143375000Y-52205000D03*
D24*
X126597500Y-40640000D03*
X125402500Y-40640000D03*
D17*
X135957500Y-57785000D03*
X137092500Y-57785000D03*
D18*
X129650000Y-47402500D03*
X129650000Y-48597500D03*
D17*
X145112500Y-53040000D03*
X146247500Y-53040000D03*
D39*
X94512500Y-39395000D03*
D40*
X91972500Y-39395000D03*
X94512500Y-41935000D03*
X91972500Y-41935000D03*
X94512500Y-44475000D03*
X91972500Y-44475000D03*
D41*
X115480000Y-72110000D03*
X115480000Y-74650000D03*
X109180000Y-74650000D03*
X109180000Y-73380000D03*
X109180000Y-72110000D03*
D15*
X134200000Y-56042500D03*
X134200000Y-54907500D03*
D24*
X126607500Y-41680000D03*
X125412500Y-41680000D03*
D20*
X117362500Y-72470000D03*
X118557500Y-72470000D03*
D42*
X137550000Y-53980500D03*
X138500000Y-53980500D03*
X139450000Y-53980500D03*
X139450000Y-56255500D03*
X138500000Y-56255500D03*
X137550000Y-56255500D03*
D17*
X92032500Y-36990000D03*
X93167500Y-36990000D03*
D43*
X132925000Y-56825000D03*
X131025000Y-56825000D03*
D44*
X126650000Y-57655000D03*
X126650000Y-57155000D03*
X126650000Y-56655000D03*
X128150000Y-56655000D03*
X128150000Y-57155000D03*
X128150000Y-57655000D03*
D19*
X117730000Y-53602500D03*
X117730000Y-54737500D03*
D23*
X106651764Y-72571764D03*
X106651764Y-74471764D03*
D45*
X97310000Y-48610000D03*
X97310000Y-50910000D03*
X97310000Y-53210000D03*
D46*
X91010000Y-50910000D03*
D47*
X104380000Y-75447500D03*
X104380000Y-72147500D03*
D20*
X131672500Y-48750000D03*
X132867500Y-48750000D03*
D19*
X129470000Y-56472500D03*
X129470000Y-57607500D03*
D18*
X128020000Y-38232500D03*
X128020000Y-39427500D03*
D48*
X122702500Y-63770000D03*
X122702500Y-62820000D03*
X122702500Y-61870000D03*
X124977500Y-61870000D03*
X124977500Y-63770000D03*
D49*
X131150000Y-37150000D03*
X131950000Y-37150000D03*
X132750000Y-37150000D03*
X133550000Y-37150000D03*
X134350000Y-37150000D03*
X135150000Y-37150000D03*
X135950000Y-37150000D03*
X136750000Y-37150000D03*
D50*
X138200000Y-38600000D03*
X138200000Y-39400000D03*
X138200000Y-40200000D03*
X138200000Y-41000000D03*
X138200000Y-41800000D03*
X138200000Y-42600000D03*
X138200000Y-43400000D03*
X138200000Y-44200000D03*
D49*
X136750000Y-45650000D03*
X135950000Y-45650000D03*
X135150000Y-45650000D03*
X134350000Y-45650000D03*
X133550000Y-45650000D03*
X132750000Y-45650000D03*
X131950000Y-45650000D03*
X131150000Y-45650000D03*
D50*
X129700000Y-44200000D03*
X129700000Y-43400000D03*
X129700000Y-42600000D03*
X129700000Y-41800000D03*
X129700000Y-41000000D03*
X129700000Y-40200000D03*
X129700000Y-39400000D03*
X129700000Y-38600000D03*
D14*
X124915000Y-48710000D03*
X123780000Y-48710000D03*
D51*
X134350000Y-38430000D03*
X126235080Y-37668317D03*
X143610000Y-46290000D03*
X138969345Y-37127899D03*
X138282291Y-47449290D03*
X146920000Y-54230000D03*
X126828356Y-66638357D03*
X128950000Y-46590000D03*
X134481399Y-44581399D03*
X127400682Y-41972071D03*
X120924994Y-72425006D03*
X141277042Y-47684083D03*
X122419706Y-66206322D03*
X125450000Y-50990000D03*
X135250000Y-70720000D03*
X131413512Y-61369454D03*
X132832504Y-34102937D03*
X129730000Y-71260000D03*
X136810000Y-40110000D03*
X131454000Y-40148391D03*
X131387330Y-62119000D03*
X126844336Y-36492162D03*
X120220656Y-72167313D03*
X130900000Y-70380000D03*
X137933614Y-34801408D03*
X145080002Y-52190002D03*
X122882735Y-54382735D03*
X98290000Y-54570000D03*
X95630000Y-48310000D03*
X106430000Y-59720000D03*
X101560000Y-64740000D03*
X101350000Y-60600000D03*
X138753000Y-46072235D03*
X140241644Y-45428356D03*
X130330000Y-65800000D03*
X130459187Y-35398859D03*
X134175294Y-42480000D03*
X131175011Y-35298681D03*
X127730000Y-40700000D03*
X137156874Y-38567383D03*
X133800000Y-61492000D03*
X128497000Y-43823000D03*
X129752330Y-62327670D03*
X138440244Y-36585782D03*
X142810000Y-57660000D03*
X139450000Y-41895517D03*
X124999999Y-70436713D03*
X135428209Y-42258929D03*
X136126825Y-41986092D03*
X125761080Y-70317684D03*
X133000000Y-61520000D03*
X132820000Y-46970000D03*
X133549895Y-43097426D03*
X123593450Y-66264454D03*
X127595410Y-42666874D03*
X124959603Y-68646292D03*
X131000000Y-41927616D03*
X126860000Y-63250000D03*
X124273000Y-52070000D03*
X136217850Y-43557000D03*
X154030000Y-65400000D03*
X137645031Y-45410282D03*
X137469383Y-37902089D03*
X132655318Y-35329530D03*
X133191866Y-40593584D03*
X131927691Y-35235358D03*
X131913000Y-40692725D03*
X127925688Y-41391024D03*
X124888628Y-66328085D03*
X125730000Y-43990000D03*
X125580000Y-45710000D03*
X128728919Y-44824839D03*
X132540000Y-41280000D03*
X137500000Y-62200000D03*
X140667086Y-39688555D03*
X129946000Y-45296528D03*
D52*
X123399288Y-70890713D02*
X123120000Y-71170001D01*
X125378740Y-70944684D02*
X125259711Y-71063713D01*
X123120000Y-71170001D02*
X123120000Y-72145000D01*
X124740287Y-71063713D02*
X124567287Y-70890713D01*
X124612500Y-65182500D02*
X125660000Y-66230000D01*
X125297500Y-63770000D02*
X124612500Y-64455000D01*
X125660000Y-69329892D02*
X126388080Y-70057972D01*
X125259711Y-71063713D02*
X124740287Y-71063713D01*
X126020792Y-70944684D02*
X125378740Y-70944684D01*
X124612500Y-64455000D02*
X124612500Y-65182500D01*
X124567287Y-70890713D02*
X123399288Y-70890713D01*
X126388080Y-70057972D02*
X126388080Y-70577396D01*
X126388080Y-70577396D02*
X126020792Y-70944684D01*
X125660000Y-66230000D02*
X125660000Y-69329892D01*
X135100000Y-47708018D02*
X134058018Y-48750000D01*
X135100000Y-46150000D02*
X135100000Y-47708018D01*
X134058018Y-48750000D02*
X132867500Y-48750000D01*
X125660000Y-72145000D02*
X125660000Y-74210000D01*
X125660000Y-74210000D02*
X125080000Y-74790000D01*
X125080000Y-74790000D02*
X124380000Y-74790000D01*
X120440000Y-75337500D02*
X120987500Y-75337500D01*
X121330000Y-75340000D02*
X122660000Y-74010000D01*
X123270000Y-74010000D02*
X124390000Y-72890000D01*
X122660000Y-74010000D02*
X123270000Y-74010000D01*
X120987500Y-75337500D02*
X120990000Y-75340000D01*
X120990000Y-75340000D02*
X121330000Y-75340000D01*
X136966018Y-48395000D02*
X138425000Y-48395000D01*
X121360000Y-64777500D02*
X121772500Y-65190000D01*
D53*
X142175000Y-63675000D02*
X141325000Y-63675000D01*
D52*
X120320000Y-73030000D02*
X120924994Y-72425006D01*
X138425000Y-47591999D02*
X138282291Y-47449290D01*
X147381200Y-62683000D02*
X148558200Y-63860000D01*
X121923000Y-57195500D02*
X121923000Y-56211344D01*
X122265844Y-55868500D02*
X123061500Y-55868500D01*
X125380000Y-56605000D02*
X124050000Y-56605000D01*
X120367499Y-58967500D02*
X121690000Y-60290001D01*
X125870000Y-75337500D02*
X126962500Y-75337500D01*
X141300000Y-56650000D02*
X139844500Y-56650000D01*
D53*
X148558200Y-63860000D02*
X147718200Y-64700000D01*
D52*
X133573437Y-34225937D02*
X132955504Y-34225937D01*
D53*
X128654000Y-73646000D02*
X139646000Y-73646000D01*
D52*
X126875000Y-43010000D02*
X126875000Y-42497753D01*
X130107500Y-57607500D02*
X130175000Y-57675000D01*
X121690000Y-62700000D02*
X121810000Y-62820000D01*
X121360000Y-63217500D02*
X121360000Y-64777500D01*
X121785000Y-72335000D02*
X121015000Y-72335000D01*
X93203500Y-37026000D02*
X93203500Y-43244000D01*
X121015000Y-72335000D02*
X120924994Y-72425006D01*
X141799938Y-56150062D02*
X145196774Y-56150062D01*
X123022500Y-62820000D02*
X121810000Y-62820000D01*
X123745000Y-56635000D02*
X122570000Y-57810000D01*
D53*
X128654000Y-72336000D02*
X128654000Y-73646000D01*
D52*
X121982500Y-65769116D02*
X121982500Y-65210000D01*
X120924994Y-71864994D02*
X118785000Y-69725000D01*
D53*
X129730000Y-71260000D02*
X128654000Y-72336000D01*
D52*
X134400000Y-52467500D02*
X133709000Y-51776500D01*
X134022982Y-50584000D02*
X134777018Y-50584000D01*
X123061500Y-55868500D02*
X125450000Y-53480000D01*
X131025000Y-54795000D02*
X131295000Y-54525000D01*
X131025000Y-56825000D02*
X131025000Y-54795000D01*
X120924994Y-72425006D02*
X120924994Y-71864994D01*
X120667334Y-57837999D02*
X120367499Y-58137834D01*
X130175000Y-59375000D02*
X130175000Y-60130942D01*
X129650000Y-47290000D02*
X128950000Y-46590000D01*
X120367499Y-58137834D02*
X120367499Y-58967500D01*
X145196774Y-56150062D02*
X147381200Y-58334488D01*
X121690000Y-60290001D02*
X121690000Y-62700000D01*
X128097500Y-48680000D02*
X128097500Y-47442500D01*
X126962500Y-75337500D02*
X127825000Y-74475000D01*
X121050000Y-62907500D02*
X121360000Y-63217500D01*
X134350000Y-38430000D02*
X134350000Y-36650000D01*
X126650000Y-56655000D02*
X125430000Y-56655000D01*
X133709000Y-51776500D02*
X133709000Y-50897982D01*
X130175000Y-57675000D02*
X130175000Y-59375000D01*
X122419706Y-66206322D02*
X121982500Y-65769116D01*
X128097500Y-47442500D02*
X128950000Y-46590000D01*
X126875000Y-42497753D02*
X127400682Y-41972071D01*
X138425000Y-48395000D02*
X138425000Y-47591999D01*
X124020000Y-56635000D02*
X123745000Y-56635000D01*
X121923000Y-56211344D02*
X122265844Y-55868500D01*
X134777018Y-50584000D02*
X136966018Y-48395000D01*
X125450000Y-53480000D02*
X125450000Y-50990000D01*
X131025000Y-56825000D02*
X130175000Y-57675000D01*
X133709000Y-50897982D02*
X134022982Y-50584000D01*
X122537500Y-57810000D02*
X121923000Y-57195500D01*
X134082500Y-47600000D02*
X134481399Y-47201101D01*
X123780000Y-48710000D02*
X123780000Y-49320000D01*
X132832504Y-34102937D02*
X132955504Y-34225937D01*
X134350000Y-47532500D02*
X134350000Y-46050000D01*
D53*
X139646000Y-73646000D02*
X140025000Y-74025000D01*
D52*
X134777018Y-50584000D02*
X135395518Y-51202500D01*
X93203500Y-43244000D02*
X91972500Y-44475000D01*
X120320000Y-74352500D02*
X120320000Y-73030000D01*
X146247500Y-53040000D02*
X146247500Y-53557500D01*
X130175000Y-60130942D02*
X131413512Y-61369454D01*
X123780000Y-49320000D02*
X125450000Y-50990000D01*
X141300000Y-56650000D02*
X141799938Y-56150062D01*
X126235080Y-37668317D02*
X126799263Y-38232500D01*
D53*
X147718200Y-64700000D02*
X143200000Y-64700000D01*
X140025000Y-74025000D02*
X141325000Y-74025000D01*
D52*
X121280501Y-57837999D02*
X120667334Y-57837999D01*
X139450000Y-56718947D02*
X137225000Y-58943947D01*
D53*
X127825000Y-74475000D02*
X128654000Y-73646000D01*
D52*
X147381200Y-58334488D02*
X147381200Y-62683000D01*
X134481399Y-47201101D02*
X134481399Y-44581399D01*
X121810000Y-62820000D02*
X121137500Y-62820000D01*
X121923000Y-57195500D02*
X121280501Y-57837999D01*
D53*
X143200000Y-64700000D02*
X142175000Y-63675000D01*
D52*
X129470000Y-57607500D02*
X130107500Y-57607500D01*
X134300000Y-52567500D02*
X134300000Y-54807500D01*
X125747500Y-65287500D02*
X126828356Y-66368356D01*
X139844500Y-56650000D02*
X139450000Y-56255500D01*
X146247500Y-53557500D02*
X146920000Y-54230000D01*
X126828356Y-66368356D02*
X126828356Y-66638357D01*
X135957500Y-57785000D02*
X137487000Y-56255500D01*
X136713000Y-55212000D02*
X135800000Y-56125000D01*
X137346500Y-57785000D02*
X137433947Y-57785000D01*
X137433947Y-57785000D02*
X138500000Y-56718947D01*
X138500000Y-55792053D02*
X137919947Y-55212000D01*
X137919947Y-55212000D02*
X136713000Y-55212000D01*
X118557500Y-72470000D02*
X119917969Y-72470000D01*
X127968353Y-36492162D02*
X126844336Y-36492162D01*
X123944000Y-44824000D02*
X124925000Y-45805000D01*
X134167712Y-62119000D02*
X131387330Y-62119000D01*
X135025000Y-59375000D02*
X135025000Y-58521000D01*
X125291264Y-39700580D02*
X123944000Y-41047844D01*
X133082500Y-53750000D02*
X132587500Y-53255000D01*
X128150000Y-57155000D02*
X128570592Y-57155000D01*
X132892437Y-34679937D02*
X132480063Y-34679937D01*
X126562816Y-36492162D02*
X126844336Y-36492162D01*
X132480063Y-34679937D02*
X132360126Y-34560000D01*
X135025000Y-59375000D02*
X135025000Y-61261712D01*
X128020000Y-36543809D02*
X128020000Y-38232500D01*
X126597500Y-40640000D02*
X125658080Y-39700580D01*
X130573000Y-47653000D02*
X130573000Y-44775764D01*
X133550000Y-37150000D02*
X133550000Y-35437500D01*
X128570592Y-57155000D02*
X130068000Y-55657592D01*
X134250000Y-56800000D02*
X134250000Y-56067500D01*
X125658080Y-39700580D02*
X125658080Y-37396898D01*
X135800000Y-54442500D02*
X134200000Y-56042500D01*
X119917969Y-72470000D02*
X120220656Y-72167313D01*
X126607500Y-41680000D02*
X126607500Y-40650000D01*
X118557500Y-72418632D02*
X116700000Y-70561132D01*
X132587500Y-53255000D02*
X131295000Y-53255000D01*
X125658080Y-39700580D02*
X125291264Y-39700580D01*
X133224000Y-50301500D02*
X133224000Y-52618500D01*
X92032500Y-36990000D02*
X92032500Y-39335000D01*
X133600000Y-40115006D02*
X133600000Y-37200000D01*
X124915000Y-48710000D02*
X124915000Y-47320000D01*
X130068000Y-55657592D02*
X130068000Y-53582001D01*
X132925000Y-56825000D02*
X132925000Y-53907500D01*
X124925000Y-45805000D02*
X124925000Y-47310000D01*
X133224000Y-52618500D02*
X132587500Y-53255000D01*
X131672500Y-48750000D02*
X133224000Y-50301500D01*
X135800000Y-54075000D02*
X137455500Y-54075000D01*
X127968353Y-36492162D02*
X128020000Y-36543809D01*
X123944000Y-41047844D02*
X123944000Y-44824000D01*
X130573000Y-44775764D02*
X133868000Y-41480764D01*
X134225000Y-56825000D02*
X134250000Y-56800000D01*
X118785000Y-61980000D02*
X121222500Y-61980000D01*
X135025000Y-61261712D02*
X134167712Y-62119000D01*
X133868000Y-40383006D02*
X133600000Y-40115006D01*
X130395001Y-53255000D02*
X131295000Y-53255000D01*
X132360126Y-34560000D02*
X129900515Y-34560000D01*
X116700000Y-62840000D02*
X117560000Y-61980000D01*
X133600000Y-35387500D02*
X132892437Y-34679937D01*
X135025000Y-58521000D02*
X134250000Y-57746000D01*
X131670000Y-48750000D02*
X130573000Y-47653000D01*
X132925000Y-56825000D02*
X134225000Y-56825000D01*
X134250000Y-57746000D02*
X134250000Y-56800000D01*
X133868000Y-41480764D02*
X133868000Y-40383006D01*
X130068000Y-53582001D02*
X130395001Y-53255000D01*
X116700000Y-70561132D02*
X116700000Y-62840000D01*
X129900515Y-34560000D02*
X127968353Y-36492162D01*
X125658080Y-37396898D02*
X126562816Y-36492162D01*
X130957000Y-65087000D02*
X128614000Y-62744000D01*
X140200000Y-54700000D02*
X141250000Y-54700000D01*
X130900000Y-70380000D02*
X130957000Y-70323000D01*
X128614000Y-62744000D02*
X128614000Y-61581947D01*
X126102052Y-59069999D02*
X125300000Y-59069999D01*
X144102500Y-51212500D02*
X145080002Y-52190002D01*
X144478200Y-54700000D02*
X148558200Y-58780000D01*
X141350000Y-54700000D02*
X144478200Y-54700000D01*
X145112500Y-52222500D02*
X145080002Y-52190002D01*
X145112500Y-53040000D02*
X145112500Y-52222500D01*
X130957000Y-70323000D02*
X130957000Y-65087000D01*
X144102500Y-50935000D02*
X144102500Y-51212500D01*
X139480500Y-53980500D02*
X140200000Y-54700000D01*
X139450000Y-53980500D02*
X138500000Y-53980500D01*
X128614000Y-61581947D02*
X126102052Y-59069999D01*
X134400000Y-51332500D02*
X135400000Y-52332500D01*
X151400000Y-57150000D02*
X152080000Y-57830000D01*
X135400000Y-52397500D02*
X136600000Y-52397500D01*
X152080000Y-57830000D02*
X152080000Y-58500000D01*
X143635338Y-52937000D02*
X147848338Y-57150000D01*
X136600000Y-52397500D02*
X137139500Y-52937000D01*
X147848338Y-57150000D02*
X151400000Y-57150000D01*
X137139500Y-52937000D02*
X143635338Y-52937000D01*
X118810000Y-54767500D02*
X119382500Y-54767500D01*
X119625000Y-54525000D02*
X120645000Y-54525000D01*
X117730000Y-54737500D02*
X118780000Y-54737500D01*
X120645000Y-54525000D02*
X122740470Y-54525000D01*
X122740470Y-54525000D02*
X122882735Y-54382735D01*
X119382500Y-54767500D02*
X119625000Y-54525000D01*
D54*
X110450000Y-75540000D02*
X104400000Y-75540000D01*
X110400000Y-73380000D02*
X110958295Y-73938295D01*
X110958295Y-73938295D02*
X110958295Y-75031705D01*
X109180000Y-73380000D02*
X110400000Y-73380000D01*
X104380000Y-75520000D02*
X101890000Y-75520000D01*
X110958295Y-75031705D02*
X110450000Y-75540000D01*
X105282500Y-71202500D02*
X105282500Y-70217500D01*
X106651764Y-72571764D02*
X105282500Y-71202500D01*
X106651764Y-72571764D02*
X107113528Y-72110000D01*
X97020001Y-53300001D02*
X98290000Y-54570000D01*
X99500001Y-51604999D02*
X98247501Y-52857499D01*
X98247501Y-52857499D02*
X97250001Y-52857500D01*
X107113528Y-72110000D02*
X109180000Y-72110000D01*
X99500002Y-50240002D02*
X97517500Y-48257500D01*
X100590000Y-72220000D02*
X98281764Y-74528236D01*
X102640001Y-68897999D02*
X102640001Y-72089999D01*
X97250000Y-48257501D02*
X95682499Y-48257501D01*
X95682499Y-48257501D02*
X95630000Y-48310000D01*
X104400000Y-72220000D02*
X106651764Y-74471764D01*
X108702500Y-59730000D02*
X106440000Y-59730000D01*
X105500000Y-66038000D02*
X109062000Y-69600000D01*
X104380000Y-72220000D02*
X100590000Y-72220000D01*
X99500002Y-50470000D02*
X99500002Y-50240002D01*
X105500000Y-66038000D02*
X102640001Y-68897999D01*
X106440000Y-59730000D02*
X106430000Y-59720000D01*
X108760000Y-74630000D02*
X106810000Y-74630000D01*
D53*
X109767500Y-58900000D02*
X109767500Y-58487500D01*
X106732501Y-55452501D02*
X97442447Y-55452501D01*
X109767500Y-58487500D02*
X106732501Y-55452501D01*
D52*
X109767500Y-58900000D02*
X109767500Y-61852500D01*
D53*
X95825000Y-51982501D02*
X97250000Y-50557501D01*
X95825000Y-53835054D02*
X95825000Y-51982501D01*
X97442447Y-55452501D02*
X95825000Y-53835054D01*
D52*
X134333085Y-43843000D02*
X133550000Y-44626085D01*
X135117000Y-44260288D02*
X134699712Y-43843000D01*
X139380000Y-45453424D02*
X138703576Y-44777000D01*
X134699712Y-43843000D02*
X134333085Y-43843000D01*
X139727000Y-48818947D02*
X139727000Y-48043264D01*
X139727000Y-48043264D02*
X139380000Y-47696264D01*
X133550000Y-44626085D02*
X133550000Y-45650000D01*
X138880947Y-49665000D02*
X139727000Y-48818947D01*
X136817600Y-44260288D02*
X135117000Y-44260288D01*
X137334312Y-44777000D02*
X136817600Y-44260288D01*
X138703576Y-44777000D02*
X137334312Y-44777000D01*
X136900000Y-49700000D02*
X138390000Y-49700000D01*
X139380000Y-47696264D02*
X139380000Y-45453424D01*
X136567500Y-50032500D02*
X136900000Y-49700000D01*
X140722500Y-45909212D02*
X140241644Y-45428356D01*
X137994235Y-46831000D02*
X138753000Y-46072235D01*
X136077000Y-46831000D02*
X137994235Y-46831000D01*
X135950000Y-45650000D02*
X135950000Y-46704000D01*
X135950000Y-46704000D02*
X136077000Y-46831000D01*
X125299999Y-60370000D02*
X126760000Y-60370000D01*
X128160000Y-62960000D02*
X130330000Y-65130000D01*
X126760000Y-60370000D02*
X128160000Y-61770000D01*
X128160000Y-61770000D02*
X128160000Y-62960000D01*
X130330000Y-65130000D02*
X130330000Y-65800000D01*
X130459187Y-35398859D02*
X131150000Y-36089672D01*
X131150000Y-36089672D02*
X131150000Y-37550000D01*
X137557312Y-41000000D02*
X137073000Y-41484312D01*
X134595294Y-42900000D02*
X134175294Y-42480000D01*
X137073000Y-41484312D02*
X137073000Y-41927000D01*
X136100000Y-42900000D02*
X134595294Y-42900000D01*
X137073000Y-41927000D02*
X136100000Y-42900000D01*
X131175011Y-35298681D02*
X131950000Y-36073670D01*
X131950000Y-36073670D02*
X131950000Y-37150000D01*
X128020000Y-39427500D02*
X128020000Y-40410000D01*
X128020000Y-40410000D02*
X127730000Y-40700000D01*
X128020000Y-39427500D02*
X126880000Y-39427500D01*
X129700000Y-39400000D02*
X128047500Y-39400000D01*
X123740000Y-62340000D02*
X123022500Y-61622500D01*
X123117500Y-65210000D02*
X123117500Y-63865000D01*
X123022500Y-63770000D02*
X123320000Y-63770000D01*
X123022500Y-59997500D02*
X123300000Y-59720000D01*
X123320000Y-63770000D02*
X123740000Y-63350000D01*
X123740000Y-63350000D02*
X123740000Y-62340000D01*
X123022500Y-61622500D02*
X123022500Y-59997500D01*
X133925000Y-61367000D02*
X133800000Y-61492000D01*
X133925000Y-59375000D02*
X133925000Y-61367000D01*
X137857383Y-38567383D02*
X137156874Y-38567383D01*
X129045476Y-41800000D02*
X128573000Y-42272476D01*
X135230712Y-62746000D02*
X130170660Y-62746000D01*
X128573000Y-43747000D02*
X128497000Y-43823000D01*
X136125000Y-59375000D02*
X136125000Y-61851712D01*
X130170660Y-62746000D02*
X129752330Y-62327670D01*
X136125000Y-61851712D02*
X135230712Y-62746000D01*
X129690000Y-62390000D02*
X129752330Y-62327670D01*
X128573000Y-42272476D02*
X128573000Y-43747000D01*
X138325000Y-59375000D02*
X138325000Y-58521000D01*
X139186000Y-57660000D02*
X142810000Y-57660000D01*
X136750000Y-37150000D02*
X137314218Y-36585782D01*
X137314218Y-36585782D02*
X138440244Y-36585782D01*
X138325000Y-58521000D02*
X139186000Y-57660000D01*
X141927500Y-47010000D02*
X141927500Y-46040000D01*
X141947000Y-48692947D02*
X141947000Y-47109500D01*
X142919053Y-49665000D02*
X141947000Y-48692947D01*
X138880947Y-50935000D02*
X140690000Y-49125947D01*
X140690000Y-49125947D02*
X140690000Y-47052500D01*
X136797500Y-51202500D02*
X137100000Y-50900000D01*
X136600000Y-51202500D02*
X136797500Y-51202500D01*
X137100000Y-50900000D02*
X138390000Y-50900000D01*
X120645000Y-53255000D02*
X119028000Y-53255000D01*
X118810000Y-52487500D02*
X118810000Y-53473000D01*
X119028000Y-53255000D02*
X118810000Y-53473000D01*
X116730000Y-74650000D02*
X115480000Y-74650000D01*
X117380000Y-74907500D02*
X118730000Y-74907500D01*
X117111764Y-75031764D02*
X116730000Y-74650000D01*
X117255736Y-75031764D02*
X117111764Y-75031764D01*
X139327000Y-42018517D02*
X139327000Y-42272999D01*
X139327000Y-42272999D02*
X138999999Y-42600000D01*
X138999999Y-42600000D02*
X138200000Y-42600000D01*
X139450000Y-41895517D02*
X139327000Y-42018517D01*
X119495000Y-67532212D02*
X122399501Y-70436713D01*
X135310000Y-42290000D02*
X135397138Y-42290000D01*
X135397138Y-42290000D02*
X135428209Y-42258929D01*
X135150000Y-37550000D02*
X135150000Y-42130000D01*
X135278929Y-42258929D02*
X135428209Y-42258929D01*
X135150000Y-42130000D02*
X135278929Y-42258929D01*
X122399501Y-70436713D02*
X124999999Y-70436713D01*
X136070000Y-42080000D02*
X136070000Y-42042917D01*
X121108000Y-65293000D02*
X121108000Y-68432448D01*
X135730500Y-37369500D02*
X135730500Y-41740500D01*
X135976092Y-41986092D02*
X136126825Y-41986092D01*
X135730500Y-41740500D02*
X135976092Y-41986092D01*
X124742998Y-69293000D02*
X125761080Y-70311082D01*
X125761080Y-70311082D02*
X125761080Y-70317684D01*
X136070000Y-42042917D02*
X136126825Y-41986092D01*
X135950000Y-37150000D02*
X135730500Y-37369500D01*
X121968552Y-69293000D02*
X124742998Y-69293000D01*
X120335000Y-64520000D02*
X121108000Y-65293000D01*
X118785000Y-64520000D02*
X120335000Y-64520000D01*
X121108000Y-68432448D02*
X121968552Y-69293000D01*
X132750000Y-45650000D02*
X132750000Y-46900000D01*
X132750000Y-46900000D02*
X132820000Y-46970000D01*
X132825000Y-59375000D02*
X132825000Y-61345000D01*
X132825000Y-61345000D02*
X133000000Y-61520000D01*
X132902575Y-43097426D02*
X133549895Y-43097426D01*
X131150000Y-45650000D02*
X131150000Y-44850001D01*
X131150000Y-44850001D02*
X132902575Y-43097426D01*
X128091377Y-42103104D02*
X127595410Y-42599071D01*
X129700000Y-41000000D02*
X128900001Y-41000000D01*
X123055000Y-66802904D02*
X123593450Y-66264454D01*
X128552688Y-41650736D02*
X128100320Y-42103104D01*
X128100320Y-42103104D02*
X128091377Y-42103104D01*
X127595410Y-42599071D02*
X127595410Y-42666874D01*
X128900001Y-41000000D02*
X128552688Y-41347313D01*
X128552688Y-41347313D02*
X128552688Y-41650736D01*
X130499999Y-38600000D02*
X129700000Y-38600000D01*
X130877000Y-41804616D02*
X130877000Y-38977001D01*
X131000000Y-41927616D02*
X130877000Y-41804616D01*
X124697448Y-68737000D02*
X122417001Y-68737000D01*
X124788156Y-68646292D02*
X124697448Y-68737000D01*
X124959603Y-68646292D02*
X124788156Y-68646292D01*
X130877000Y-38977001D02*
X130499999Y-38600000D01*
X122417001Y-68737000D02*
X121850000Y-68169999D01*
D53*
X105500000Y-63550000D02*
X105500000Y-63077500D01*
X109010000Y-67060000D02*
X105500000Y-63550000D01*
X106153158Y-60422500D02*
X105500000Y-59769342D01*
X109235000Y-64520000D02*
X107262500Y-62547500D01*
X107262500Y-62547500D02*
X107262500Y-61421316D01*
X105500000Y-59769342D02*
X105500000Y-58113000D01*
X107262500Y-61421316D02*
X106263684Y-60422500D01*
X106263684Y-60422500D02*
X106153158Y-60422500D01*
D52*
X118369500Y-49593000D02*
X117672500Y-50290000D01*
X124020000Y-52070000D02*
X121543000Y-49593000D01*
X117672500Y-50290000D02*
X117672500Y-53545000D01*
X121543000Y-49593000D02*
X118369500Y-49593000D01*
X124273000Y-52070000D02*
X124020000Y-52070000D01*
X134145033Y-43389000D02*
X136049850Y-43389000D01*
X131950000Y-44850001D02*
X133075575Y-43724426D01*
X136049850Y-43389000D02*
X136217850Y-43557000D01*
X131950000Y-45650000D02*
X131950000Y-44850001D01*
X133809607Y-43724426D02*
X134145033Y-43389000D01*
X133075575Y-43724426D02*
X133809607Y-43724426D01*
X139770000Y-38629999D02*
X139770000Y-37397500D01*
X138999999Y-39400000D02*
X139770000Y-38629999D01*
X138200000Y-39400000D02*
X138999999Y-39400000D01*
X140698103Y-42241000D02*
X141658897Y-42241000D01*
X139460000Y-43479103D02*
X140698103Y-42241000D01*
X142429000Y-41470897D02*
X142429000Y-39701000D01*
X139460000Y-43730000D02*
X139460000Y-43479103D01*
X141658897Y-42241000D02*
X142429000Y-41470897D01*
X138200000Y-44200000D02*
X138990000Y-44200000D01*
X142429000Y-39701000D02*
X143660000Y-38470000D01*
X138990000Y-44200000D02*
X139460000Y-43730000D01*
X152080000Y-66650000D02*
X153330000Y-65400000D01*
X153330000Y-65400000D02*
X154030000Y-65400000D01*
X152080000Y-61600000D02*
X152080000Y-63550000D01*
X120645000Y-51985000D02*
X119442500Y-51985000D01*
X119442500Y-51985000D02*
X118810000Y-51352500D01*
X137405313Y-45650000D02*
X137645031Y-45410282D01*
X136750000Y-45650000D02*
X137405313Y-45650000D01*
X133191866Y-41474082D02*
X133191866Y-40593584D01*
X129700000Y-43400000D02*
X131265948Y-43400000D01*
X131265948Y-43400000D02*
X133191866Y-41474082D01*
X131579240Y-41026485D02*
X131913000Y-40692725D01*
X131187457Y-42600000D02*
X131579240Y-42208217D01*
X129700000Y-42600000D02*
X131187457Y-42600000D01*
X131579240Y-42208217D02*
X131579240Y-41026485D01*
X124325000Y-66815655D02*
X124812570Y-66328085D01*
X128573000Y-40527001D02*
X128573000Y-40684948D01*
X128573000Y-40684948D02*
X128043689Y-41214260D01*
X124812570Y-66328085D02*
X124888628Y-66328085D01*
X128900001Y-40200000D02*
X128573000Y-40527001D01*
X128043689Y-41214260D02*
X128043689Y-41273023D01*
X128043689Y-41273023D02*
X127925688Y-41391024D01*
X129700000Y-40200000D02*
X128900001Y-40200000D01*
X132522000Y-51758000D02*
X132295000Y-51985000D01*
X130449500Y-49397000D02*
X131557000Y-49397000D01*
X132295000Y-51985000D02*
X131295000Y-51985000D01*
X129650000Y-48597500D02*
X130449500Y-49397000D01*
X131557000Y-49397000D02*
X132522000Y-50362000D01*
X132522000Y-50362000D02*
X132522000Y-51758000D01*
X127327000Y-56399500D02*
X126848000Y-55920500D01*
X127093592Y-57632000D02*
X127327000Y-57398592D01*
X126673000Y-57632000D02*
X127093592Y-57632000D01*
X122989344Y-56615000D02*
X122570000Y-56615000D01*
X127327000Y-57398592D02*
X127327000Y-56399500D01*
X123683844Y-55920500D02*
X122989344Y-56615000D01*
X126848000Y-55920500D02*
X123683844Y-55920500D01*
X126025000Y-57155000D02*
X126650000Y-57155000D01*
X125380000Y-57800000D02*
X126025000Y-57155000D01*
X125575000Y-43010000D02*
X125575000Y-43835000D01*
X125575000Y-43835000D02*
X125730000Y-43990000D01*
X124398000Y-41644500D02*
X124398000Y-44528000D01*
X125580000Y-45710000D02*
X125575000Y-45715000D01*
X125402500Y-40640000D02*
X124398000Y-41644500D01*
X125575000Y-45715000D02*
X125575000Y-47310000D01*
X124398000Y-44528000D02*
X125580000Y-45710000D01*
X124925000Y-42248053D02*
X125412500Y-41760553D01*
X128956712Y-45500000D02*
X126353288Y-45500000D01*
X129357000Y-45099712D02*
X128956712Y-45500000D01*
X124925000Y-43010000D02*
X124925000Y-42248053D01*
X129357000Y-44543000D02*
X129357000Y-45099712D01*
X124925000Y-44071712D02*
X124925000Y-43010000D01*
X129700000Y-44200000D02*
X129357000Y-44543000D01*
X126353288Y-45500000D02*
X124925000Y-44071712D01*
X126348000Y-43133000D02*
X126348000Y-43887000D01*
X132540000Y-41280000D02*
X132540000Y-40340000D01*
X132540000Y-40340000D02*
X132780000Y-40100000D01*
X132780000Y-40100000D02*
X132780000Y-37180000D01*
X127285839Y-44824839D02*
X128728919Y-44824839D01*
X126225000Y-43010000D02*
X126348000Y-43133000D01*
X126348000Y-43887000D02*
X127285839Y-44824839D01*
X131295000Y-50715000D02*
X128762500Y-50715000D01*
X128762500Y-50715000D02*
X126827500Y-48780000D01*
X126827500Y-48780000D02*
X126827500Y-47357500D01*
X114084764Y-71315236D02*
X116210000Y-69190000D01*
X119427000Y-74409500D02*
X119427000Y-75331868D01*
X119030104Y-75728764D02*
X114298764Y-75728764D01*
X118490000Y-59040000D02*
X119052072Y-59040000D01*
X118730000Y-73712500D02*
X119427000Y-74409500D01*
X119427000Y-75331868D02*
X119030104Y-75728764D01*
X114298764Y-75728764D02*
X114084764Y-75514764D01*
X116210000Y-69190000D02*
X116210000Y-61320000D01*
X116210000Y-61320000D02*
X118490000Y-59040000D01*
X114084764Y-75514764D02*
X114084764Y-71315236D01*
X127673000Y-58132000D02*
X128150000Y-57655000D01*
X129068000Y-62530053D02*
X129737947Y-63200000D01*
X121090000Y-58389999D02*
X121300001Y-58600000D01*
X123250000Y-58600000D02*
X124020000Y-57830000D01*
X121300001Y-58600000D02*
X123250000Y-58600000D01*
X128150000Y-57655000D02*
X129068000Y-58573000D01*
X126098000Y-58132000D02*
X127673000Y-58132000D01*
X129068000Y-58573000D02*
X129068000Y-62530053D01*
X139770000Y-36202500D02*
X140606378Y-36202500D01*
X142297000Y-39003000D02*
X141611445Y-39688555D01*
X140606378Y-36202500D02*
X142297000Y-37893122D01*
X125745500Y-58484500D02*
X126098000Y-58132000D01*
X136500000Y-63200000D02*
X137500000Y-62200000D01*
X124020000Y-57830000D02*
X124674500Y-58484500D01*
X142297000Y-37893122D02*
X142297000Y-39003000D01*
X141611445Y-39688555D02*
X140667086Y-39688555D01*
X129737947Y-63200000D02*
X136500000Y-63200000D01*
X124674500Y-58484500D02*
X125745500Y-58484500D01*
X117100000Y-72070000D02*
X115520000Y-72070000D01*
X117362500Y-72332500D02*
X117100000Y-72070000D01*
X117380000Y-73712500D02*
X117380000Y-72487500D01*
X126761000Y-45970000D02*
X129272528Y-45970000D01*
X126225000Y-47310000D02*
X126225000Y-46506000D01*
X128210000Y-52960000D02*
X128210000Y-56595000D01*
X126225000Y-47310000D02*
X126225000Y-50975000D01*
X126225000Y-46506000D02*
X126761000Y-45970000D01*
X126225000Y-50975000D02*
X128210000Y-52960000D01*
X129272528Y-45970000D02*
X129946000Y-45296528D01*
X120645000Y-50715000D02*
X119765000Y-50715000D01*
X119765000Y-50715000D02*
X119307000Y-50257000D01*
X119307000Y-50257000D02*
X118800000Y-50257000D01*
M02*
