G04 #@! TF.GenerationSoftware,KiCad,Pcbnew,8.0.0*
G04 #@! TF.CreationDate,2024-04-27T08:46:39-07:00*
G04 #@! TF.ProjectId,module controller,6d6f6475-6c65-4206-936f-6e74726f6c6c,rev?*
G04 #@! TF.SameCoordinates,Original*
G04 #@! TF.FileFunction,Copper,L3,Inr*
G04 #@! TF.FilePolarity,Positive*
%FSLAX46Y46*%
G04 Gerber Fmt 4.6, Leading zero omitted, Abs format (unit mm)*
G04 Created by KiCad (PCBNEW 8.0.0) date 2024-04-27 08:46:39*
%MOMM*%
%LPD*%
G01*
G04 APERTURE LIST*
G04 #@! TA.AperFunction,ComponentPad*
%ADD10C,2.500000*%
G04 #@! TD*
G04 #@! TA.AperFunction,ComponentPad*
%ADD11C,1.700000*%
G04 #@! TD*
G04 #@! TA.AperFunction,ComponentPad*
%ADD12R,2.667000X2.667000*%
G04 #@! TD*
G04 #@! TA.AperFunction,ComponentPad*
%ADD13C,2.667000*%
G04 #@! TD*
G04 #@! TA.AperFunction,ComponentPad*
%ADD14R,1.700000X1.700000*%
G04 #@! TD*
G04 #@! TA.AperFunction,ComponentPad*
%ADD15O,1.700000X1.700000*%
G04 #@! TD*
G04 #@! TA.AperFunction,ViaPad*
%ADD16C,0.500000*%
G04 #@! TD*
G04 #@! TA.AperFunction,Conductor*
%ADD17C,0.254000*%
G04 #@! TD*
G04 APERTURE END LIST*
D10*
X101330000Y-74520000D03*
X98330000Y-74520000D03*
D11*
X141120000Y-38470000D03*
D12*
X105500000Y-70000000D03*
D13*
X105500000Y-66038000D03*
D11*
X148558200Y-71480000D03*
X148558200Y-68940000D03*
X148558200Y-58780000D03*
D14*
X94512500Y-39395000D03*
D15*
X91972500Y-39395000D03*
X94512500Y-41935000D03*
X91972500Y-41935000D03*
X94512500Y-44475000D03*
X91972500Y-44475000D03*
D16*
X134350000Y-38430000D03*
X126235080Y-37668317D03*
X143610000Y-46290000D03*
X138969345Y-37127899D03*
X138282291Y-47449290D03*
X146920000Y-54230000D03*
X126828356Y-66638357D03*
X128950000Y-46590000D03*
X134481399Y-44581399D03*
X127400682Y-41972071D03*
X120924994Y-72425006D03*
X141277042Y-47684083D03*
X122419706Y-66206322D03*
X125450000Y-50990000D03*
X135250000Y-70720000D03*
X131413512Y-61369454D03*
X132832504Y-34102937D03*
X129730000Y-71260000D03*
X136810000Y-40110000D03*
X131454000Y-40148391D03*
X131387330Y-62119000D03*
X126844336Y-36492162D03*
X120220656Y-72167313D03*
X130900000Y-70380000D03*
X137933614Y-34801408D03*
X145080002Y-52190002D03*
X122882735Y-54382735D03*
X98290000Y-54570000D03*
X95630000Y-48310000D03*
X106430000Y-59720000D03*
X101560000Y-64740000D03*
X101350000Y-60600000D03*
X138753000Y-46072235D03*
X140241644Y-45428356D03*
X130330000Y-65800000D03*
X130459187Y-35398859D03*
X134175294Y-42480000D03*
X131175011Y-35298681D03*
X127730000Y-40700000D03*
X137156874Y-38567383D03*
X133800000Y-61492000D03*
X128497000Y-43823000D03*
X129752330Y-62327670D03*
X138440244Y-36585782D03*
X142810000Y-57660000D03*
X139450000Y-41895517D03*
X124999999Y-70436713D03*
X135428209Y-42258929D03*
X136126825Y-41986092D03*
X125761080Y-70317684D03*
X133000000Y-61520000D03*
X132820000Y-46970000D03*
X133549895Y-43097426D03*
X123593450Y-66264454D03*
X127595410Y-42666874D03*
X124959603Y-68646292D03*
X131000000Y-41927616D03*
X126860000Y-63250000D03*
X124273000Y-52070000D03*
X136217850Y-43557000D03*
X154030000Y-65400000D03*
X137645031Y-45410282D03*
X137469383Y-37902089D03*
X132655318Y-35329530D03*
X133191866Y-40593584D03*
X131927691Y-35235358D03*
X131913000Y-40692725D03*
X127925688Y-41391024D03*
X124888628Y-66328085D03*
X125730000Y-43990000D03*
X125580000Y-45710000D03*
X128728919Y-44824839D03*
X132540000Y-41280000D03*
X137500000Y-62200000D03*
X140667086Y-39688555D03*
X129946000Y-45296528D03*
D17*
X96212516Y-38792516D02*
X95584000Y-38164000D01*
X122115784Y-38952230D02*
X118471151Y-36848000D01*
X127909356Y-67086121D02*
X127276120Y-67719357D01*
X123164677Y-69223292D02*
X120220656Y-72167313D01*
X127276120Y-67719357D02*
X126702540Y-67719357D01*
X131387330Y-62612670D02*
X127909356Y-66090644D01*
X99869583Y-38792516D02*
X96212516Y-38792516D01*
X118471151Y-36848000D02*
X103237583Y-36848000D01*
X126702540Y-67719357D02*
X125198605Y-69223292D01*
X125789560Y-38952230D02*
X122115784Y-38952230D01*
X126844336Y-36492162D02*
X126844336Y-37897454D01*
X127909356Y-66090644D02*
X127909356Y-67086121D01*
X95584000Y-38164000D02*
X93203500Y-38164000D01*
X126844336Y-37897454D02*
X125789560Y-38952230D01*
X103237583Y-36848000D02*
X99869583Y-38792516D01*
X131387330Y-62119000D02*
X131387330Y-62612670D01*
X93203500Y-38164000D02*
X91972500Y-39395000D01*
X125198605Y-69223292D02*
X123164677Y-69223292D01*
X147708200Y-59630000D02*
X141650000Y-59630000D01*
X148558200Y-58780000D02*
X147708200Y-59630000D01*
X141650000Y-59630000D02*
X130900000Y-70380000D01*
X148558200Y-71480000D02*
X144438200Y-75600000D01*
X111100000Y-75600000D02*
X105500000Y-70000000D01*
X144438200Y-75600000D02*
X111100000Y-75600000D01*
X107460000Y-67998000D02*
X105500000Y-66038000D01*
X148558200Y-68940000D02*
X147300000Y-70198200D01*
X107460000Y-71080000D02*
X107460000Y-67998000D01*
X147300000Y-70198200D02*
X147300000Y-71710000D01*
X147300000Y-71710000D02*
X144010000Y-75000000D01*
X144010000Y-75000000D02*
X111380000Y-75000000D01*
X111380000Y-75000000D02*
X107460000Y-71080000D01*
X136131000Y-47821235D02*
X136131000Y-61439816D01*
X131770816Y-65800000D02*
X130330000Y-65800000D01*
X138507000Y-45445235D02*
X136131000Y-47821235D01*
X139917919Y-38470000D02*
X138507000Y-39880919D01*
X136131000Y-61439816D02*
X131770816Y-65800000D01*
X138507000Y-39880919D02*
X138507000Y-45445235D01*
X141120000Y-38470000D02*
X139917919Y-38470000D01*
X129984983Y-35398859D02*
X125977612Y-39406230D01*
X103359232Y-37302000D02*
X99933724Y-39279718D01*
X99933724Y-39279718D02*
X94924838Y-39279718D01*
X130459187Y-35398859D02*
X129984983Y-35398859D01*
X121949425Y-39380418D02*
X118349503Y-37302000D01*
X118349503Y-37302000D02*
X103359232Y-37302000D01*
X121975237Y-39406230D02*
X121949425Y-39380418D01*
X125977612Y-39406230D02*
X121975237Y-39406230D01*
X130133000Y-40073000D02*
X132540000Y-42480000D01*
X127470288Y-40073000D02*
X130133000Y-40073000D01*
X132540000Y-42480000D02*
X134175294Y-42480000D01*
X100812052Y-46270000D02*
X121273288Y-46270000D01*
X96477052Y-41935000D02*
X100812052Y-46270000D01*
X94512500Y-41935000D02*
X96477052Y-41935000D01*
X121273288Y-46270000D02*
X127470288Y-40073000D01*
X103480881Y-37756000D02*
X99997865Y-39766921D01*
X95824000Y-40626000D02*
X93281500Y-40626000D01*
X131175011Y-35533093D02*
X126848104Y-39860000D01*
X93281500Y-40626000D02*
X91972500Y-41935000D01*
X131175011Y-35298681D02*
X131175011Y-35533093D01*
X122160230Y-39860230D02*
X121920000Y-39860230D01*
X126848104Y-39860000D02*
X122160460Y-39860000D01*
X121740230Y-39860230D02*
X121559566Y-39679566D01*
X118227855Y-37756000D02*
X103480881Y-37756000D01*
X121559566Y-39679566D02*
X118227855Y-37756000D01*
X99997865Y-39766921D02*
X96683079Y-39766921D01*
X96683079Y-39766921D02*
X95824000Y-40626000D01*
X121920000Y-39860230D02*
X121740230Y-39860230D01*
X122160460Y-39860000D02*
X122160230Y-39860230D01*
X121706000Y-46724000D02*
X100554000Y-46724000D01*
X98305000Y-44475000D02*
X94512500Y-44475000D01*
X127730000Y-40700000D02*
X121706000Y-46724000D01*
X100554000Y-46724000D02*
X98305000Y-44475000D01*
X134435006Y-43182522D02*
X134294190Y-43182522D01*
X133800000Y-43676712D02*
X133800000Y-61492000D01*
X137127844Y-38567383D02*
X137156874Y-38567383D01*
X134682850Y-42176366D02*
X134802294Y-42295810D01*
X134294190Y-43182522D02*
X133800000Y-43676712D01*
X137156874Y-38683788D02*
X134682850Y-41157812D01*
X137156874Y-38567383D02*
X137156874Y-38683788D01*
X134802294Y-42815234D02*
X134435006Y-43182522D01*
X134682850Y-41157812D02*
X134682850Y-42176366D01*
X134802294Y-42295810D02*
X134802294Y-42815234D01*
X137109042Y-38548581D02*
X137127844Y-38567383D01*
X129319000Y-45556240D02*
X129319000Y-44542288D01*
X129752330Y-62327670D02*
X129752330Y-45989570D01*
X128599712Y-43823000D02*
X128497000Y-43823000D01*
X129319000Y-44542288D02*
X128599712Y-43823000D01*
X129752330Y-45989570D02*
X129319000Y-45556240D01*
X138503527Y-36522499D02*
X140902499Y-36522499D01*
X140902499Y-36522499D02*
X142500000Y-38120000D01*
X142500000Y-38120000D02*
X142500000Y-57350000D01*
X138440244Y-36585782D02*
X138503527Y-36522499D01*
X142500000Y-57350000D02*
X142810000Y-57660000D01*
X128363356Y-66298696D02*
X128363356Y-67274173D01*
X127018695Y-68173357D02*
X124999999Y-70192053D01*
X135256294Y-42343706D02*
X135256294Y-43003286D01*
X135136850Y-61149862D02*
X132803465Y-63483247D01*
X124999999Y-70192053D02*
X124999999Y-70436713D01*
X135136850Y-43122731D02*
X135136850Y-61149862D01*
X128363356Y-67274173D02*
X127464172Y-68173357D01*
X131178805Y-63483247D02*
X128363356Y-66298696D01*
X132803465Y-63483247D02*
X131178805Y-63483247D01*
X135256294Y-43003286D02*
X135136850Y-43122731D01*
X127464172Y-68173357D02*
X127018695Y-68173357D01*
X135310000Y-42290000D02*
X135256294Y-42343706D01*
X128817356Y-67462226D02*
X125961897Y-70317684D01*
X132991517Y-63937247D02*
X131366857Y-63937247D01*
X135597000Y-61331764D02*
X132991517Y-63937247D01*
X135710294Y-43191339D02*
X135597000Y-43304633D01*
X125961897Y-70317684D02*
X125761080Y-70317684D01*
X136070000Y-42080000D02*
X136070000Y-42458816D01*
X135597000Y-43304633D02*
X135597000Y-61331764D01*
X131366857Y-63937247D02*
X128817356Y-66486748D01*
X128817356Y-66486748D02*
X128817356Y-67462226D01*
X136070000Y-42458816D02*
X135710294Y-42818522D01*
X135710294Y-42818522D02*
X135710294Y-43191339D01*
X132820000Y-61340000D02*
X133000000Y-61520000D01*
X132820000Y-46970000D02*
X132820000Y-61340000D01*
X126900000Y-46250000D02*
X126900000Y-43362284D01*
X126900000Y-43362284D02*
X127595410Y-42666874D01*
X124550000Y-65680000D02*
X126100000Y-65680000D01*
X123593450Y-66264454D02*
X123965546Y-66264454D01*
X128610000Y-63170000D02*
X128610000Y-47960000D01*
X128610000Y-47960000D02*
X126900000Y-46250000D01*
X126100000Y-65680000D02*
X128610000Y-63170000D01*
X123965546Y-66264454D02*
X124550000Y-65680000D01*
X130379330Y-45703349D02*
X130379330Y-62978618D01*
X131000000Y-45082679D02*
X130379330Y-45703349D01*
X127088068Y-67265357D02*
X126421355Y-67265357D01*
X125040420Y-68646292D02*
X124959603Y-68646292D01*
X127455356Y-66898069D02*
X127088068Y-67265357D01*
X131000000Y-41927616D02*
X131000000Y-45082679D01*
X130379330Y-62978618D02*
X127455356Y-65902592D01*
X127455356Y-65902592D02*
X127455356Y-66898069D01*
X126421355Y-67265357D02*
X125040420Y-68646292D01*
X124273000Y-60663000D02*
X126860000Y-63250000D01*
X124273000Y-52070000D02*
X124273000Y-60663000D01*
X137792000Y-45263313D02*
X137645031Y-45410282D01*
X137792000Y-38224706D02*
X137792000Y-45263313D01*
X137469383Y-37902089D02*
X137792000Y-38224706D01*
X133191866Y-35866078D02*
X132655318Y-35329530D01*
X133191866Y-40593584D02*
X133191866Y-35866078D01*
X131927691Y-35488615D02*
X132319802Y-35880726D01*
X132319802Y-40285923D02*
X131913000Y-40692725D01*
X131927691Y-35235358D02*
X131927691Y-35488615D01*
X132319802Y-35880726D02*
X132319802Y-40285923D01*
X127870000Y-43587796D02*
X128317000Y-43140796D01*
X128317000Y-41782336D02*
X127925688Y-41391024D01*
X129090000Y-47640000D02*
X127870000Y-46420000D01*
X129090000Y-63490000D02*
X129090000Y-47640000D01*
X124888628Y-66328085D02*
X126251915Y-66328085D01*
X128317000Y-43140796D02*
X128317000Y-41782336D01*
X126251915Y-66328085D02*
X129090000Y-63490000D01*
X127870000Y-46420000D02*
X127870000Y-43587796D01*
X125730000Y-43990000D02*
X125730000Y-45560000D01*
X125730000Y-45560000D02*
X125580000Y-45710000D01*
X139609348Y-42622881D02*
X140077000Y-42155229D01*
X139609348Y-60090652D02*
X139609348Y-42622881D01*
X140077000Y-42155229D02*
X140077000Y-40278641D01*
X140077000Y-40278641D02*
X140667086Y-39688555D01*
X137500000Y-62200000D02*
X139609348Y-60090652D01*
G04 #@! TA.AperFunction,Conductor*
G36*
X97694066Y-47619685D02*
G01*
X97703757Y-47626591D01*
X111130538Y-58202994D01*
X111942832Y-58842845D01*
X111983315Y-58899792D01*
X111990102Y-58940043D01*
X112003879Y-67031791D01*
X112017074Y-74781550D01*
X112017607Y-75094289D01*
X111998036Y-75161362D01*
X111945310Y-75207206D01*
X111893607Y-75218500D01*
X111309385Y-75218500D01*
X111242346Y-75198815D01*
X111221704Y-75182181D01*
X107124318Y-71084795D01*
X107090833Y-71023472D01*
X107087999Y-70997114D01*
X107087999Y-68641436D01*
X107087999Y-68641434D01*
X107073234Y-68567199D01*
X107054568Y-68539265D01*
X107016984Y-68483015D01*
X106966519Y-68449296D01*
X106932801Y-68426766D01*
X106932799Y-68426765D01*
X106932796Y-68426764D01*
X106858569Y-68412000D01*
X104141436Y-68412000D01*
X104067198Y-68426766D01*
X103983015Y-68483015D01*
X103926766Y-68567199D01*
X103926764Y-68567203D01*
X103912000Y-68641428D01*
X103912000Y-71358563D01*
X103926766Y-71432801D01*
X103983015Y-71516984D01*
X104016734Y-71539514D01*
X104067199Y-71573234D01*
X104067202Y-71573234D01*
X104067203Y-71573235D01*
X104092166Y-71578200D01*
X104141433Y-71588000D01*
X106497114Y-71587999D01*
X106564153Y-71607684D01*
X106584795Y-71624318D01*
X110698276Y-75737799D01*
X110731761Y-75799122D01*
X110726777Y-75868814D01*
X110684905Y-75924747D01*
X110619441Y-75949164D01*
X110610595Y-75949480D01*
X102308994Y-75949480D01*
X102241955Y-75929795D01*
X102196200Y-75876991D01*
X102186256Y-75807833D01*
X102215281Y-75744277D01*
X102228462Y-75731190D01*
X102303713Y-75666919D01*
X102397132Y-75587132D01*
X102550930Y-75407057D01*
X102674664Y-75205141D01*
X102765289Y-74986354D01*
X102820572Y-74756083D01*
X102839152Y-74520000D01*
X102820572Y-74283917D01*
X102765289Y-74053646D01*
X102709711Y-73919470D01*
X102674664Y-73834858D01*
X102550931Y-73632945D01*
X102550928Y-73632940D01*
X102495577Y-73568133D01*
X102397132Y-73452868D01*
X102298685Y-73368786D01*
X102217059Y-73299071D01*
X102217054Y-73299068D01*
X102015141Y-73175335D01*
X101796349Y-73084709D01*
X101566079Y-73029427D01*
X101566080Y-73029427D01*
X101330000Y-73010848D01*
X101093919Y-73029427D01*
X100863650Y-73084709D01*
X100644858Y-73175335D01*
X100442945Y-73299068D01*
X100442940Y-73299071D01*
X100262868Y-73452868D01*
X100109071Y-73632940D01*
X100078699Y-73682503D01*
X100026887Y-73729378D01*
X99957957Y-73740800D01*
X99893794Y-73713142D01*
X99865585Y-73679712D01*
X99779969Y-73531422D01*
X99653696Y-73373079D01*
X98941526Y-74085249D01*
X98912563Y-74041903D01*
X98808097Y-73937437D01*
X98764749Y-73908473D01*
X99476607Y-73196615D01*
X99424164Y-73147956D01*
X99207454Y-73000206D01*
X99207445Y-73000201D01*
X98971142Y-72886404D01*
X98971144Y-72886404D01*
X98720505Y-72809092D01*
X98720499Y-72809090D01*
X98461151Y-72770000D01*
X98198848Y-72770000D01*
X97939500Y-72809090D01*
X97939494Y-72809092D01*
X97688858Y-72886404D01*
X97688854Y-72886405D01*
X97452550Y-73000204D01*
X97452546Y-73000206D01*
X97235835Y-73147956D01*
X97183391Y-73196615D01*
X97895250Y-73908473D01*
X97851903Y-73937437D01*
X97747437Y-74041903D01*
X97718473Y-74085250D01*
X97006302Y-73373079D01*
X96880027Y-73531426D01*
X96748883Y-73758573D01*
X96653058Y-74002729D01*
X96594693Y-74258449D01*
X96594692Y-74258454D01*
X96575093Y-74519995D01*
X96575093Y-74520004D01*
X96594692Y-74781545D01*
X96594693Y-74781550D01*
X96653058Y-75037270D01*
X96748883Y-75281426D01*
X96748882Y-75281426D01*
X96880030Y-75508577D01*
X97006302Y-75666919D01*
X97006303Y-75666919D01*
X97718473Y-74954749D01*
X97747437Y-74998097D01*
X97851903Y-75102563D01*
X97895249Y-75131526D01*
X97175261Y-75851514D01*
X97164587Y-75890556D01*
X97112649Y-75937291D01*
X97059036Y-75949480D01*
X94994852Y-75949480D01*
X94927813Y-75929795D01*
X94882058Y-75876991D01*
X94870852Y-75825286D01*
X94871100Y-75666919D01*
X94879556Y-70260311D01*
X94899346Y-70193304D01*
X94941556Y-70153120D01*
X94941986Y-70152872D01*
X95056114Y-70086980D01*
X95149300Y-69993794D01*
X95215192Y-69879666D01*
X95249300Y-69752372D01*
X95249300Y-66038001D01*
X103661817Y-66038001D01*
X103680527Y-66299606D01*
X103736273Y-66555867D01*
X103827932Y-66801615D01*
X103953618Y-67031791D01*
X103953623Y-67031799D01*
X104110787Y-67241746D01*
X104110803Y-67241763D01*
X104115130Y-67246091D01*
X104115131Y-67246091D01*
X104788260Y-66572962D01*
X104809469Y-66604704D01*
X104933296Y-66728531D01*
X104965036Y-66749739D01*
X104291908Y-67422868D01*
X104296236Y-67427196D01*
X104296253Y-67427212D01*
X104506200Y-67584376D01*
X104506208Y-67584381D01*
X104736385Y-67710067D01*
X104736384Y-67710067D01*
X104982132Y-67801726D01*
X105238393Y-67857472D01*
X105499999Y-67876183D01*
X105500001Y-67876183D01*
X105761606Y-67857472D01*
X106017867Y-67801726D01*
X106263615Y-67710067D01*
X106493791Y-67584381D01*
X106493799Y-67584376D01*
X106703752Y-67427208D01*
X106703759Y-67427202D01*
X106708091Y-67422869D01*
X106708090Y-67422867D01*
X106034963Y-66749739D01*
X106066704Y-66728531D01*
X106190531Y-66604704D01*
X106211739Y-66572963D01*
X106884867Y-67246090D01*
X106884869Y-67246091D01*
X106889202Y-67241759D01*
X106889208Y-67241752D01*
X107046376Y-67031799D01*
X107046381Y-67031791D01*
X107172067Y-66801615D01*
X107263726Y-66555867D01*
X107319472Y-66299606D01*
X107338183Y-66038001D01*
X107338183Y-66037998D01*
X107319472Y-65776393D01*
X107263726Y-65520132D01*
X107172067Y-65274384D01*
X107046381Y-65044208D01*
X107046376Y-65044200D01*
X106889212Y-64834253D01*
X106889196Y-64834236D01*
X106884869Y-64829908D01*
X106884868Y-64829908D01*
X106211739Y-65503036D01*
X106190531Y-65471296D01*
X106066704Y-65347469D01*
X106034962Y-65326260D01*
X106708091Y-64653131D01*
X106708091Y-64653130D01*
X106703763Y-64648803D01*
X106703746Y-64648787D01*
X106493799Y-64491623D01*
X106493791Y-64491618D01*
X106263614Y-64365932D01*
X106263615Y-64365932D01*
X106017867Y-64274273D01*
X105761606Y-64218527D01*
X105500001Y-64199817D01*
X105499999Y-64199817D01*
X105238393Y-64218527D01*
X104982132Y-64274273D01*
X104736384Y-64365932D01*
X104506208Y-64491618D01*
X104506200Y-64491623D01*
X104296244Y-64648795D01*
X104291908Y-64653130D01*
X104291907Y-64653131D01*
X104965036Y-65326260D01*
X104933296Y-65347469D01*
X104809469Y-65471296D01*
X104788260Y-65503036D01*
X104115131Y-64829907D01*
X104115130Y-64829908D01*
X104110795Y-64834244D01*
X103953623Y-65044200D01*
X103953618Y-65044208D01*
X103827932Y-65274384D01*
X103736273Y-65520132D01*
X103680527Y-65776393D01*
X103661817Y-66037998D01*
X103661817Y-66038001D01*
X95249300Y-66038001D01*
X95249300Y-62164994D01*
X104356500Y-62164994D01*
X104384657Y-62342771D01*
X104440275Y-62513949D01*
X104440276Y-62513952D01*
X104521991Y-62674325D01*
X104627787Y-62819940D01*
X104755060Y-62947213D01*
X104900675Y-63053009D01*
X104979333Y-63093087D01*
X105061047Y-63134723D01*
X105061050Y-63134724D01*
X105146639Y-63162533D01*
X105232230Y-63190343D01*
X105410005Y-63218500D01*
X105410006Y-63218500D01*
X105589994Y-63218500D01*
X105589995Y-63218500D01*
X105767770Y-63190343D01*
X105938952Y-63134723D01*
X106099325Y-63053009D01*
X106244940Y-62947213D01*
X106372213Y-62819940D01*
X106478009Y-62674325D01*
X106559723Y-62513952D01*
X106615343Y-62342770D01*
X106643500Y-62164995D01*
X106643500Y-61985005D01*
X106615343Y-61807230D01*
X106559723Y-61636048D01*
X106559723Y-61636047D01*
X106478008Y-61475674D01*
X106372213Y-61330060D01*
X106244940Y-61202787D01*
X106099325Y-61096991D01*
X105938952Y-61015276D01*
X105938949Y-61015275D01*
X105767771Y-60959657D01*
X105678882Y-60945578D01*
X105589995Y-60931500D01*
X105410005Y-60931500D01*
X105350746Y-60940885D01*
X105232228Y-60959657D01*
X105061050Y-61015275D01*
X105061047Y-61015276D01*
X104900674Y-61096991D01*
X104817595Y-61157352D01*
X104755060Y-61202787D01*
X104755058Y-61202789D01*
X104755057Y-61202789D01*
X104627789Y-61330057D01*
X104627789Y-61330058D01*
X104627787Y-61330060D01*
X104582352Y-61392595D01*
X104521991Y-61475674D01*
X104440276Y-61636047D01*
X104440275Y-61636050D01*
X104384657Y-61807228D01*
X104356500Y-61985005D01*
X104356500Y-62164994D01*
X95249300Y-62164994D01*
X95249300Y-58360428D01*
X95215192Y-58233134D01*
X95197791Y-58202994D01*
X104356500Y-58202994D01*
X104384657Y-58380771D01*
X104440275Y-58551949D01*
X104440276Y-58551952D01*
X104474697Y-58619506D01*
X104521991Y-58712325D01*
X104627787Y-58857940D01*
X104755060Y-58985213D01*
X104900675Y-59091009D01*
X104979333Y-59131087D01*
X105061047Y-59172723D01*
X105061050Y-59172724D01*
X105146639Y-59200533D01*
X105232230Y-59228343D01*
X105410005Y-59256500D01*
X105410006Y-59256500D01*
X105589994Y-59256500D01*
X105589995Y-59256500D01*
X105767770Y-59228343D01*
X105938952Y-59172723D01*
X106099325Y-59091009D01*
X106244940Y-58985213D01*
X106372213Y-58857940D01*
X106478009Y-58712325D01*
X106559723Y-58551952D01*
X106615343Y-58380770D01*
X106643500Y-58202995D01*
X106643500Y-58023005D01*
X106615343Y-57845230D01*
X106559723Y-57674048D01*
X106559723Y-57674047D01*
X106478008Y-57513674D01*
X106372213Y-57368060D01*
X106244940Y-57240787D01*
X106099325Y-57134991D01*
X105938952Y-57053276D01*
X105938949Y-57053275D01*
X105767771Y-56997657D01*
X105678882Y-56983578D01*
X105589995Y-56969500D01*
X105410005Y-56969500D01*
X105350746Y-56978885D01*
X105232228Y-56997657D01*
X105061050Y-57053275D01*
X105061047Y-57053276D01*
X104900674Y-57134991D01*
X104827192Y-57188380D01*
X104755060Y-57240787D01*
X104755058Y-57240789D01*
X104755057Y-57240789D01*
X104627789Y-57368057D01*
X104627789Y-57368058D01*
X104627787Y-57368060D01*
X104582352Y-57430595D01*
X104521991Y-57513674D01*
X104440276Y-57674047D01*
X104440275Y-57674050D01*
X104384657Y-57845228D01*
X104356500Y-58023005D01*
X104356500Y-58202994D01*
X95197791Y-58202994D01*
X95149300Y-58119006D01*
X95056114Y-58025820D01*
X94960945Y-57970874D01*
X94912730Y-57920306D01*
X94898946Y-57863296D01*
X94900000Y-57190000D01*
X94900000Y-57189999D01*
X89944946Y-57207823D01*
X89877836Y-57188380D01*
X89831892Y-57135741D01*
X89820500Y-57083824D01*
X89820500Y-54570000D01*
X97780312Y-54570000D01*
X97800957Y-54713595D01*
X97800958Y-54713599D01*
X97861222Y-54845556D01*
X97861223Y-54845558D01*
X97956225Y-54955196D01*
X98034659Y-55005602D01*
X98078269Y-55033630D01*
X98217461Y-55074499D01*
X98217463Y-55074500D01*
X98217464Y-55074500D01*
X98362537Y-55074500D01*
X98362537Y-55074499D01*
X98501729Y-55033630D01*
X98501730Y-55033630D01*
X98501732Y-55033629D01*
X98623775Y-54955196D01*
X98718777Y-54845558D01*
X98779042Y-54713596D01*
X98799688Y-54570000D01*
X98779042Y-54426404D01*
X98779041Y-54426400D01*
X98718777Y-54294443D01*
X98718777Y-54294442D01*
X98623775Y-54184804D01*
X98588950Y-54162423D01*
X98501730Y-54106369D01*
X98362538Y-54065500D01*
X98362536Y-54065500D01*
X98217464Y-54065500D01*
X98217461Y-54065500D01*
X98078270Y-54106369D01*
X98078269Y-54106369D01*
X97956226Y-54184803D01*
X97861223Y-54294442D01*
X97861222Y-54294443D01*
X97800958Y-54426400D01*
X97800957Y-54426404D01*
X97780312Y-54570000D01*
X89820500Y-54570000D01*
X89820500Y-47724000D01*
X89840185Y-47656961D01*
X89892989Y-47611206D01*
X89944500Y-47600000D01*
X97627027Y-47600000D01*
X97694066Y-47619685D01*
G37*
G04 #@! TD.AperFunction*
G04 #@! TA.AperFunction,Conductor*
G36*
X99653696Y-75666919D02*
G01*
X99779971Y-75508573D01*
X99865585Y-75360287D01*
X99916152Y-75312071D01*
X99984759Y-75298848D01*
X100049624Y-75324816D01*
X100078699Y-75357497D01*
X100109068Y-75407054D01*
X100109071Y-75407059D01*
X100148092Y-75452746D01*
X100262868Y-75587132D01*
X100336741Y-75650225D01*
X100431538Y-75731190D01*
X100469731Y-75789697D01*
X100470229Y-75859565D01*
X100432876Y-75918611D01*
X100369529Y-75948089D01*
X100351006Y-75949480D01*
X99600964Y-75949480D01*
X99533925Y-75929795D01*
X99488170Y-75876991D01*
X99482388Y-75849165D01*
X98764749Y-75131526D01*
X98808097Y-75102563D01*
X98912563Y-74998097D01*
X98941526Y-74954749D01*
X99653696Y-75666919D01*
G37*
G04 #@! TD.AperFunction*
M02*
